<?xml version="1.0" encoding="utf-8" standalone="no"?>
<!DOCTYPE svg PUBLIC "-//W3C//DTD SVG 1.1//EN"
  "http://www.w3.org/Graphics/SVG/1.1/DTD/svg11.dtd">
<svg xmlns:xlink="http://www.w3.org/1999/xlink" width="748.46125pt" height="351.034375pt" viewBox="0 0 748.46125 351.034375" xmlns="http://www.w3.org/2000/svg" version="1.1">
 <metadata>
  <rdf:RDF xmlns:dc="http://purl.org/dc/elements/1.1/" xmlns:cc="http://creativecommons.org/ns#" xmlns:rdf="http://www.w3.org/1999/02/22-rdf-syntax-ns#">
   <cc:Work>
    <dc:type rdf:resource="http://purl.org/dc/dcmitype/StillImage"/>
    <dc:date>2026-05-25T16:14:04.494650</dc:date>
    <dc:format>image/svg+xml</dc:format>
    <dc:creator>
     <cc:Agent>
      <dc:title>Matplotlib v3.9.4, https://matplotlib.org/</dc:title>
     </cc:Agent>
    </dc:creator>
   </cc:Work>
  </rdf:RDF>
 </metadata>
 <defs>
  <style type="text/css">*{stroke-linejoin: round; stroke-linecap: butt}</style>
 </defs>
 <g id="figure_1">
  <g id="patch_1">
   <path d="M 0 351.034375 
L 748.46125 351.034375 
L 748.46125 0 
L 0 0 
z
" style="fill: #ffffff"/>
  </g>
  <g id="axes_1">
   <g id="patch_2">
    <path d="M 43.78125 313.478125 
L 741.26125 313.478125 
L 741.26125 22.318125 
L 43.78125 22.318125 
z
" style="fill: #ffffff"/>
   </g>
   <g id="PathCollection_1">
    <path d="M 110.147505 60.475619 
C 112.022774 60.475619 113.82149 59.730567 115.147505 58.404551 
C 116.473521 57.078536 117.218573 55.27982 117.218573 53.404551 
C 117.218573 51.529282 116.473521 49.730567 115.147505 48.404551 
C 113.82149 47.078536 112.022774 46.333483 110.147505 46.333483 
C 108.272236 46.333483 106.473521 47.078536 105.147505 48.404551 
C 103.82149 49.730567 103.076438 51.529282 103.076438 53.404551 
C 103.076438 55.27982 103.82149 57.078536 105.147505 58.404551 
C 106.473521 59.730567 108.272236 60.475619 110.147505 60.475619 
z
" clip-path="url(#p141f096529)" style="fill: #d62728; fill-opacity: 0.55; stroke: #d62728; stroke-opacity: 0.55"/>
    <path d="M 198.720826 84.016419 
C 200.559127 84.016419 202.322383 83.286054 203.622257 81.98618 
C 204.922132 80.686305 205.652497 78.923049 205.652497 77.084748 
C 205.652497 75.246448 204.922132 73.483192 203.622257 72.183317 
C 202.322383 70.883442 200.559127 70.153078 198.720826 70.153078 
C 196.882525 70.153078 195.119269 70.883442 193.819395 72.183317 
C 192.51952 73.483192 191.789155 75.246448 191.789155 77.084748 
C 191.789155 78.923049 192.51952 80.686305 193.819395 81.98618 
C 195.119269 83.286054 196.882525 84.016419 198.720826 84.016419 
z
" clip-path="url(#p141f096529)" style="fill: #d62728; fill-opacity: 0.55; stroke: #d62728; stroke-opacity: 0.55"/>
    <path d="M 187.409029 63.541999 
C 189.24733 63.541999 191.010586 62.811634 192.310461 61.51176 
C 193.610335 60.211885 194.3407 58.448629 194.3407 56.610328 
C 194.3407 54.772028 193.610335 53.008772 192.310461 51.708897 
C 191.010586 50.409022 189.24733 49.678658 187.409029 49.678658 
C 185.570729 49.678658 183.807473 50.409022 182.507598 51.708897 
C 181.207723 53.008772 180.477358 54.772028 180.477358 56.610328 
C 180.477358 58.448629 181.207723 60.211885 182.507598 61.51176 
C 183.807473 62.811634 185.570729 63.541999 187.409029 63.541999 
z
" clip-path="url(#p141f096529)" style="fill: #d62728; fill-opacity: 0.55; stroke: #d62728; stroke-opacity: 0.55"/>
    <path d="M 84.372997 118.169252 
C 84.946124 118.169252 85.495855 117.941546 85.901117 117.536284 
C 86.306379 117.131022 86.534084 116.581292 86.534084 116.008165 
C 86.534084 115.435038 86.306379 114.885307 85.901117 114.480045 
C 85.495855 114.074784 84.946124 113.847078 84.372997 113.847078 
C 83.79987 113.847078 83.25014 114.074784 82.844878 114.480045 
C 82.439616 114.885307 82.21191 115.435038 82.21191 116.008165 
C 82.21191 116.581292 82.439616 117.131022 82.844878 117.536284 
C 83.25014 117.941546 83.79987 118.169252 84.372997 118.169252 
z
" clip-path="url(#p141f096529)" style="fill: #d62728; fill-opacity: 0.55; stroke: #d62728; stroke-opacity: 0.55"/>
    <path d="M 112.997191 55.880118 
C 114.872461 55.880118 116.671176 55.135066 117.997191 53.80905 
C 119.323207 52.483035 120.068259 50.684319 120.068259 48.80905 
C 120.068259 46.933781 119.323207 45.135066 117.997191 43.80905 
C 116.671176 42.483035 114.872461 41.737982 112.997191 41.737982 
C 111.121922 41.737982 109.323207 42.483035 107.997191 43.80905 
C 106.671176 45.135066 105.926124 46.933781 105.926124 48.80905 
C 105.926124 50.684319 106.671176 52.483035 107.997191 53.80905 
C 109.323207 55.135066 111.121922 55.880118 112.997191 55.880118 
z
" clip-path="url(#p141f096529)" style="fill: #d62728; fill-opacity: 0.55; stroke: #d62728; stroke-opacity: 0.55"/>
    <path d="M 111.99105 92.196321 
C 113.86632 92.196321 115.665035 91.451269 116.99105 90.125254 
C 118.317066 88.799238 119.062118 87.000523 119.062118 85.125254 
C 119.062118 83.249984 118.317066 81.451269 116.99105 80.125254 
C 115.665035 78.799238 113.86632 78.054186 111.99105 78.054186 
C 110.115781 78.054186 108.317066 78.799238 106.99105 80.125254 
C 105.665035 81.451269 104.919983 83.249984 104.919983 85.125254 
C 104.919983 87.000523 105.665035 88.799238 106.99105 90.125254 
C 108.317066 91.451269 110.115781 92.196321 111.99105 92.196321 
z
" clip-path="url(#p141f096529)" style="fill: #d62728; fill-opacity: 0.55; stroke: #d62728; stroke-opacity: 0.55"/>
    <path d="M 107.172872 72.620857 
C 109.048141 72.620857 110.846856 71.875805 112.172872 70.54979 
C 113.498887 69.223774 114.24394 67.425059 114.24394 65.54979 
C 114.24394 63.67452 113.498887 61.875805 112.172872 60.54979 
C 110.846856 59.223774 109.048141 58.478722 107.172872 58.478722 
C 105.297603 58.478722 103.498887 59.223774 102.172872 60.54979 
C 100.846856 61.875805 100.101804 63.67452 100.101804 65.54979 
C 100.101804 67.425059 100.846856 69.223774 102.172872 70.54979 
C 103.498887 71.875805 105.297603 72.620857 107.172872 72.620857 
z
" clip-path="url(#p141f096529)" style="fill: #d62728; fill-opacity: 0.55; stroke: #d62728; stroke-opacity: 0.55"/>
    <path d="M 190.102645 48.8788 
C 191.940946 48.8788 193.704202 48.148436 195.004076 46.848561 
C 196.303951 45.548686 197.034316 43.78543 197.034316 41.947129 
C 197.034316 40.108829 196.303951 38.345573 195.004076 37.045698 
C 193.704202 35.745823 191.940946 35.015459 190.102645 35.015459 
C 188.264344 35.015459 186.501088 35.745823 185.201214 37.045698 
C 183.901339 38.345573 183.170974 40.108829 183.170974 41.947129 
C 183.170974 43.78543 183.901339 45.548686 185.201214 46.848561 
C 186.501088 48.148436 188.264344 48.8788 190.102645 48.8788 
z
" clip-path="url(#p141f096529)" style="fill: #d62728; fill-opacity: 0.55; stroke: #d62728; stroke-opacity: 0.55"/>
    <path d="M 110.77126 70.858335 
C 112.058095 70.858335 113.292399 70.34707 114.202329 69.43714 
C 115.112259 68.52721 115.623524 67.292906 115.623524 66.006071 
C 115.623524 64.719236 115.112259 63.484933 114.202329 62.575003 
C 113.292399 61.665073 112.058095 61.153807 110.77126 61.153807 
C 109.484425 61.153807 108.250122 61.665073 107.340192 62.575003 
C 106.430262 63.484933 105.918997 64.719236 105.918997 66.006071 
C 105.918997 67.292906 106.430262 68.52721 107.340192 69.43714 
C 108.250122 70.34707 109.484425 70.858335 110.77126 70.858335 
z
" clip-path="url(#p141f096529)" style="fill: #d62728; fill-opacity: 0.55; stroke: #d62728; stroke-opacity: 0.55"/>
    <path d="M 94.052793 77.761294 
C 95.339629 77.761294 96.573932 77.250029 97.483862 76.340099 
C 98.393792 75.430169 98.905057 74.195866 98.905057 72.90903 
C 98.905057 71.622195 98.393792 70.387892 97.483862 69.477962 
C 96.573932 68.568032 95.339629 68.056767 94.052793 68.056767 
C 92.765958 68.056767 91.531655 68.568032 90.621725 69.477962 
C 89.711795 70.387892 89.20053 71.622195 89.20053 72.90903 
C 89.20053 74.195866 89.711795 75.430169 90.621725 76.340099 
C 91.531655 77.250029 92.765958 77.761294 94.052793 77.761294 
z
" clip-path="url(#p141f096529)" style="fill: #d62728; fill-opacity: 0.55; stroke: #d62728; stroke-opacity: 0.55"/>
    <path d="M 97.299357 134.730428 
C 98.586192 134.730428 99.820495 134.219163 100.730425 133.309233 
C 101.640355 132.399303 102.15162 131.165 102.15162 129.878164 
C 102.15162 128.591329 101.640355 127.357026 100.730425 126.447096 
C 99.820495 125.537166 98.586192 125.025901 97.299357 125.025901 
C 96.012521 125.025901 94.778218 125.537166 93.868288 126.447096 
C 92.958358 127.357026 92.447093 128.591329 92.447093 129.878164 
C 92.447093 131.165 92.958358 132.399303 93.868288 133.309233 
C 94.778218 134.219163 96.012521 134.730428 97.299357 134.730428 
z
" clip-path="url(#p141f096529)" style="fill: #d62728; fill-opacity: 0.55; stroke: #d62728; stroke-opacity: 0.55"/>
    <path d="M 102.521676 131.428988 
C 103.808511 131.428988 105.042814 130.917722 105.952744 130.007792 
C 106.862674 129.097862 107.373939 127.863559 107.373939 126.576724 
C 107.373939 125.289889 106.862674 124.055585 105.952744 123.145655 
C 105.042814 122.235725 103.808511 121.72446 102.521676 121.72446 
C 101.23484 121.72446 100.000537 122.235725 99.090607 123.145655 
C 98.180677 124.055585 97.669412 125.289889 97.669412 126.576724 
C 97.669412 127.863559 98.180677 129.097862 99.090607 130.007792 
C 100.000537 130.917722 101.23484 131.428988 102.521676 131.428988 
z
" clip-path="url(#p141f096529)" style="fill: #d62728; fill-opacity: 0.55; stroke: #d62728; stroke-opacity: 0.55"/>
    <path d="M 96.86469 94.962789 
C 98.151525 94.962789 99.385828 94.451524 100.295758 93.541594 
C 101.205688 92.631664 101.716953 91.397361 101.716953 90.110525 
C 101.716953 88.82369 101.205688 87.589387 100.295758 86.679457 
C 99.385828 85.769527 98.151525 85.258262 96.86469 85.258262 
C 95.577854 85.258262 94.343551 85.769527 93.433621 86.679457 
C 92.523691 87.589387 92.012426 88.82369 92.012426 90.110525 
C 92.012426 91.397361 92.523691 92.631664 93.433621 93.541594 
C 94.343551 94.451524 95.577854 94.962789 96.86469 94.962789 
z
" clip-path="url(#p141f096529)" style="fill: #d62728; fill-opacity: 0.55; stroke: #d62728; stroke-opacity: 0.55"/>
    <path d="M 97.972866 74.415126 
C 99.259701 74.415126 100.494004 73.903861 101.403934 72.993931 
C 102.313864 72.084001 102.825129 70.849698 102.825129 69.562862 
C 102.825129 68.276027 102.313864 67.041724 101.403934 66.131794 
C 100.494004 65.221864 99.259701 64.710599 97.972866 64.710599 
C 96.686031 64.710599 95.451727 65.221864 94.541797 66.131794 
C 93.631867 67.041724 93.120602 68.276027 93.120602 69.562862 
C 93.120602 70.849698 93.631867 72.084001 94.541797 72.993931 
C 95.451727 73.903861 96.686031 74.415126 97.972866 74.415126 
z
" clip-path="url(#p141f096529)" style="fill: #d62728; fill-opacity: 0.55; stroke: #d62728; stroke-opacity: 0.55"/>
    <path d="M 100.000516 77.896655 
C 101.287352 77.896655 102.521655 77.38539 103.431585 76.47546 
C 104.341515 75.56553 104.85278 74.331227 104.85278 73.044392 
C 104.85278 71.757556 104.341515 70.523253 103.431585 69.613323 
C 102.521655 68.703393 101.287352 68.192128 100.000516 68.192128 
C 98.713681 68.192128 97.479378 68.703393 96.569448 69.613323 
C 95.659518 70.523253 95.148253 71.757556 95.148253 73.044392 
C 95.148253 74.331227 95.659518 75.56553 96.569448 76.47546 
C 97.479378 77.38539 98.713681 77.896655 100.000516 77.896655 
z
" clip-path="url(#p141f096529)" style="fill: #d62728; fill-opacity: 0.55; stroke: #d62728; stroke-opacity: 0.55"/>
    <path d="M 227.29695 42.538566 
C 229.13525 42.538566 230.898506 41.808201 232.198381 40.508326 
C 233.498256 39.208451 234.228621 37.445195 234.228621 35.606895 
C 234.228621 33.768594 233.498256 32.005338 232.198381 30.705464 
C 230.898506 29.405589 229.13525 28.675224 227.29695 28.675224 
C 225.458649 28.675224 223.695393 29.405589 222.395518 30.705464 
C 221.095644 32.005338 220.365279 33.768594 220.365279 35.606895 
C 220.365279 37.445195 221.095644 39.208451 222.395518 40.508326 
C 223.695393 41.808201 225.458649 42.538566 227.29695 42.538566 
z
" clip-path="url(#p141f096529)" style="fill: #d62728; fill-opacity: 0.55; stroke: #d62728; stroke-opacity: 0.55"/>
    <path d="M 193.490682 109.856263 
C 195.328983 109.856263 197.092239 109.125899 198.392114 107.826024 
C 199.691988 106.526149 200.422353 104.762893 200.422353 102.924593 
C 200.422353 101.086292 199.691988 99.323036 198.392114 98.023161 
C 197.092239 96.723287 195.328983 95.992922 193.490682 95.992922 
C 191.652382 95.992922 189.889126 96.723287 188.589251 98.023161 
C 187.289376 99.323036 186.559012 101.086292 186.559012 102.924593 
C 186.559012 104.762893 187.289376 106.526149 188.589251 107.826024 
C 189.889126 109.125899 191.652382 109.856263 193.490682 109.856263 
z
" clip-path="url(#p141f096529)" style="fill: #d62728; fill-opacity: 0.55; stroke: #d62728; stroke-opacity: 0.55"/>
    <path d="M 184.014957 48.066802 
C 185.853257 48.066802 187.616513 47.336438 188.916388 46.036563 
C 190.216263 44.736688 190.946628 42.973432 190.946628 41.135131 
C 190.946628 39.296831 190.216263 37.533575 188.916388 36.2337 
C 187.616513 34.933825 185.853257 34.203461 184.014957 34.203461 
C 182.176656 34.203461 180.4134 34.933825 179.113525 36.2337 
C 177.813651 37.533575 177.083286 39.296831 177.083286 41.135131 
C 177.083286 42.973432 177.813651 44.736688 179.113525 46.036563 
C 180.4134 47.336438 182.176656 48.066802 184.014957 48.066802 
z
" clip-path="url(#p141f096529)" style="fill: #d62728; fill-opacity: 0.55; stroke: #d62728; stroke-opacity: 0.55"/>
    <path d="M 181.75892 42.484341 
C 183.597221 42.484341 185.360477 41.753977 186.660352 40.454102 
C 187.960226 39.154227 188.690591 37.390971 188.690591 35.55267 
C 188.690591 33.71437 187.960226 31.951114 186.660352 30.651239 
C 185.360477 29.351364 183.597221 28.621 181.75892 28.621 
C 179.92062 28.621 178.157364 29.351364 176.857489 30.651239 
C 175.557614 31.951114 174.82725 33.71437 174.82725 35.55267 
C 174.82725 37.390971 175.557614 39.154227 176.857489 40.454102 
C 178.157364 41.753977 179.92062 42.484341 181.75892 42.484341 
z
" clip-path="url(#p141f096529)" style="fill: #d62728; fill-opacity: 0.55; stroke: #d62728; stroke-opacity: 0.55"/>
    <path d="M 140.993385 61.183982 
C 142.868654 61.183982 144.66737 60.438929 145.993385 59.112914 
C 147.319401 57.786898 148.064453 55.988183 148.064453 54.112914 
C 148.064453 52.237645 147.319401 50.438929 145.993385 49.112914 
C 144.66737 47.786898 142.868654 47.041846 140.993385 47.041846 
C 139.118116 47.041846 137.319401 47.786898 135.993385 49.112914 
C 134.66737 50.438929 133.922317 52.237645 133.922317 54.112914 
C 133.922317 55.988183 134.66737 57.786898 135.993385 59.112914 
C 137.319401 60.438929 139.118116 61.183982 140.993385 61.183982 
z
" clip-path="url(#p141f096529)" style="fill: #d62728; fill-opacity: 0.55; stroke: #d62728; stroke-opacity: 0.55"/>
    <path d="M 116.299474 60.916374 
C 118.174743 60.916374 119.973459 60.171322 121.299474 58.845306 
C 122.62549 57.519291 123.370542 55.720575 123.370542 53.845306 
C 123.370542 51.970037 122.62549 50.171322 121.299474 48.845306 
C 119.973459 47.519291 118.174743 46.774238 116.299474 46.774238 
C 114.424205 46.774238 112.62549 47.519291 111.299474 48.845306 
C 109.973459 50.171322 109.228406 51.970037 109.228406 53.845306 
C 109.228406 55.720575 109.973459 57.519291 111.299474 58.845306 
C 112.62549 60.171322 114.424205 60.916374 116.299474 60.916374 
z
" clip-path="url(#p141f096529)" style="fill: #d62728; fill-opacity: 0.55; stroke: #d62728; stroke-opacity: 0.55"/>
    <path d="M 106.812731 110.171732 
C 108.688 110.171732 110.486716 109.426679 111.812731 108.100664 
C 113.138747 106.774648 113.883799 104.975933 113.883799 103.100664 
C 113.883799 101.225395 113.138747 99.426679 111.812731 98.100664 
C 110.486716 96.774648 108.688 96.029596 106.812731 96.029596 
C 104.937462 96.029596 103.138747 96.774648 101.812731 98.100664 
C 100.486716 99.426679 99.741663 101.225395 99.741663 103.100664 
C 99.741663 104.975933 100.486716 106.774648 101.812731 108.100664 
C 103.138747 109.426679 104.937462 110.171732 106.812731 110.171732 
z
" clip-path="url(#p141f096529)" style="fill: #d62728; fill-opacity: 0.55; stroke: #d62728; stroke-opacity: 0.55"/>
    <path d="M 709.557614 128.90025 
C 710.804693 128.90025 712.000863 128.40478 712.882681 127.522962 
C 713.7645 126.641144 714.25997 125.444974 714.25997 124.197894 
C 714.25997 122.950815 713.7645 121.754645 712.882681 120.872826 
C 712.000863 119.991008 710.804693 119.495538 709.557614 119.495538 
C 708.310534 119.495538 707.114364 119.991008 706.232546 120.872826 
C 705.350728 121.754645 704.855258 122.950815 704.855258 124.197894 
C 704.855258 125.444974 705.350728 126.641144 706.232546 127.522962 
C 707.114364 128.40478 708.310534 128.90025 709.557614 128.90025 
z
" clip-path="url(#p141f096529)" style="fill: #d62728; fill-opacity: 0.55; stroke: #d62728; stroke-opacity: 0.55"/>
   </g>
   <g id="PathCollection_2">
    <path d="M 95.156548 183.162961 
C 95.929068 183.162961 96.670051 182.856035 97.216305 182.309781 
C 97.762559 181.763528 98.069484 181.022544 98.069484 180.250025 
C 98.069484 179.477505 97.762559 178.736522 97.216305 178.190268 
C 96.670051 177.644014 95.929068 177.337089 95.156548 177.337089 
C 94.384029 177.337089 93.643045 177.644014 93.096792 178.190268 
C 92.550538 178.736522 92.243612 179.477505 92.243612 180.250025 
C 92.243612 181.022544 92.550538 181.763528 93.096792 182.309781 
C 93.643045 182.856035 94.384029 183.162961 95.156548 183.162961 
z
" clip-path="url(#p141f096529)" style="fill: #1f77b4; fill-opacity: 0.55; stroke: #1f77b4; stroke-opacity: 0.55"/>
    <path d="M 89.572018 117.712188 
C 90.17668 117.712188 90.756659 117.471954 91.184219 117.044393 
C 91.61178 116.616832 91.852015 116.036854 91.852015 115.432192 
C 91.852015 114.82753 91.61178 114.247552 91.184219 113.819991 
C 90.756659 113.39243 90.17668 113.152195 89.572018 113.152195 
C 88.967356 113.152195 88.387378 113.39243 87.959817 113.819991 
C 87.532257 114.247552 87.292022 114.82753 87.292022 115.432192 
C 87.292022 116.036854 87.532257 116.616832 87.959817 117.044393 
C 88.387378 117.471954 88.967356 117.712188 89.572018 117.712188 
z
" clip-path="url(#p141f096529)" style="fill: #1f77b4; fill-opacity: 0.55; stroke: #1f77b4; stroke-opacity: 0.55"/>
    <path d="M 98.813428 108.505169 
C 99.41809 108.505169 99.998068 108.264934 100.425629 107.837374 
C 100.85319 107.409813 101.093424 106.829835 101.093424 106.225173 
C 101.093424 105.62051 100.85319 105.040532 100.425629 104.612972 
C 99.998068 104.185411 99.41809 103.945176 98.813428 103.945176 
C 98.208766 103.945176 97.628788 104.185411 97.201227 104.612972 
C 96.773666 105.040532 96.533431 105.62051 96.533431 106.225173 
C 96.533431 106.829835 96.773666 107.409813 97.201227 107.837374 
C 97.628788 108.264934 98.208766 108.505169 98.813428 108.505169 
z
" clip-path="url(#p141f096529)" style="fill: #1f77b4; fill-opacity: 0.55; stroke: #1f77b4; stroke-opacity: 0.55"/>
    <path d="M 85.860577 94.562137 
C 86.393177 94.562137 86.904034 94.350533 87.280639 93.973928 
C 87.657244 93.597324 87.868848 93.086466 87.868848 92.553867 
C 87.868848 92.021267 87.657244 91.51041 87.280639 91.133805 
C 86.904034 90.7572 86.393177 90.545596 85.860577 90.545596 
C 85.327978 90.545596 84.81712 90.7572 84.440516 91.133805 
C 84.063911 91.51041 83.852307 92.021267 83.852307 92.553867 
C 83.852307 93.086466 84.063911 93.597324 84.440516 93.973928 
C 84.81712 94.350533 85.327978 94.562137 85.860577 94.562137 
z
" clip-path="url(#p141f096529)" style="fill: #1f77b4; fill-opacity: 0.55; stroke: #1f77b4; stroke-opacity: 0.55"/>
    <path d="M 88.861492 91.570713 
C 89.466154 91.570713 90.046132 91.330478 90.473693 90.902918 
C 90.901253 90.475357 91.141488 89.895379 91.141488 89.290717 
C 91.141488 88.686054 90.901253 88.106076 90.473693 87.678516 
C 90.046132 87.250955 89.466154 87.01072 88.861492 87.01072 
C 88.256829 87.01072 87.676851 87.250955 87.249291 87.678516 
C 86.82173 88.106076 86.581495 88.686054 86.581495 89.290717 
C 86.581495 89.895379 86.82173 90.475357 87.249291 90.902918 
C 87.676851 91.330478 88.256829 91.570713 88.861492 91.570713 
z
" clip-path="url(#p141f096529)" style="fill: #1f77b4; fill-opacity: 0.55; stroke: #1f77b4; stroke-opacity: 0.55"/>
    <path d="M 88.017666 82.751261 
C 88.622329 82.751261 89.202307 82.511026 89.629867 82.083465 
C 90.057428 81.655904 90.297663 81.075926 90.297663 80.471264 
C 90.297663 79.866602 90.057428 79.286624 89.629867 78.859063 
C 89.202307 78.431502 88.622329 78.191268 88.017666 78.191268 
C 87.413004 78.191268 86.833026 78.431502 86.405465 78.859063 
C 85.977905 79.286624 85.73767 79.866602 85.73767 80.471264 
C 85.73767 81.075926 85.977905 81.655904 86.405465 82.083465 
C 86.833026 82.511026 87.413004 82.751261 88.017666 82.751261 
z
" clip-path="url(#p141f096529)" style="fill: #1f77b4; fill-opacity: 0.55; stroke: #1f77b4; stroke-opacity: 0.55"/>
    <path d="M 89.595983 82.971243 
C 90.200645 82.971243 90.780624 82.731008 91.208184 82.303447 
C 91.635745 81.875886 91.87598 81.295908 91.87598 80.691246 
C 91.87598 80.086584 91.635745 79.506606 91.208184 79.079045 
C 90.780624 78.651484 90.200645 78.411249 89.595983 78.411249 
C 88.991321 78.411249 88.411343 78.651484 87.983782 79.079045 
C 87.556222 79.506606 87.315987 80.086584 87.315987 80.691246 
C 87.315987 81.295908 87.556222 81.875886 87.983782 82.303447 
C 88.411343 82.731008 88.991321 82.971243 89.595983 82.971243 
z
" clip-path="url(#p141f096529)" style="fill: #1f77b4; fill-opacity: 0.55; stroke: #1f77b4; stroke-opacity: 0.55"/>
    <path d="M 91.377283 82.381489 
C 91.981945 82.381489 92.561923 82.141254 92.989484 81.713694 
C 93.417044 81.286133 93.657279 80.706155 93.657279 80.101493 
C 93.657279 79.496831 93.417044 78.916852 92.989484 78.489292 
C 92.561923 78.061731 91.981945 77.821496 91.377283 77.821496 
C 90.77262 77.821496 90.192642 78.061731 89.765082 78.489292 
C 89.337521 78.916852 89.097286 79.496831 89.097286 80.101493 
C 89.097286 80.706155 89.337521 81.286133 89.765082 81.713694 
C 90.192642 82.141254 90.77262 82.381489 91.377283 82.381489 
z
" clip-path="url(#p141f096529)" style="fill: #1f77b4; fill-opacity: 0.55; stroke: #1f77b4; stroke-opacity: 0.55"/>
    <path d="M 90.665808 89.716587 
C 91.198408 89.716587 91.709265 89.504983 92.08587 89.128378 
C 92.462475 88.751773 92.674079 88.240916 92.674079 87.708316 
C 92.674079 87.175717 92.462475 86.664859 92.08587 86.288255 
C 91.709265 85.91165 91.198408 85.700046 90.665808 85.700046 
C 90.133209 85.700046 89.622352 85.91165 89.245747 86.288255 
C 88.869142 86.664859 88.657538 87.175717 88.657538 87.708316 
C 88.657538 88.240916 88.869142 88.751773 89.245747 89.128378 
C 89.622352 89.504983 90.133209 89.716587 90.665808 89.716587 
z
" clip-path="url(#p141f096529)" style="fill: #1f77b4; fill-opacity: 0.55; stroke: #1f77b4; stroke-opacity: 0.55"/>
    <path d="M 86.189665 119.089726 
C 86.722265 119.089726 87.233122 118.878122 87.609727 118.501518 
C 87.986332 118.124913 88.197936 117.614055 88.197936 117.081456 
C 88.197936 116.548856 87.986332 116.037999 87.609727 115.661394 
C 87.233122 115.284789 86.722265 115.073185 86.189665 115.073185 
C 85.657066 115.073185 85.146208 115.284789 84.769604 115.661394 
C 84.392999 116.037999 84.181395 116.548856 84.181395 117.081456 
C 84.181395 117.614055 84.392999 118.124913 84.769604 118.501518 
C 85.146208 118.878122 85.657066 119.089726 86.189665 119.089726 
z
" clip-path="url(#p141f096529)" style="fill: #1f77b4; fill-opacity: 0.55; stroke: #1f77b4; stroke-opacity: 0.55"/>
    <path d="M 86.311385 109.883682 
C 86.843984 109.883682 87.354842 109.672078 87.731446 109.295474 
C 88.108051 108.918869 88.319655 108.408012 88.319655 107.875412 
C 88.319655 107.342812 88.108051 106.831955 87.731446 106.45535 
C 87.354842 106.078746 86.843984 105.867141 86.311385 105.867141 
C 85.778785 105.867141 85.267928 106.078746 84.891323 106.45535 
C 84.514718 106.831955 84.303114 107.342812 84.303114 107.875412 
C 84.303114 108.408012 84.514718 108.918869 84.891323 109.295474 
C 85.267928 109.672078 85.778785 109.883682 86.311385 109.883682 
z
" clip-path="url(#p141f096529)" style="fill: #1f77b4; fill-opacity: 0.55; stroke: #1f77b4; stroke-opacity: 0.55"/>
    <path d="M 85.837033 88.632169 
C 86.369633 88.632169 86.88049 88.420565 87.257095 88.04396 
C 87.6337 87.667356 87.845304 87.156498 87.845304 86.623899 
C 87.845304 86.091299 87.6337 85.580442 87.257095 85.203837 
C 86.88049 84.827232 86.369633 84.615628 85.837033 84.615628 
C 85.304434 84.615628 84.793577 84.827232 84.416972 85.203837 
C 84.040367 85.580442 83.828763 86.091299 83.828763 86.623899 
C 83.828763 87.156498 84.040367 87.667356 84.416972 88.04396 
C 84.793577 88.420565 85.304434 88.632169 85.837033 88.632169 
z
" clip-path="url(#p141f096529)" style="fill: #1f77b4; fill-opacity: 0.55; stroke: #1f77b4; stroke-opacity: 0.55"/>
    <path d="M 86.760508 89.716587 
C 87.293107 89.716587 87.803965 89.504983 88.180569 89.128378 
C 88.557174 88.751773 88.768778 88.240916 88.768778 87.708316 
C 88.768778 87.175717 88.557174 86.664859 88.180569 86.288255 
C 87.803965 85.91165 87.293107 85.700046 86.760508 85.700046 
C 86.227908 85.700046 85.717051 85.91165 85.340446 86.288255 
C 84.963841 86.664859 84.752237 87.175717 84.752237 87.708316 
C 84.752237 88.240916 84.963841 88.751773 85.340446 89.128378 
C 85.717051 89.504983 86.227908 89.716587 86.760508 89.716587 
z
" clip-path="url(#p141f096529)" style="fill: #1f77b4; fill-opacity: 0.55; stroke: #1f77b4; stroke-opacity: 0.55"/>
    <path d="M 85.049103 90.25487 
C 85.581703 90.25487 86.09256 90.043266 86.469165 89.666662 
C 86.84577 89.290057 87.057374 88.7792 87.057374 88.2466 
C 87.057374 87.714 86.84577 87.203143 86.469165 86.826538 
C 86.09256 86.449934 85.581703 86.238329 85.049103 86.238329 
C 84.516504 86.238329 84.005646 86.449934 83.629041 86.826538 
C 83.252437 87.203143 83.040833 87.714 83.040833 88.2466 
C 83.040833 88.7792 83.252437 89.290057 83.629041 89.666662 
C 84.005646 90.043266 84.516504 90.25487 85.049103 90.25487 
z
" clip-path="url(#p141f096529)" style="fill: #1f77b4; fill-opacity: 0.55; stroke: #1f77b4; stroke-opacity: 0.55"/>
    <path d="M 81.30496 86.650863 
C 81.709298 86.650863 82.09713 86.490218 82.38304 86.204308 
C 82.66895 85.918398 82.829595 85.530566 82.829595 85.126229 
C 82.829595 84.721891 82.66895 84.334059 82.38304 84.048149 
C 82.09713 83.762239 81.709298 83.601594 81.30496 83.601594 
C 80.900623 83.601594 80.512791 83.762239 80.226881 84.048149 
C 79.940971 84.334059 79.780326 84.721891 79.780326 85.126229 
C 79.780326 85.530566 79.940971 85.918398 80.226881 86.204308 
C 80.512791 86.490218 80.900623 86.650863 81.30496 86.650863 
z
" clip-path="url(#p141f096529)" style="fill: #1f77b4; fill-opacity: 0.55; stroke: #1f77b4; stroke-opacity: 0.55"/>
    <path d="M 88.659316 89.865969 
C 89.063654 89.865969 89.451485 89.705324 89.737395 89.419414 
C 90.023305 89.133504 90.18395 88.745672 90.18395 88.341334 
C 90.18395 87.936997 90.023305 87.549165 89.737395 87.263255 
C 89.451485 86.977345 89.063654 86.8167 88.659316 86.8167 
C 88.254978 86.8167 87.867147 86.977345 87.581237 87.263255 
C 87.295327 87.549165 87.134681 87.936997 87.134681 88.341334 
C 87.134681 88.745672 87.295327 89.133504 87.581237 89.419414 
C 87.867147 89.705324 88.254978 89.865969 88.659316 89.865969 
z
" clip-path="url(#p141f096529)" style="fill: #1f77b4; fill-opacity: 0.55; stroke: #1f77b4; stroke-opacity: 0.55"/>
    <path d="M 81.591803 124.901623 
C 81.99614 124.901623 82.383972 124.740978 82.669882 124.455068 
C 82.955792 124.169158 83.116437 123.781327 83.116437 123.376989 
C 83.116437 122.972651 82.955792 122.584819 82.669882 122.298909 
C 82.383972 122.012999 81.99614 121.852354 81.591803 121.852354 
C 81.187465 121.852354 80.799633 122.012999 80.513723 122.298909 
C 80.227813 122.584819 80.067168 122.972651 80.067168 123.376989 
C 80.067168 123.781327 80.227813 124.169158 80.513723 124.455068 
C 80.799633 124.740978 81.187465 124.901623 81.591803 124.901623 
z
" clip-path="url(#p141f096529)" style="fill: #1f77b4; fill-opacity: 0.55; stroke: #1f77b4; stroke-opacity: 0.55"/>
    <path d="M 80.787065 115.136282 
C 81.191403 115.136282 81.579235 114.975636 81.865145 114.689726 
C 82.151055 114.403816 82.3117 114.015985 82.3117 113.611647 
C 82.3117 113.207309 82.151055 112.819478 81.865145 112.533568 
C 81.579235 112.247658 81.191403 112.087012 80.787065 112.087012 
C 80.382727 112.087012 79.994896 112.247658 79.708986 112.533568 
C 79.423076 112.819478 79.262431 113.207309 79.262431 113.611647 
C 79.262431 114.015985 79.423076 114.403816 79.708986 114.689726 
C 79.994896 114.975636 80.382727 115.136282 80.787065 115.136282 
z
" clip-path="url(#p141f096529)" style="fill: #1f77b4; fill-opacity: 0.55; stroke: #1f77b4; stroke-opacity: 0.55"/>
    <path d="M 80.6491 99.060611 
C 81.053438 99.060611 81.44127 98.899966 81.72718 98.614056 
C 82.01309 98.328146 82.173735 97.940315 82.173735 97.535977 
C 82.173735 97.131639 82.01309 96.743807 81.72718 96.457897 
C 81.44127 96.171987 81.053438 96.011342 80.6491 96.011342 
C 80.244762 96.011342 79.856931 96.171987 79.571021 96.457897 
C 79.285111 96.743807 79.124466 97.131639 79.124466 97.535977 
C 79.124466 97.940315 79.285111 98.328146 79.571021 98.614056 
C 79.856931 98.899966 80.244762 99.060611 80.6491 99.060611 
z
" clip-path="url(#p141f096529)" style="fill: #1f77b4; fill-opacity: 0.55; stroke: #1f77b4; stroke-opacity: 0.55"/>
    <path d="M 83.620751 94.123408 
C 84.025089 94.123408 84.412921 93.962763 84.698831 93.676853 
C 84.984741 93.390943 85.145386 93.003111 85.145386 92.598774 
C 85.145386 92.194436 84.984741 91.806604 84.698831 91.520694 
C 84.412921 91.234784 84.025089 91.074139 83.620751 91.074139 
C 83.216413 91.074139 82.828582 91.234784 82.542672 91.520694 
C 82.256762 91.806604 82.096117 92.194436 82.096117 92.598774 
C 82.096117 93.003111 82.256762 93.390943 82.542672 93.676853 
C 82.828582 93.962763 83.216413 94.123408 83.620751 94.123408 
z
" clip-path="url(#p141f096529)" style="fill: #1f77b4; fill-opacity: 0.55; stroke: #1f77b4; stroke-opacity: 0.55"/>
    <path d="M 78.785485 91.330847 
C 79.189823 91.330847 79.577654 91.170202 79.863564 90.884292 
C 80.149474 90.598382 80.31012 90.21055 80.31012 89.806213 
C 80.31012 89.401875 80.149474 89.014043 79.863564 88.728133 
C 79.577654 88.442223 79.189823 88.281578 78.785485 88.281578 
C 78.381147 88.281578 77.993316 88.442223 77.707406 88.728133 
C 77.421496 89.014043 77.26085 89.401875 77.26085 89.806213 
C 77.26085 90.21055 77.421496 90.598382 77.707406 90.884292 
C 77.993316 91.170202 78.381147 91.330847 78.785485 91.330847 
z
" clip-path="url(#p141f096529)" style="fill: #1f77b4; fill-opacity: 0.55; stroke: #1f77b4; stroke-opacity: 0.55"/>
    <path d="M 82.370259 124.646313 
C 82.774597 124.646313 83.162429 124.485668 83.448339 124.199758 
C 83.734249 123.913848 83.894894 123.526016 83.894894 123.121679 
C 83.894894 122.717341 83.734249 122.329509 83.448339 122.043599 
C 83.162429 121.757689 82.774597 121.597044 82.370259 121.597044 
C 81.965921 121.597044 81.57809 121.757689 81.29218 122.043599 
C 81.00627 122.329509 80.845625 122.717341 80.845625 123.121679 
C 80.845625 123.526016 81.00627 123.913848 81.29218 124.199758 
C 81.57809 124.485668 81.965921 124.646313 82.370259 124.646313 
z
" clip-path="url(#p141f096529)" style="fill: #1f77b4; fill-opacity: 0.55; stroke: #1f77b4; stroke-opacity: 0.55"/>
    <path d="M 81.221066 117.907307 
C 81.625403 117.907307 82.013235 117.746662 82.299145 117.460752 
C 82.585055 117.174842 82.7457 116.78701 82.7457 116.382672 
C 82.7457 115.978334 82.585055 115.590503 82.299145 115.304593 
C 82.013235 115.018683 81.625403 114.858038 81.221066 114.858038 
C 80.816728 114.858038 80.428896 115.018683 80.142986 115.304593 
C 79.857076 115.590503 79.696431 115.978334 79.696431 116.382672 
C 79.696431 116.78701 79.857076 117.174842 80.142986 117.460752 
C 80.428896 117.746662 80.816728 117.907307 81.221066 117.907307 
z
" clip-path="url(#p141f096529)" style="fill: #1f77b4; fill-opacity: 0.55; stroke: #1f77b4; stroke-opacity: 0.55"/>
    <path d="M 80.928258 95.574925 
C 81.332596 95.574925 81.720428 95.41428 82.006338 95.12837 
C 82.292248 94.84246 82.452893 94.454628 82.452893 94.05029 
C 82.452893 93.645953 82.292248 93.258121 82.006338 92.972211 
C 81.720428 92.686301 81.332596 92.525656 80.928258 92.525656 
C 80.523921 92.525656 80.136089 92.686301 79.850179 92.972211 
C 79.564269 93.258121 79.403624 93.645953 79.403624 94.05029 
C 79.403624 94.454628 79.564269 94.84246 79.850179 95.12837 
C 80.136089 95.41428 80.523921 95.574925 80.928258 95.574925 
z
" clip-path="url(#p141f096529)" style="fill: #1f77b4; fill-opacity: 0.55; stroke: #1f77b4; stroke-opacity: 0.55"/>
    <path d="M 80.461872 92.934003 
C 80.86621 92.934003 81.254041 92.773358 81.539951 92.487448 
C 81.825861 92.201538 81.986507 91.813707 81.986507 91.409369 
C 81.986507 91.005031 81.825861 90.6172 81.539951 90.33129 
C 81.254041 90.04538 80.86621 89.884734 80.461872 89.884734 
C 80.057534 89.884734 79.669703 90.04538 79.383793 90.33129 
C 79.097883 90.6172 78.937238 91.005031 78.937238 91.409369 
C 78.937238 91.813707 79.097883 92.201538 79.383793 92.487448 
C 79.669703 92.773358 80.057534 92.934003 80.461872 92.934003 
z
" clip-path="url(#p141f096529)" style="fill: #1f77b4; fill-opacity: 0.55; stroke: #1f77b4; stroke-opacity: 0.55"/>
    <path d="M 81.023627 89.854554 
C 81.427965 89.854554 81.815796 89.693909 82.101706 89.407999 
C 82.387616 89.122089 82.548261 88.734257 82.548261 88.329919 
C 82.548261 87.925582 82.387616 87.53775 82.101706 87.25184 
C 81.815796 86.96593 81.427965 86.805285 81.023627 86.805285 
C 80.619289 86.805285 80.231457 86.96593 79.945547 87.25184 
C 79.659637 87.53775 79.498992 87.925582 79.498992 88.329919 
C 79.498992 88.734257 79.659637 89.122089 79.945547 89.407999 
C 80.231457 89.693909 80.619289 89.854554 81.023627 89.854554 
z
" clip-path="url(#p141f096529)" style="fill: #1f77b4; fill-opacity: 0.55; stroke: #1f77b4; stroke-opacity: 0.55"/>
    <path d="M 80.334328 96.811024 
C 80.738666 96.811024 81.126498 96.650379 81.412408 96.364469 
C 81.698318 96.078559 81.858963 95.690727 81.858963 95.286389 
C 81.858963 94.882051 81.698318 94.49422 81.412408 94.20831 
C 81.126498 93.9224 80.738666 93.761755 80.334328 93.761755 
C 79.92999 93.761755 79.542159 93.9224 79.256249 94.20831 
C 78.970339 94.49422 78.809694 94.882051 78.809694 95.286389 
C 78.809694 95.690727 78.970339 96.078559 79.256249 96.364469 
C 79.542159 96.650379 79.92999 96.811024 80.334328 96.811024 
z
" clip-path="url(#p141f096529)" style="fill: #1f77b4; fill-opacity: 0.55; stroke: #1f77b4; stroke-opacity: 0.55"/>
    <path d="M 82.770365 94.535062 
C 83.174703 94.535062 83.562534 94.374417 83.848444 94.088507 
C 84.134354 93.802597 84.294999 93.414765 84.294999 93.010428 
C 84.294999 92.60609 84.134354 92.218258 83.848444 91.932348 
C 83.562534 91.646438 83.174703 91.485793 82.770365 91.485793 
C 82.366027 91.485793 81.978195 91.646438 81.692285 91.932348 
C 81.406375 92.218258 81.24573 92.60609 81.24573 93.010428 
C 81.24573 93.414765 81.406375 93.802597 81.692285 94.088507 
C 81.978195 94.374417 82.366027 94.535062 82.770365 94.535062 
z
" clip-path="url(#p141f096529)" style="fill: #1f77b4; fill-opacity: 0.55; stroke: #1f77b4; stroke-opacity: 0.55"/>
    <path d="M 81.008083 92.876385 
C 81.412421 92.876385 81.800252 92.71574 82.086162 92.42983 
C 82.372072 92.14392 82.532717 91.756089 82.532717 91.351751 
C 82.532717 90.947413 82.372072 90.559581 82.086162 90.273671 
C 81.800252 89.987761 81.412421 89.827116 81.008083 89.827116 
C 80.603745 89.827116 80.215914 89.987761 79.930004 90.273671 
C 79.644094 90.559581 79.483448 90.947413 79.483448 91.351751 
C 79.483448 91.756089 79.644094 92.14392 79.930004 92.42983 
C 80.215914 92.71574 80.603745 92.876385 81.008083 92.876385 
z
" clip-path="url(#p141f096529)" style="fill: #1f77b4; fill-opacity: 0.55; stroke: #1f77b4; stroke-opacity: 0.55"/>
    <path d="M 82.71047 96.062121 
C 83.114808 96.062121 83.502639 95.901476 83.788549 95.615566 
C 84.074459 95.329656 84.235105 94.941824 84.235105 94.537487 
C 84.235105 94.133149 84.074459 93.745317 83.788549 93.459407 
C 83.502639 93.173497 83.114808 93.012852 82.71047 93.012852 
C 82.306132 93.012852 81.918301 93.173497 81.632391 93.459407 
C 81.346481 93.745317 81.185835 94.133149 81.185835 94.537487 
C 81.185835 94.941824 81.346481 95.329656 81.632391 95.615566 
C 81.918301 95.901476 82.306132 96.062121 82.71047 96.062121 
z
" clip-path="url(#p141f096529)" style="fill: #1f77b4; fill-opacity: 0.55; stroke: #1f77b4; stroke-opacity: 0.55"/>
    <path d="M 84.235418 92.478473 
C 84.639756 92.478473 85.027588 92.317827 85.313498 92.031917 
C 85.599408 91.746007 85.760053 91.358176 85.760053 90.953838 
C 85.760053 90.5495 85.599408 90.161669 85.313498 89.875759 
C 85.027588 89.589849 84.639756 89.429204 84.235418 89.429204 
C 83.831081 89.429204 83.443249 89.589849 83.157339 89.875759 
C 82.871429 90.161669 82.710784 90.5495 82.710784 90.953838 
C 82.710784 91.358176 82.871429 91.746007 83.157339 92.031917 
C 83.443249 92.317827 83.831081 92.478473 84.235418 92.478473 
z
" clip-path="url(#p141f096529)" style="fill: #1f77b4; fill-opacity: 0.55; stroke: #1f77b4; stroke-opacity: 0.55"/>
    <path d="M 83.897278 117.376456 
C 84.301616 117.376456 84.689447 117.215811 84.975357 116.929901 
C 85.261267 116.643991 85.421912 116.25616 85.421912 115.851822 
C 85.421912 115.447484 85.261267 115.059652 84.975357 114.773742 
C 84.689447 114.487832 84.301616 114.327187 83.897278 114.327187 
C 83.49294 114.327187 83.105108 114.487832 82.819198 114.773742 
C 82.533288 115.059652 82.372643 115.447484 82.372643 115.851822 
C 82.372643 116.25616 82.533288 116.643991 82.819198 116.929901 
C 83.105108 117.215811 83.49294 117.376456 83.897278 117.376456 
z
" clip-path="url(#p141f096529)" style="fill: #1f77b4; fill-opacity: 0.55; stroke: #1f77b4; stroke-opacity: 0.55"/>
    <path d="M 86.707034 102.586091 
C 87.111372 102.586091 87.499203 102.425446 87.785113 102.139536 
C 88.071023 101.853626 88.231669 101.465795 88.231669 101.061457 
C 88.231669 100.657119 88.071023 100.269287 87.785113 99.983377 
C 87.499203 99.697467 87.111372 99.536822 86.707034 99.536822 
C 86.302696 99.536822 85.914865 99.697467 85.628955 99.983377 
C 85.343045 100.269287 85.182399 100.657119 85.182399 101.061457 
C 85.182399 101.465795 85.343045 101.853626 85.628955 102.139536 
C 85.914865 102.425446 86.302696 102.586091 86.707034 102.586091 
z
" clip-path="url(#p141f096529)" style="fill: #1f77b4; fill-opacity: 0.55; stroke: #1f77b4; stroke-opacity: 0.55"/>
    <path d="M 83.165102 92.478473 
C 83.56944 92.478473 83.957271 92.317827 84.243181 92.031917 
C 84.529091 91.746007 84.689736 91.358176 84.689736 90.953838 
C 84.689736 90.5495 84.529091 90.161669 84.243181 89.875759 
C 83.957271 89.589849 83.56944 89.429204 83.165102 89.429204 
C 82.760764 89.429204 82.372932 89.589849 82.087022 89.875759 
C 81.801112 90.161669 81.640467 90.5495 81.640467 90.953838 
C 81.640467 91.358176 81.801112 91.746007 82.087022 92.031917 
C 82.372932 92.317827 82.760764 92.478473 83.165102 92.478473 
z
" clip-path="url(#p141f096529)" style="fill: #1f77b4; fill-opacity: 0.55; stroke: #1f77b4; stroke-opacity: 0.55"/>
    <path d="M 83.906436 123.901274 
C 84.310773 123.901274 84.698605 123.740629 84.984515 123.454719 
C 85.270425 123.168809 85.43107 122.780977 85.43107 122.376639 
C 85.43107 121.972301 85.270425 121.58447 84.984515 121.29856 
C 84.698605 121.01265 84.310773 120.852005 83.906436 120.852005 
C 83.502098 120.852005 83.114266 121.01265 82.828356 121.29856 
C 82.542446 121.58447 82.381801 121.972301 82.381801 122.376639 
C 82.381801 122.780977 82.542446 123.168809 82.828356 123.454719 
C 83.114266 123.740629 83.502098 123.901274 83.906436 123.901274 
z
" clip-path="url(#p141f096529)" style="fill: #1f77b4; fill-opacity: 0.55; stroke: #1f77b4; stroke-opacity: 0.55"/>
    <path d="M 80.503697 125.245883 
C 80.995915 125.245883 81.46804 125.050322 81.816091 124.702271 
C 82.164141 124.35422 82.359702 123.882096 82.359702 123.389877 
C 82.359702 122.897659 82.164141 122.425534 81.816091 122.077484 
C 81.46804 121.729433 80.995915 121.533872 80.503697 121.533872 
C 80.011478 121.533872 79.539354 121.729433 79.191303 122.077484 
C 78.843252 122.425534 78.647691 122.897659 78.647691 123.389877 
C 78.647691 123.882096 78.843252 124.35422 79.191303 124.702271 
C 79.539354 125.050322 80.011478 125.245883 80.503697 125.245883 
z
" clip-path="url(#p141f096529)" style="fill: #1f77b4; fill-opacity: 0.55; stroke: #1f77b4; stroke-opacity: 0.55"/>
    <path d="M 80.289942 118.083968 
C 80.78216 118.083968 81.254285 117.888408 81.602336 117.540357 
C 81.950387 117.192306 82.145947 116.720182 82.145947 116.227963 
C 82.145947 115.735745 81.950387 115.26362 81.602336 114.915569 
C 81.254285 114.567518 80.78216 114.371958 80.289942 114.371958 
C 79.797724 114.371958 79.325599 114.567518 78.977548 114.915569 
C 78.629497 115.26362 78.433937 115.735745 78.433937 116.227963 
C 78.433937 116.720182 78.629497 117.192306 78.977548 117.540357 
C 79.325599 117.888408 79.797724 118.083968 80.289942 118.083968 
z
" clip-path="url(#p141f096529)" style="fill: #1f77b4; fill-opacity: 0.55; stroke: #1f77b4; stroke-opacity: 0.55"/>
    <path d="M 80.91303 121.313985 
C 81.405249 121.313985 81.877373 121.118425 82.225424 120.770374 
C 82.573475 120.422323 82.769035 119.950198 82.769035 119.45798 
C 82.769035 118.965761 82.573475 118.493637 82.225424 118.145586 
C 81.877373 117.797535 81.405249 117.601975 80.91303 117.601975 
C 80.420812 117.601975 79.948687 117.797535 79.600636 118.145586 
C 79.252585 118.493637 79.057025 118.965761 79.057025 119.45798 
C 79.057025 119.950198 79.252585 120.422323 79.600636 120.770374 
C 79.948687 121.118425 80.420812 121.313985 80.91303 121.313985 
z
" clip-path="url(#p141f096529)" style="fill: #1f77b4; fill-opacity: 0.55; stroke: #1f77b4; stroke-opacity: 0.55"/>
    <path d="M 81.562153 124.1551 
C 82.054372 124.1551 82.526496 123.95954 82.874547 123.611489 
C 83.222598 123.263438 83.418159 122.791313 83.418159 122.299095 
C 83.418159 121.806877 83.222598 121.334752 82.874547 120.986701 
C 82.526496 120.63865 82.054372 120.44309 81.562153 120.44309 
C 81.069935 120.44309 80.597811 120.63865 80.24976 120.986701 
C 79.901709 121.334752 79.706148 121.806877 79.706148 122.299095 
C 79.706148 122.791313 79.901709 123.263438 80.24976 123.611489 
C 80.597811 123.95954 81.069935 124.1551 81.562153 124.1551 
z
" clip-path="url(#p141f096529)" style="fill: #1f77b4; fill-opacity: 0.55; stroke: #1f77b4; stroke-opacity: 0.55"/>
    <path d="M 82.956225 127.865347 
C 83.448443 127.865347 83.920568 127.669787 84.268618 127.321736 
C 84.616669 126.973685 84.81223 126.50156 84.81223 126.009342 
C 84.81223 125.517123 84.616669 125.044999 84.268618 124.696948 
C 83.920568 124.348897 83.448443 124.153336 82.956225 124.153336 
C 82.464006 124.153336 81.991882 124.348897 81.643831 124.696948 
C 81.29578 125.044999 81.100219 125.517123 81.100219 126.009342 
C 81.100219 126.50156 81.29578 126.973685 81.643831 127.321736 
C 81.991882 127.669787 82.464006 127.865347 82.956225 127.865347 
z
" clip-path="url(#p141f096529)" style="fill: #1f77b4; fill-opacity: 0.55; stroke: #1f77b4; stroke-opacity: 0.55"/>
    <path d="M 81.485522 126.715604 
C 81.97774 126.715604 82.449865 126.520044 82.797916 126.171993 
C 83.145967 125.823942 83.341527 125.351817 83.341527 124.859599 
C 83.341527 124.367381 83.145967 123.895256 82.797916 123.547205 
C 82.449865 123.199154 81.97774 123.003594 81.485522 123.003594 
C 80.993303 123.003594 80.521179 123.199154 80.173128 123.547205 
C 79.825077 123.895256 79.629517 124.367381 79.629517 124.859599 
C 79.629517 125.351817 79.825077 125.823942 80.173128 126.171993 
C 80.521179 126.520044 80.993303 126.715604 81.485522 126.715604 
z
" clip-path="url(#p141f096529)" style="fill: #1f77b4; fill-opacity: 0.55; stroke: #1f77b4; stroke-opacity: 0.55"/>
    <path d="M 80.631942 119.867808 
C 81.124161 119.867808 81.596285 119.672248 81.944336 119.324197 
C 82.292387 118.976146 82.487948 118.504021 82.487948 118.011803 
C 82.487948 117.519585 82.292387 117.04746 81.944336 116.699409 
C 81.596285 116.351358 81.124161 116.155798 80.631942 116.155798 
C 80.139724 116.155798 79.667599 116.351358 79.319548 116.699409 
C 78.971498 117.04746 78.775937 117.519585 78.775937 118.011803 
C 78.775937 118.504021 78.971498 118.976146 79.319548 119.324197 
C 79.667599 119.672248 80.139724 119.867808 80.631942 119.867808 
z
" clip-path="url(#p141f096529)" style="fill: #1f77b4; fill-opacity: 0.55; stroke: #1f77b4; stroke-opacity: 0.55"/>
    <path d="M 96.116865 80.633391 
C 96.721527 80.633391 97.301505 80.393156 97.729066 79.965596 
C 98.156626 79.538035 98.396861 78.958057 98.396861 78.353395 
C 98.396861 77.748732 98.156626 77.168754 97.729066 76.741194 
C 97.301505 76.313633 96.721527 76.073398 96.116865 76.073398 
C 95.512203 76.073398 94.932224 76.313633 94.504664 76.741194 
C 94.077103 77.168754 93.836868 77.748732 93.836868 78.353395 
C 93.836868 78.958057 94.077103 79.538035 94.504664 79.965596 
C 94.932224 80.393156 95.512203 80.633391 96.116865 80.633391 
z
" clip-path="url(#p141f096529)" style="fill: #1f77b4; fill-opacity: 0.55; stroke: #1f77b4; stroke-opacity: 0.55"/>
    <path d="M 76.055062 159.908943 
C 76.287786 159.908943 76.51101 159.81648 76.675571 159.65192 
C 76.840131 159.487359 76.932593 159.264135 76.932593 159.031411 
C 76.932593 158.798687 76.840131 158.575464 76.675571 158.410903 
C 76.51101 158.246342 76.287786 158.15388 76.055062 158.15388 
C 75.822338 158.15388 75.599115 158.246342 75.434554 158.410903 
C 75.269993 158.575464 75.177531 158.798687 75.177531 159.031411 
C 75.177531 159.264135 75.269993 159.487359 75.434554 159.65192 
C 75.599115 159.81648 75.822338 159.908943 76.055062 159.908943 
z
" clip-path="url(#p141f096529)" style="fill: #1f77b4; fill-opacity: 0.55; stroke: #1f77b4; stroke-opacity: 0.55"/>
    <path d="M 76.211413 160.211524 
C 76.444137 160.211524 76.667361 160.119061 76.831921 159.954501 
C 76.996482 159.78994 77.088944 159.566716 77.088944 159.333992 
C 77.088944 159.101268 76.996482 158.878045 76.831921 158.713484 
C 76.667361 158.548923 76.444137 158.456461 76.211413 158.456461 
C 75.978689 158.456461 75.755466 158.548923 75.590905 158.713484 
C 75.426344 158.878045 75.333882 159.101268 75.333882 159.333992 
C 75.333882 159.566716 75.426344 159.78994 75.590905 159.954501 
C 75.755466 160.119061 75.978689 160.211524 76.211413 160.211524 
z
" clip-path="url(#p141f096529)" style="fill: #1f77b4; fill-opacity: 0.55; stroke: #1f77b4; stroke-opacity: 0.55"/>
    <path d="M 76.175483 159.981089 
C 76.408207 159.981089 76.631431 159.888627 76.795992 159.724066 
C 76.960552 159.559506 77.053015 159.336282 77.053015 159.103558 
C 77.053015 158.870834 76.960552 158.64761 76.795992 158.48305 
C 76.631431 158.318489 76.408207 158.226027 76.175483 158.226027 
C 75.942759 158.226027 75.719536 158.318489 75.554975 158.48305 
C 75.390414 158.64761 75.297952 158.870834 75.297952 159.103558 
C 75.297952 159.336282 75.390414 159.559506 75.554975 159.724066 
C 75.719536 159.888627 75.942759 159.981089 76.175483 159.981089 
z
" clip-path="url(#p141f096529)" style="fill: #1f77b4; fill-opacity: 0.55; stroke: #1f77b4; stroke-opacity: 0.55"/>
    <path d="M 75.874115 161.253014 
C 76.106839 161.253014 76.330062 161.160552 76.494623 160.995991 
C 76.659184 160.83143 76.751646 160.608207 76.751646 160.375483 
C 76.751646 160.142759 76.659184 159.919535 76.494623 159.754974 
C 76.330062 159.590413 76.106839 159.497951 75.874115 159.497951 
C 75.641391 159.497951 75.418167 159.590413 75.253606 159.754974 
C 75.089046 159.919535 74.996583 160.142759 74.996583 160.375483 
C 74.996583 160.608207 75.089046 160.83143 75.253606 160.995991 
C 75.418167 161.160552 75.641391 161.253014 75.874115 161.253014 
z
" clip-path="url(#p141f096529)" style="fill: #1f77b4; fill-opacity: 0.55; stroke: #1f77b4; stroke-opacity: 0.55"/>
    <path d="M 76.203694 160.005254 
C 76.436418 160.005254 76.659641 159.912792 76.824202 159.748231 
C 76.988763 159.583671 77.081225 159.360447 77.081225 159.127723 
C 77.081225 158.894999 76.988763 158.671776 76.824202 158.507215 
C 76.659641 158.342654 76.436418 158.250192 76.203694 158.250192 
C 75.97097 158.250192 75.747746 158.342654 75.583186 158.507215 
C 75.418625 158.671776 75.326163 158.894999 75.326163 159.127723 
C 75.326163 159.360447 75.418625 159.583671 75.583186 159.748231 
C 75.747746 159.912792 75.97097 160.005254 76.203694 160.005254 
z
" clip-path="url(#p141f096529)" style="fill: #1f77b4; fill-opacity: 0.55; stroke: #1f77b4; stroke-opacity: 0.55"/>
    <path d="M 75.484886 159.600561 
C 75.71761 159.600561 75.940834 159.508098 76.105395 159.343538 
C 76.269955 159.178977 76.362418 158.955753 76.362418 158.723029 
C 76.362418 158.490305 76.269955 158.267082 76.105395 158.102521 
C 75.940834 157.93796 75.71761 157.845498 75.484886 157.845498 
C 75.252162 157.845498 75.028939 157.93796 74.864378 158.102521 
C 74.699817 158.267082 74.607355 158.490305 74.607355 158.723029 
C 74.607355 158.955753 74.699817 159.178977 74.864378 159.343538 
C 75.028939 159.508098 75.252162 159.600561 75.484886 159.600561 
z
" clip-path="url(#p141f096529)" style="fill: #1f77b4; fill-opacity: 0.55; stroke: #1f77b4; stroke-opacity: 0.55"/>
    <path d="M 75.549483 160.29954 
C 75.782207 160.29954 76.00543 160.207078 76.169991 160.042517 
C 76.334552 159.877957 76.427014 159.654733 76.427014 159.422009 
C 76.427014 159.189285 76.334552 158.966062 76.169991 158.801501 
C 76.00543 158.63694 75.782207 158.544478 75.549483 158.544478 
C 75.316759 158.544478 75.093535 158.63694 74.928975 158.801501 
C 74.764414 158.966062 74.671952 159.189285 74.671952 159.422009 
C 74.671952 159.654733 74.764414 159.877957 74.928975 160.042517 
C 75.093535 160.207078 75.316759 160.29954 75.549483 160.29954 
z
" clip-path="url(#p141f096529)" style="fill: #1f77b4; fill-opacity: 0.55; stroke: #1f77b4; stroke-opacity: 0.55"/>
    <path d="M 78.226748 118.623986 
C 78.623709 118.623986 79.004465 118.466272 79.285159 118.185578 
C 79.565853 117.904884 79.723567 117.524128 79.723567 117.127166 
C 79.723567 116.730205 79.565853 116.349449 79.285159 116.068755 
C 79.004465 115.788061 78.623709 115.630347 78.226748 115.630347 
C 77.829787 115.630347 77.44903 115.788061 77.168337 116.068755 
C 76.887643 116.349449 76.729928 116.730205 76.729928 117.127166 
C 76.729928 117.524128 76.887643 117.904884 77.168337 118.185578 
C 77.44903 118.466272 77.829787 118.623986 78.226748 118.623986 
z
" clip-path="url(#p141f096529)" style="fill: #1f77b4; fill-opacity: 0.55; stroke: #1f77b4; stroke-opacity: 0.55"/>
    <path d="M 78.522643 117.17835 
C 78.919604 117.17835 79.30036 117.020636 79.581054 116.739942 
C 79.861748 116.459248 80.019462 116.078492 80.019462 115.68153 
C 80.019462 115.284569 79.861748 114.903813 79.581054 114.623119 
C 79.30036 114.342425 78.919604 114.184711 78.522643 114.184711 
C 78.125682 114.184711 77.744925 114.342425 77.464231 114.623119 
C 77.183537 114.903813 77.025823 115.284569 77.025823 115.68153 
C 77.025823 116.078492 77.183537 116.459248 77.464231 116.739942 
C 77.744925 117.020636 78.125682 117.17835 78.522643 117.17835 
z
" clip-path="url(#p141f096529)" style="fill: #1f77b4; fill-opacity: 0.55; stroke: #1f77b4; stroke-opacity: 0.55"/>
    <path d="M 77.607239 123.868392 
C 78.0042 123.868392 78.384956 123.710678 78.66565 123.429984 
C 78.946344 123.14929 79.104058 122.768534 79.104058 122.371573 
C 79.104058 121.974612 78.946344 121.593855 78.66565 121.313161 
C 78.384956 121.032468 78.0042 120.874753 77.607239 120.874753 
C 77.210277 120.874753 76.829521 121.032468 76.548827 121.313161 
C 76.268133 121.593855 76.110419 121.974612 76.110419 122.371573 
C 76.110419 122.768534 76.268133 123.14929 76.548827 123.429984 
C 76.829521 123.710678 77.210277 123.868392 77.607239 123.868392 
z
" clip-path="url(#p141f096529)" style="fill: #1f77b4; fill-opacity: 0.55; stroke: #1f77b4; stroke-opacity: 0.55"/>
    <path d="M 77.357905 118.927477 
C 77.754866 118.927477 78.135622 118.769762 78.416316 118.489069 
C 78.69701 118.208375 78.854725 117.827618 78.854725 117.430657 
C 78.854725 117.033696 78.69701 116.65294 78.416316 116.372246 
C 78.135622 116.091552 77.754866 115.933838 77.357905 115.933838 
C 76.960944 115.933838 76.580188 116.091552 76.299494 116.372246 
C 76.0188 116.65294 75.861086 117.033696 75.861086 117.430657 
C 75.861086 117.827618 76.0188 118.208375 76.299494 118.489069 
C 76.580188 118.769762 76.960944 118.927477 77.357905 118.927477 
z
" clip-path="url(#p141f096529)" style="fill: #1f77b4; fill-opacity: 0.55; stroke: #1f77b4; stroke-opacity: 0.55"/>
    <path d="M 78.211555 114.931496 
C 78.608516 114.931496 78.989272 114.773781 79.269966 114.493087 
C 79.55066 114.212393 79.708374 113.831637 79.708374 113.434676 
C 79.708374 113.037715 79.55066 112.656959 79.269966 112.376265 
C 78.989272 112.095571 78.608516 111.937856 78.211555 111.937856 
C 77.814594 111.937856 77.433837 112.095571 77.153144 112.376265 
C 76.87245 112.656959 76.714735 113.037715 76.714735 113.434676 
C 76.714735 113.831637 76.87245 114.212393 77.153144 114.493087 
C 77.433837 114.773781 77.814594 114.931496 78.211555 114.931496 
z
" clip-path="url(#p141f096529)" style="fill: #1f77b4; fill-opacity: 0.55; stroke: #1f77b4; stroke-opacity: 0.55"/>
    <path d="M 76.746221 117.115662 
C 77.143182 117.115662 77.523938 116.957948 77.804632 116.677254 
C 78.085326 116.39656 78.24304 116.015804 78.24304 115.618842 
C 78.24304 115.221881 78.085326 114.841125 77.804632 114.560431 
C 77.523938 114.279737 77.143182 114.122023 76.746221 114.122023 
C 76.349259 114.122023 75.968503 114.279737 75.687809 114.560431 
C 75.407115 114.841125 75.249401 115.221881 75.249401 115.618842 
C 75.249401 116.015804 75.407115 116.39656 75.687809 116.677254 
C 75.968503 116.957948 76.349259 117.115662 76.746221 117.115662 
z
" clip-path="url(#p141f096529)" style="fill: #1f77b4; fill-opacity: 0.55; stroke: #1f77b4; stroke-opacity: 0.55"/>
    <path d="M 78.167099 119.843936 
C 78.56406 119.843936 78.944816 119.686221 79.22551 119.405527 
C 79.506204 119.124833 79.663918 118.744077 79.663918 118.347116 
C 79.663918 117.950155 79.506204 117.569399 79.22551 117.288705 
C 78.944816 117.008011 78.56406 116.850297 78.167099 116.850297 
C 77.770137 116.850297 77.389381 117.008011 77.108687 117.288705 
C 76.827993 117.569399 76.670279 117.950155 76.670279 118.347116 
C 76.670279 118.744077 76.827993 119.124833 77.108687 119.405527 
C 77.389381 119.686221 77.770137 119.843936 78.167099 119.843936 
z
" clip-path="url(#p141f096529)" style="fill: #1f77b4; fill-opacity: 0.55; stroke: #1f77b4; stroke-opacity: 0.55"/>
    <path d="M 82.28668 301.279972 
C 82.561535 301.279972 82.825169 301.170771 83.01952 300.97642 
C 83.213872 300.782068 83.323073 300.518434 83.323073 300.24358 
C 83.323073 299.968725 83.213872 299.705091 83.01952 299.510739 
C 82.825169 299.316388 82.561535 299.207187 82.28668 299.207187 
C 82.011826 299.207187 81.748192 299.316388 81.55384 299.510739 
C 81.359489 299.705091 81.250288 299.968725 81.250288 300.24358 
C 81.250288 300.518434 81.359489 300.782068 81.55384 300.97642 
C 81.748192 301.170771 82.011826 301.279972 82.28668 301.279972 
z
" clip-path="url(#p141f096529)" style="fill: #1f77b4; fill-opacity: 0.55; stroke: #1f77b4; stroke-opacity: 0.55"/>
   </g>
   <g id="matplotlib.axis_1">
    <g id="xtick_1">
     <g id="line2d_1">
      <path d="M 74.922114 313.478125 
L 74.922114 22.318125 
" clip-path="url(#p141f096529)" style="fill: none; stroke: #b0b0b0; stroke-opacity: 0.25; stroke-width: 0.8; stroke-linecap: square"/>
     </g>
     <g id="line2d_2">
      <defs>
       <path id="m068d024068" d="M 0 0 
L 0 3.5 
" style="stroke: #000000; stroke-width: 0.8"/>
      </defs>
      <g>
       <use xlink:href="#m068d024068" x="74.922114" y="313.478125" style="stroke: #000000; stroke-width: 0.8"/>
      </g>
     </g>
     <g id="text_1">
      <!-- 0 -->
      <g transform="translate(71.740864 328.076563) scale(0.1 -0.1)">
       <defs>
        <path id="DejaVuSans-30" d="M 2034 4250 
Q 1547 4250 1301 3770 
Q 1056 3291 1056 2328 
Q 1056 1369 1301 889 
Q 1547 409 2034 409 
Q 2525 409 2770 889 
Q 3016 1369 3016 2328 
Q 3016 3291 2770 3770 
Q 2525 4250 2034 4250 
z
M 2034 4750 
Q 2819 4750 3233 4129 
Q 3647 3509 3647 2328 
Q 3647 1150 3233 529 
Q 2819 -91 2034 -91 
Q 1250 -91 836 529 
Q 422 1150 422 2328 
Q 422 3509 836 4129 
Q 1250 4750 2034 4750 
z
" transform="scale(0.015625)"/>
       </defs>
       <use xlink:href="#DejaVuSans-30"/>
      </g>
     </g>
    </g>
    <g id="xtick_2">
     <g id="line2d_3">
      <path d="M 162.641469 313.478125 
L 162.641469 22.318125 
" clip-path="url(#p141f096529)" style="fill: none; stroke: #b0b0b0; stroke-opacity: 0.25; stroke-width: 0.8; stroke-linecap: square"/>
     </g>
     <g id="line2d_4">
      <g>
       <use xlink:href="#m068d024068" x="162.641469" y="313.478125" style="stroke: #000000; stroke-width: 0.8"/>
      </g>
     </g>
     <g id="text_2">
      <!-- 50 -->
      <g transform="translate(156.278969 328.076563) scale(0.1 -0.1)">
       <defs>
        <path id="DejaVuSans-35" d="M 691 4666 
L 3169 4666 
L 3169 4134 
L 1269 4134 
L 1269 2991 
Q 1406 3038 1543 3061 
Q 1681 3084 1819 3084 
Q 2600 3084 3056 2656 
Q 3513 2228 3513 1497 
Q 3513 744 3044 326 
Q 2575 -91 1722 -91 
Q 1428 -91 1123 -41 
Q 819 9 494 109 
L 494 744 
Q 775 591 1075 516 
Q 1375 441 1709 441 
Q 2250 441 2565 725 
Q 2881 1009 2881 1497 
Q 2881 1984 2565 2268 
Q 2250 2553 1709 2553 
Q 1456 2553 1204 2497 
Q 953 2441 691 2322 
L 691 4666 
z
" transform="scale(0.015625)"/>
       </defs>
       <use xlink:href="#DejaVuSans-35"/>
       <use xlink:href="#DejaVuSans-30" x="63.623047"/>
      </g>
     </g>
    </g>
    <g id="xtick_3">
     <g id="line2d_5">
      <path d="M 250.360824 313.478125 
L 250.360824 22.318125 
" clip-path="url(#p141f096529)" style="fill: none; stroke: #b0b0b0; stroke-opacity: 0.25; stroke-width: 0.8; stroke-linecap: square"/>
     </g>
     <g id="line2d_6">
      <g>
       <use xlink:href="#m068d024068" x="250.360824" y="313.478125" style="stroke: #000000; stroke-width: 0.8"/>
      </g>
     </g>
     <g id="text_3">
      <!-- 100 -->
      <g transform="translate(240.817074 328.076563) scale(0.1 -0.1)">
       <defs>
        <path id="DejaVuSans-31" d="M 794 531 
L 1825 531 
L 1825 4091 
L 703 3866 
L 703 4441 
L 1819 4666 
L 2450 4666 
L 2450 531 
L 3481 531 
L 3481 0 
L 794 0 
L 794 531 
z
" transform="scale(0.015625)"/>
       </defs>
       <use xlink:href="#DejaVuSans-31"/>
       <use xlink:href="#DejaVuSans-30" x="63.623047"/>
       <use xlink:href="#DejaVuSans-30" x="127.246094"/>
      </g>
     </g>
    </g>
    <g id="xtick_4">
     <g id="line2d_7">
      <path d="M 338.08018 313.478125 
L 338.08018 22.318125 
" clip-path="url(#p141f096529)" style="fill: none; stroke: #b0b0b0; stroke-opacity: 0.25; stroke-width: 0.8; stroke-linecap: square"/>
     </g>
     <g id="line2d_8">
      <g>
       <use xlink:href="#m068d024068" x="338.08018" y="313.478125" style="stroke: #000000; stroke-width: 0.8"/>
      </g>
     </g>
     <g id="text_4">
      <!-- 150 -->
      <g transform="translate(328.53643 328.076563) scale(0.1 -0.1)">
       <use xlink:href="#DejaVuSans-31"/>
       <use xlink:href="#DejaVuSans-35" x="63.623047"/>
       <use xlink:href="#DejaVuSans-30" x="127.246094"/>
      </g>
     </g>
    </g>
    <g id="xtick_5">
     <g id="line2d_9">
      <path d="M 425.799535 313.478125 
L 425.799535 22.318125 
" clip-path="url(#p141f096529)" style="fill: none; stroke: #b0b0b0; stroke-opacity: 0.25; stroke-width: 0.8; stroke-linecap: square"/>
     </g>
     <g id="line2d_10">
      <g>
       <use xlink:href="#m068d024068" x="425.799535" y="313.478125" style="stroke: #000000; stroke-width: 0.8"/>
      </g>
     </g>
     <g id="text_5">
      <!-- 200 -->
      <g transform="translate(416.255785 328.076563) scale(0.1 -0.1)">
       <defs>
        <path id="DejaVuSans-32" d="M 1228 531 
L 3431 531 
L 3431 0 
L 469 0 
L 469 531 
Q 828 903 1448 1529 
Q 2069 2156 2228 2338 
Q 2531 2678 2651 2914 
Q 2772 3150 2772 3378 
Q 2772 3750 2511 3984 
Q 2250 4219 1831 4219 
Q 1534 4219 1204 4116 
Q 875 4013 500 3803 
L 500 4441 
Q 881 4594 1212 4672 
Q 1544 4750 1819 4750 
Q 2544 4750 2975 4387 
Q 3406 4025 3406 3419 
Q 3406 3131 3298 2873 
Q 3191 2616 2906 2266 
Q 2828 2175 2409 1742 
Q 1991 1309 1228 531 
z
" transform="scale(0.015625)"/>
       </defs>
       <use xlink:href="#DejaVuSans-32"/>
       <use xlink:href="#DejaVuSans-30" x="63.623047"/>
       <use xlink:href="#DejaVuSans-30" x="127.246094"/>
      </g>
     </g>
    </g>
    <g id="xtick_6">
     <g id="line2d_11">
      <path d="M 513.51889 313.478125 
L 513.51889 22.318125 
" clip-path="url(#p141f096529)" style="fill: none; stroke: #b0b0b0; stroke-opacity: 0.25; stroke-width: 0.8; stroke-linecap: square"/>
     </g>
     <g id="line2d_12">
      <g>
       <use xlink:href="#m068d024068" x="513.51889" y="313.478125" style="stroke: #000000; stroke-width: 0.8"/>
      </g>
     </g>
     <g id="text_6">
      <!-- 250 -->
      <g transform="translate(503.97514 328.076563) scale(0.1 -0.1)">
       <use xlink:href="#DejaVuSans-32"/>
       <use xlink:href="#DejaVuSans-35" x="63.623047"/>
       <use xlink:href="#DejaVuSans-30" x="127.246094"/>
      </g>
     </g>
    </g>
    <g id="xtick_7">
     <g id="line2d_13">
      <path d="M 601.238245 313.478125 
L 601.238245 22.318125 
" clip-path="url(#p141f096529)" style="fill: none; stroke: #b0b0b0; stroke-opacity: 0.25; stroke-width: 0.8; stroke-linecap: square"/>
     </g>
     <g id="line2d_14">
      <g>
       <use xlink:href="#m068d024068" x="601.238245" y="313.478125" style="stroke: #000000; stroke-width: 0.8"/>
      </g>
     </g>
     <g id="text_7">
      <!-- 300 -->
      <g transform="translate(591.694495 328.076563) scale(0.1 -0.1)">
       <defs>
        <path id="DejaVuSans-33" d="M 2597 2516 
Q 3050 2419 3304 2112 
Q 3559 1806 3559 1356 
Q 3559 666 3084 287 
Q 2609 -91 1734 -91 
Q 1441 -91 1130 -33 
Q 819 25 488 141 
L 488 750 
Q 750 597 1062 519 
Q 1375 441 1716 441 
Q 2309 441 2620 675 
Q 2931 909 2931 1356 
Q 2931 1769 2642 2001 
Q 2353 2234 1838 2234 
L 1294 2234 
L 1294 2753 
L 1863 2753 
Q 2328 2753 2575 2939 
Q 2822 3125 2822 3475 
Q 2822 3834 2567 4026 
Q 2313 4219 1838 4219 
Q 1578 4219 1281 4162 
Q 984 4106 628 3988 
L 628 4550 
Q 988 4650 1302 4700 
Q 1616 4750 1894 4750 
Q 2613 4750 3031 4423 
Q 3450 4097 3450 3541 
Q 3450 3153 3228 2886 
Q 3006 2619 2597 2516 
z
" transform="scale(0.015625)"/>
       </defs>
       <use xlink:href="#DejaVuSans-33"/>
       <use xlink:href="#DejaVuSans-30" x="63.623047"/>
       <use xlink:href="#DejaVuSans-30" x="127.246094"/>
      </g>
     </g>
    </g>
    <g id="xtick_8">
     <g id="line2d_15">
      <path d="M 688.9576 313.478125 
L 688.9576 22.318125 
" clip-path="url(#p141f096529)" style="fill: none; stroke: #b0b0b0; stroke-opacity: 0.25; stroke-width: 0.8; stroke-linecap: square"/>
     </g>
     <g id="line2d_16">
      <g>
       <use xlink:href="#m068d024068" x="688.9576" y="313.478125" style="stroke: #000000; stroke-width: 0.8"/>
      </g>
     </g>
     <g id="text_8">
      <!-- 350 -->
      <g transform="translate(679.41385 328.076563) scale(0.1 -0.1)">
       <use xlink:href="#DejaVuSans-33"/>
       <use xlink:href="#DejaVuSans-35" x="63.623047"/>
       <use xlink:href="#DejaVuSans-30" x="127.246094"/>
      </g>
     </g>
    </g>
    <g id="text_9">
     <!-- Inference time (ms) -->
     <g transform="translate(343.175938 341.754687) scale(0.1 -0.1)">
      <defs>
       <path id="DejaVuSans-49" d="M 628 4666 
L 1259 4666 
L 1259 0 
L 628 0 
L 628 4666 
z
" transform="scale(0.015625)"/>
       <path id="DejaVuSans-6e" d="M 3513 2113 
L 3513 0 
L 2938 0 
L 2938 2094 
Q 2938 2591 2744 2837 
Q 2550 3084 2163 3084 
Q 1697 3084 1428 2787 
Q 1159 2491 1159 1978 
L 1159 0 
L 581 0 
L 581 3500 
L 1159 3500 
L 1159 2956 
Q 1366 3272 1645 3428 
Q 1925 3584 2291 3584 
Q 2894 3584 3203 3211 
Q 3513 2838 3513 2113 
z
" transform="scale(0.015625)"/>
       <path id="DejaVuSans-66" d="M 2375 4863 
L 2375 4384 
L 1825 4384 
Q 1516 4384 1395 4259 
Q 1275 4134 1275 3809 
L 1275 3500 
L 2222 3500 
L 2222 3053 
L 1275 3053 
L 1275 0 
L 697 0 
L 697 3053 
L 147 3053 
L 147 3500 
L 697 3500 
L 697 3744 
Q 697 4328 969 4595 
Q 1241 4863 1831 4863 
L 2375 4863 
z
" transform="scale(0.015625)"/>
       <path id="DejaVuSans-65" d="M 3597 1894 
L 3597 1613 
L 953 1613 
Q 991 1019 1311 708 
Q 1631 397 2203 397 
Q 2534 397 2845 478 
Q 3156 559 3463 722 
L 3463 178 
Q 3153 47 2828 -22 
Q 2503 -91 2169 -91 
Q 1331 -91 842 396 
Q 353 884 353 1716 
Q 353 2575 817 3079 
Q 1281 3584 2069 3584 
Q 2775 3584 3186 3129 
Q 3597 2675 3597 1894 
z
M 3022 2063 
Q 3016 2534 2758 2815 
Q 2500 3097 2075 3097 
Q 1594 3097 1305 2825 
Q 1016 2553 972 2059 
L 3022 2063 
z
" transform="scale(0.015625)"/>
       <path id="DejaVuSans-72" d="M 2631 2963 
Q 2534 3019 2420 3045 
Q 2306 3072 2169 3072 
Q 1681 3072 1420 2755 
Q 1159 2438 1159 1844 
L 1159 0 
L 581 0 
L 581 3500 
L 1159 3500 
L 1159 2956 
Q 1341 3275 1631 3429 
Q 1922 3584 2338 3584 
Q 2397 3584 2469 3576 
Q 2541 3569 2628 3553 
L 2631 2963 
z
" transform="scale(0.015625)"/>
       <path id="DejaVuSans-63" d="M 3122 3366 
L 3122 2828 
Q 2878 2963 2633 3030 
Q 2388 3097 2138 3097 
Q 1578 3097 1268 2742 
Q 959 2388 959 1747 
Q 959 1106 1268 751 
Q 1578 397 2138 397 
Q 2388 397 2633 464 
Q 2878 531 3122 666 
L 3122 134 
Q 2881 22 2623 -34 
Q 2366 -91 2075 -91 
Q 1284 -91 818 406 
Q 353 903 353 1747 
Q 353 2603 823 3093 
Q 1294 3584 2113 3584 
Q 2378 3584 2631 3529 
Q 2884 3475 3122 3366 
z
" transform="scale(0.015625)"/>
       <path id="DejaVuSans-20" transform="scale(0.015625)"/>
       <path id="DejaVuSans-74" d="M 1172 4494 
L 1172 3500 
L 2356 3500 
L 2356 3053 
L 1172 3053 
L 1172 1153 
Q 1172 725 1289 603 
Q 1406 481 1766 481 
L 2356 481 
L 2356 0 
L 1766 0 
Q 1100 0 847 248 
Q 594 497 594 1153 
L 594 3053 
L 172 3053 
L 172 3500 
L 594 3500 
L 594 4494 
L 1172 4494 
z
" transform="scale(0.015625)"/>
       <path id="DejaVuSans-69" d="M 603 3500 
L 1178 3500 
L 1178 0 
L 603 0 
L 603 3500 
z
M 603 4863 
L 1178 4863 
L 1178 4134 
L 603 4134 
L 603 4863 
z
" transform="scale(0.015625)"/>
       <path id="DejaVuSans-6d" d="M 3328 2828 
Q 3544 3216 3844 3400 
Q 4144 3584 4550 3584 
Q 5097 3584 5394 3201 
Q 5691 2819 5691 2113 
L 5691 0 
L 5113 0 
L 5113 2094 
Q 5113 2597 4934 2840 
Q 4756 3084 4391 3084 
Q 3944 3084 3684 2787 
Q 3425 2491 3425 1978 
L 3425 0 
L 2847 0 
L 2847 2094 
Q 2847 2600 2669 2842 
Q 2491 3084 2119 3084 
Q 1678 3084 1418 2786 
Q 1159 2488 1159 1978 
L 1159 0 
L 581 0 
L 581 3500 
L 1159 3500 
L 1159 2956 
Q 1356 3278 1631 3431 
Q 1906 3584 2284 3584 
Q 2666 3584 2933 3390 
Q 3200 3197 3328 2828 
z
" transform="scale(0.015625)"/>
       <path id="DejaVuSans-28" d="M 1984 4856 
Q 1566 4138 1362 3434 
Q 1159 2731 1159 2009 
Q 1159 1288 1364 580 
Q 1569 -128 1984 -844 
L 1484 -844 
Q 1016 -109 783 600 
Q 550 1309 550 2009 
Q 550 2706 781 3412 
Q 1013 4119 1484 4856 
L 1984 4856 
z
" transform="scale(0.015625)"/>
       <path id="DejaVuSans-73" d="M 2834 3397 
L 2834 2853 
Q 2591 2978 2328 3040 
Q 2066 3103 1784 3103 
Q 1356 3103 1142 2972 
Q 928 2841 928 2578 
Q 928 2378 1081 2264 
Q 1234 2150 1697 2047 
L 1894 2003 
Q 2506 1872 2764 1633 
Q 3022 1394 3022 966 
Q 3022 478 2636 193 
Q 2250 -91 1575 -91 
Q 1294 -91 989 -36 
Q 684 19 347 128 
L 347 722 
Q 666 556 975 473 
Q 1284 391 1588 391 
Q 1994 391 2212 530 
Q 2431 669 2431 922 
Q 2431 1156 2273 1281 
Q 2116 1406 1581 1522 
L 1381 1569 
Q 847 1681 609 1914 
Q 372 2147 372 2553 
Q 372 3047 722 3315 
Q 1072 3584 1716 3584 
Q 2034 3584 2315 3537 
Q 2597 3491 2834 3397 
z
" transform="scale(0.015625)"/>
       <path id="DejaVuSans-29" d="M 513 4856 
L 1013 4856 
Q 1481 4119 1714 3412 
Q 1947 2706 1947 2009 
Q 1947 1309 1714 600 
Q 1481 -109 1013 -844 
L 513 -844 
Q 928 -128 1133 580 
Q 1338 1288 1338 2009 
Q 1338 2731 1133 3434 
Q 928 4138 513 4856 
z
" transform="scale(0.015625)"/>
      </defs>
      <use xlink:href="#DejaVuSans-49"/>
      <use xlink:href="#DejaVuSans-6e" x="29.492188"/>
      <use xlink:href="#DejaVuSans-66" x="92.871094"/>
      <use xlink:href="#DejaVuSans-65" x="128.076172"/>
      <use xlink:href="#DejaVuSans-72" x="189.599609"/>
      <use xlink:href="#DejaVuSans-65" x="228.462891"/>
      <use xlink:href="#DejaVuSans-6e" x="289.986328"/>
      <use xlink:href="#DejaVuSans-63" x="353.365234"/>
      <use xlink:href="#DejaVuSans-65" x="408.345703"/>
      <use xlink:href="#DejaVuSans-20" x="469.869141"/>
      <use xlink:href="#DejaVuSans-74" x="501.65625"/>
      <use xlink:href="#DejaVuSans-69" x="540.865234"/>
      <use xlink:href="#DejaVuSans-6d" x="568.648438"/>
      <use xlink:href="#DejaVuSans-65" x="666.060547"/>
      <use xlink:href="#DejaVuSans-20" x="727.583984"/>
      <use xlink:href="#DejaVuSans-28" x="759.371094"/>
      <use xlink:href="#DejaVuSans-6d" x="798.384766"/>
      <use xlink:href="#DejaVuSans-73" x="895.796875"/>
      <use xlink:href="#DejaVuSans-29" x="947.896484"/>
     </g>
    </g>
   </g>
   <g id="matplotlib.axis_2">
    <g id="ytick_1">
     <g id="line2d_17">
      <path d="M 43.78125 308.105061 
L 741.26125 308.105061 
" clip-path="url(#p141f096529)" style="fill: none; stroke: #b0b0b0; stroke-opacity: 0.25; stroke-width: 0.8; stroke-linecap: square"/>
     </g>
     <g id="line2d_18">
      <defs>
       <path id="m143d3d22e8" d="M 0 0 
L -3.5 0 
" style="stroke: #000000; stroke-width: 0.8"/>
      </defs>
      <g>
       <use xlink:href="#m143d3d22e8" x="43.78125" y="308.105061" style="stroke: #000000; stroke-width: 0.8"/>
      </g>
     </g>
     <g id="text_10">
      <!-- 0.1 -->
      <g transform="translate(20.878125 311.904279) scale(0.1 -0.1)">
       <defs>
        <path id="DejaVuSans-2e" d="M 684 794 
L 1344 794 
L 1344 0 
L 684 0 
L 684 794 
z
" transform="scale(0.015625)"/>
       </defs>
       <use xlink:href="#DejaVuSans-30"/>
       <use xlink:href="#DejaVuSans-2e" x="63.623047"/>
       <use xlink:href="#DejaVuSans-31" x="95.410156"/>
      </g>
     </g>
    </g>
    <g id="ytick_2">
     <g id="line2d_19">
      <path d="M 43.78125 275.452941 
L 741.26125 275.452941 
" clip-path="url(#p141f096529)" style="fill: none; stroke: #b0b0b0; stroke-opacity: 0.25; stroke-width: 0.8; stroke-linecap: square"/>
     </g>
     <g id="line2d_20">
      <g>
       <use xlink:href="#m143d3d22e8" x="43.78125" y="275.452941" style="stroke: #000000; stroke-width: 0.8"/>
      </g>
     </g>
     <g id="text_11">
      <!-- 0.2 -->
      <g transform="translate(20.878125 279.25216) scale(0.1 -0.1)">
       <use xlink:href="#DejaVuSans-30"/>
       <use xlink:href="#DejaVuSans-2e" x="63.623047"/>
       <use xlink:href="#DejaVuSans-32" x="95.410156"/>
      </g>
     </g>
    </g>
    <g id="ytick_3">
     <g id="line2d_21">
      <path d="M 43.78125 242.800821 
L 741.26125 242.800821 
" clip-path="url(#p141f096529)" style="fill: none; stroke: #b0b0b0; stroke-opacity: 0.25; stroke-width: 0.8; stroke-linecap: square"/>
     </g>
     <g id="line2d_22">
      <g>
       <use xlink:href="#m143d3d22e8" x="43.78125" y="242.800821" style="stroke: #000000; stroke-width: 0.8"/>
      </g>
     </g>
     <g id="text_12">
      <!-- 0.3 -->
      <g transform="translate(20.878125 246.60004) scale(0.1 -0.1)">
       <use xlink:href="#DejaVuSans-30"/>
       <use xlink:href="#DejaVuSans-2e" x="63.623047"/>
       <use xlink:href="#DejaVuSans-33" x="95.410156"/>
      </g>
     </g>
    </g>
    <g id="ytick_4">
     <g id="line2d_23">
      <path d="M 43.78125 210.148701 
L 741.26125 210.148701 
" clip-path="url(#p141f096529)" style="fill: none; stroke: #b0b0b0; stroke-opacity: 0.25; stroke-width: 0.8; stroke-linecap: square"/>
     </g>
     <g id="line2d_24">
      <g>
       <use xlink:href="#m143d3d22e8" x="43.78125" y="210.148701" style="stroke: #000000; stroke-width: 0.8"/>
      </g>
     </g>
     <g id="text_13">
      <!-- 0.4 -->
      <g transform="translate(20.878125 213.94792) scale(0.1 -0.1)">
       <defs>
        <path id="DejaVuSans-34" d="M 2419 4116 
L 825 1625 
L 2419 1625 
L 2419 4116 
z
M 2253 4666 
L 3047 4666 
L 3047 1625 
L 3713 1625 
L 3713 1100 
L 3047 1100 
L 3047 0 
L 2419 0 
L 2419 1100 
L 313 1100 
L 313 1709 
L 2253 4666 
z
" transform="scale(0.015625)"/>
       </defs>
       <use xlink:href="#DejaVuSans-30"/>
       <use xlink:href="#DejaVuSans-2e" x="63.623047"/>
       <use xlink:href="#DejaVuSans-34" x="95.410156"/>
      </g>
     </g>
    </g>
    <g id="ytick_5">
     <g id="line2d_25">
      <path d="M 43.78125 177.496581 
L 741.26125 177.496581 
" clip-path="url(#p141f096529)" style="fill: none; stroke: #b0b0b0; stroke-opacity: 0.25; stroke-width: 0.8; stroke-linecap: square"/>
     </g>
     <g id="line2d_26">
      <g>
       <use xlink:href="#m143d3d22e8" x="43.78125" y="177.496581" style="stroke: #000000; stroke-width: 0.8"/>
      </g>
     </g>
     <g id="text_14">
      <!-- 0.5 -->
      <g transform="translate(20.878125 181.2958) scale(0.1 -0.1)">
       <use xlink:href="#DejaVuSans-30"/>
       <use xlink:href="#DejaVuSans-2e" x="63.623047"/>
       <use xlink:href="#DejaVuSans-35" x="95.410156"/>
      </g>
     </g>
    </g>
    <g id="ytick_6">
     <g id="line2d_27">
      <path d="M 43.78125 144.844462 
L 741.26125 144.844462 
" clip-path="url(#p141f096529)" style="fill: none; stroke: #b0b0b0; stroke-opacity: 0.25; stroke-width: 0.8; stroke-linecap: square"/>
     </g>
     <g id="line2d_28">
      <g>
       <use xlink:href="#m143d3d22e8" x="43.78125" y="144.844462" style="stroke: #000000; stroke-width: 0.8"/>
      </g>
     </g>
     <g id="text_15">
      <!-- 0.6 -->
      <g transform="translate(20.878125 148.64368) scale(0.1 -0.1)">
       <defs>
        <path id="DejaVuSans-36" d="M 2113 2584 
Q 1688 2584 1439 2293 
Q 1191 2003 1191 1497 
Q 1191 994 1439 701 
Q 1688 409 2113 409 
Q 2538 409 2786 701 
Q 3034 994 3034 1497 
Q 3034 2003 2786 2293 
Q 2538 2584 2113 2584 
z
M 3366 4563 
L 3366 3988 
Q 3128 4100 2886 4159 
Q 2644 4219 2406 4219 
Q 1781 4219 1451 3797 
Q 1122 3375 1075 2522 
Q 1259 2794 1537 2939 
Q 1816 3084 2150 3084 
Q 2853 3084 3261 2657 
Q 3669 2231 3669 1497 
Q 3669 778 3244 343 
Q 2819 -91 2113 -91 
Q 1303 -91 875 529 
Q 447 1150 447 2328 
Q 447 3434 972 4092 
Q 1497 4750 2381 4750 
Q 2619 4750 2861 4703 
Q 3103 4656 3366 4563 
z
" transform="scale(0.015625)"/>
       </defs>
       <use xlink:href="#DejaVuSans-30"/>
       <use xlink:href="#DejaVuSans-2e" x="63.623047"/>
       <use xlink:href="#DejaVuSans-36" x="95.410156"/>
      </g>
     </g>
    </g>
    <g id="ytick_7">
     <g id="line2d_29">
      <path d="M 43.78125 112.192342 
L 741.26125 112.192342 
" clip-path="url(#p141f096529)" style="fill: none; stroke: #b0b0b0; stroke-opacity: 0.25; stroke-width: 0.8; stroke-linecap: square"/>
     </g>
     <g id="line2d_30">
      <g>
       <use xlink:href="#m143d3d22e8" x="43.78125" y="112.192342" style="stroke: #000000; stroke-width: 0.8"/>
      </g>
     </g>
     <g id="text_16">
      <!-- 0.7 -->
      <g transform="translate(20.878125 115.991561) scale(0.1 -0.1)">
       <defs>
        <path id="DejaVuSans-37" d="M 525 4666 
L 3525 4666 
L 3525 4397 
L 1831 0 
L 1172 0 
L 2766 4134 
L 525 4134 
L 525 4666 
z
" transform="scale(0.015625)"/>
       </defs>
       <use xlink:href="#DejaVuSans-30"/>
       <use xlink:href="#DejaVuSans-2e" x="63.623047"/>
       <use xlink:href="#DejaVuSans-37" x="95.410156"/>
      </g>
     </g>
    </g>
    <g id="ytick_8">
     <g id="line2d_31">
      <path d="M 43.78125 79.540222 
L 741.26125 79.540222 
" clip-path="url(#p141f096529)" style="fill: none; stroke: #b0b0b0; stroke-opacity: 0.25; stroke-width: 0.8; stroke-linecap: square"/>
     </g>
     <g id="line2d_32">
      <g>
       <use xlink:href="#m143d3d22e8" x="43.78125" y="79.540222" style="stroke: #000000; stroke-width: 0.8"/>
      </g>
     </g>
     <g id="text_17">
      <!-- 0.8 -->
      <g transform="translate(20.878125 83.339441) scale(0.1 -0.1)">
       <defs>
        <path id="DejaVuSans-38" d="M 2034 2216 
Q 1584 2216 1326 1975 
Q 1069 1734 1069 1313 
Q 1069 891 1326 650 
Q 1584 409 2034 409 
Q 2484 409 2743 651 
Q 3003 894 3003 1313 
Q 3003 1734 2745 1975 
Q 2488 2216 2034 2216 
z
M 1403 2484 
Q 997 2584 770 2862 
Q 544 3141 544 3541 
Q 544 4100 942 4425 
Q 1341 4750 2034 4750 
Q 2731 4750 3128 4425 
Q 3525 4100 3525 3541 
Q 3525 3141 3298 2862 
Q 3072 2584 2669 2484 
Q 3125 2378 3379 2068 
Q 3634 1759 3634 1313 
Q 3634 634 3220 271 
Q 2806 -91 2034 -91 
Q 1263 -91 848 271 
Q 434 634 434 1313 
Q 434 1759 690 2068 
Q 947 2378 1403 2484 
z
M 1172 3481 
Q 1172 3119 1398 2916 
Q 1625 2713 2034 2713 
Q 2441 2713 2670 2916 
Q 2900 3119 2900 3481 
Q 2900 3844 2670 4047 
Q 2441 4250 2034 4250 
Q 1625 4250 1398 4047 
Q 1172 3844 1172 3481 
z
" transform="scale(0.015625)"/>
       </defs>
       <use xlink:href="#DejaVuSans-30"/>
       <use xlink:href="#DejaVuSans-2e" x="63.623047"/>
       <use xlink:href="#DejaVuSans-38" x="95.410156"/>
      </g>
     </g>
    </g>
    <g id="ytick_9">
     <g id="line2d_33">
      <path d="M 43.78125 46.888102 
L 741.26125 46.888102 
" clip-path="url(#p141f096529)" style="fill: none; stroke: #b0b0b0; stroke-opacity: 0.25; stroke-width: 0.8; stroke-linecap: square"/>
     </g>
     <g id="line2d_34">
      <g>
       <use xlink:href="#m143d3d22e8" x="43.78125" y="46.888102" style="stroke: #000000; stroke-width: 0.8"/>
      </g>
     </g>
     <g id="text_18">
      <!-- 0.9 -->
      <g transform="translate(20.878125 50.687321) scale(0.1 -0.1)">
       <defs>
        <path id="DejaVuSans-39" d="M 703 97 
L 703 672 
Q 941 559 1184 500 
Q 1428 441 1663 441 
Q 2288 441 2617 861 
Q 2947 1281 2994 2138 
Q 2813 1869 2534 1725 
Q 2256 1581 1919 1581 
Q 1219 1581 811 2004 
Q 403 2428 403 3163 
Q 403 3881 828 4315 
Q 1253 4750 1959 4750 
Q 2769 4750 3195 4129 
Q 3622 3509 3622 2328 
Q 3622 1225 3098 567 
Q 2575 -91 1691 -91 
Q 1453 -91 1209 -44 
Q 966 3 703 97 
z
M 1959 2075 
Q 2384 2075 2632 2365 
Q 2881 2656 2881 3163 
Q 2881 3666 2632 3958 
Q 2384 4250 1959 4250 
Q 1534 4250 1286 3958 
Q 1038 3666 1038 3163 
Q 1038 2656 1286 2365 
Q 1534 2075 1959 2075 
z
" transform="scale(0.015625)"/>
       </defs>
       <use xlink:href="#DejaVuSans-30"/>
       <use xlink:href="#DejaVuSans-2e" x="63.623047"/>
       <use xlink:href="#DejaVuSans-39" x="95.410156"/>
      </g>
     </g>
    </g>
    <g id="text_19">
     <!-- Macro correlation -->
     <g transform="translate(14.798438 211.443438) rotate(-90) scale(0.1 -0.1)">
      <defs>
       <path id="DejaVuSans-4d" d="M 628 4666 
L 1569 4666 
L 2759 1491 
L 3956 4666 
L 4897 4666 
L 4897 0 
L 4281 0 
L 4281 4097 
L 3078 897 
L 2444 897 
L 1241 4097 
L 1241 0 
L 628 0 
L 628 4666 
z
" transform="scale(0.015625)"/>
       <path id="DejaVuSans-61" d="M 2194 1759 
Q 1497 1759 1228 1600 
Q 959 1441 959 1056 
Q 959 750 1161 570 
Q 1363 391 1709 391 
Q 2188 391 2477 730 
Q 2766 1069 2766 1631 
L 2766 1759 
L 2194 1759 
z
M 3341 1997 
L 3341 0 
L 2766 0 
L 2766 531 
Q 2569 213 2275 61 
Q 1981 -91 1556 -91 
Q 1019 -91 701 211 
Q 384 513 384 1019 
Q 384 1609 779 1909 
Q 1175 2209 1959 2209 
L 2766 2209 
L 2766 2266 
Q 2766 2663 2505 2880 
Q 2244 3097 1772 3097 
Q 1472 3097 1187 3025 
Q 903 2953 641 2809 
L 641 3341 
Q 956 3463 1253 3523 
Q 1550 3584 1831 3584 
Q 2591 3584 2966 3190 
Q 3341 2797 3341 1997 
z
" transform="scale(0.015625)"/>
       <path id="DejaVuSans-6f" d="M 1959 3097 
Q 1497 3097 1228 2736 
Q 959 2375 959 1747 
Q 959 1119 1226 758 
Q 1494 397 1959 397 
Q 2419 397 2687 759 
Q 2956 1122 2956 1747 
Q 2956 2369 2687 2733 
Q 2419 3097 1959 3097 
z
M 1959 3584 
Q 2709 3584 3137 3096 
Q 3566 2609 3566 1747 
Q 3566 888 3137 398 
Q 2709 -91 1959 -91 
Q 1206 -91 779 398 
Q 353 888 353 1747 
Q 353 2609 779 3096 
Q 1206 3584 1959 3584 
z
" transform="scale(0.015625)"/>
       <path id="DejaVuSans-6c" d="M 603 4863 
L 1178 4863 
L 1178 0 
L 603 0 
L 603 4863 
z
" transform="scale(0.015625)"/>
      </defs>
      <use xlink:href="#DejaVuSans-4d"/>
      <use xlink:href="#DejaVuSans-61" x="86.279297"/>
      <use xlink:href="#DejaVuSans-63" x="147.558594"/>
      <use xlink:href="#DejaVuSans-72" x="202.539062"/>
      <use xlink:href="#DejaVuSans-6f" x="241.402344"/>
      <use xlink:href="#DejaVuSans-20" x="302.583984"/>
      <use xlink:href="#DejaVuSans-63" x="334.371094"/>
      <use xlink:href="#DejaVuSans-6f" x="389.351562"/>
      <use xlink:href="#DejaVuSans-72" x="450.533203"/>
      <use xlink:href="#DejaVuSans-72" x="489.896484"/>
      <use xlink:href="#DejaVuSans-65" x="528.759766"/>
      <use xlink:href="#DejaVuSans-6c" x="590.283203"/>
      <use xlink:href="#DejaVuSans-61" x="618.066406"/>
      <use xlink:href="#DejaVuSans-74" x="679.345703"/>
      <use xlink:href="#DejaVuSans-69" x="718.554688"/>
      <use xlink:href="#DejaVuSans-6f" x="746.337891"/>
      <use xlink:href="#DejaVuSans-6e" x="807.519531"/>
     </g>
    </g>
   </g>
   <g id="patch_3">
    <path d="M 43.78125 313.478125 
L 43.78125 22.318125 
" style="fill: none; stroke: #000000; stroke-width: 0.8; stroke-linejoin: miter; stroke-linecap: square"/>
   </g>
   <g id="patch_4">
    <path d="M 741.26125 313.478125 
L 741.26125 22.318125 
" style="fill: none; stroke: #000000; stroke-width: 0.8; stroke-linejoin: miter; stroke-linecap: square"/>
   </g>
   <g id="patch_5">
    <path d="M 43.78125 313.478125 
L 741.26125 313.478125 
" style="fill: none; stroke: #000000; stroke-width: 0.8; stroke-linejoin: miter; stroke-linecap: square"/>
   </g>
   <g id="patch_6">
    <path d="M 43.78125 22.318125 
L 741.26125 22.318125 
" style="fill: none; stroke: #000000; stroke-width: 0.8; stroke-linejoin: miter; stroke-linecap: square"/>
   </g>
   <g id="text_20">
    <!-- Accuracy-efficiency bubble plot -->
    <g transform="translate(298.2725 16.318125) scale(0.12 -0.12)">
     <defs>
      <path id="DejaVuSans-41" d="M 2188 4044 
L 1331 1722 
L 3047 1722 
L 2188 4044 
z
M 1831 4666 
L 2547 4666 
L 4325 0 
L 3669 0 
L 3244 1197 
L 1141 1197 
L 716 0 
L 50 0 
L 1831 4666 
z
" transform="scale(0.015625)"/>
      <path id="DejaVuSans-75" d="M 544 1381 
L 544 3500 
L 1119 3500 
L 1119 1403 
Q 1119 906 1312 657 
Q 1506 409 1894 409 
Q 2359 409 2629 706 
Q 2900 1003 2900 1516 
L 2900 3500 
L 3475 3500 
L 3475 0 
L 2900 0 
L 2900 538 
Q 2691 219 2414 64 
Q 2138 -91 1772 -91 
Q 1169 -91 856 284 
Q 544 659 544 1381 
z
M 1991 3584 
L 1991 3584 
z
" transform="scale(0.015625)"/>
      <path id="DejaVuSans-79" d="M 2059 -325 
Q 1816 -950 1584 -1140 
Q 1353 -1331 966 -1331 
L 506 -1331 
L 506 -850 
L 844 -850 
Q 1081 -850 1212 -737 
Q 1344 -625 1503 -206 
L 1606 56 
L 191 3500 
L 800 3500 
L 1894 763 
L 2988 3500 
L 3597 3500 
L 2059 -325 
z
" transform="scale(0.015625)"/>
      <path id="DejaVuSans-2d" d="M 313 2009 
L 1997 2009 
L 1997 1497 
L 313 1497 
L 313 2009 
z
" transform="scale(0.015625)"/>
      <path id="DejaVuSans-62" d="M 3116 1747 
Q 3116 2381 2855 2742 
Q 2594 3103 2138 3103 
Q 1681 3103 1420 2742 
Q 1159 2381 1159 1747 
Q 1159 1113 1420 752 
Q 1681 391 2138 391 
Q 2594 391 2855 752 
Q 3116 1113 3116 1747 
z
M 1159 2969 
Q 1341 3281 1617 3432 
Q 1894 3584 2278 3584 
Q 2916 3584 3314 3078 
Q 3713 2572 3713 1747 
Q 3713 922 3314 415 
Q 2916 -91 2278 -91 
Q 1894 -91 1617 61 
Q 1341 213 1159 525 
L 1159 0 
L 581 0 
L 581 4863 
L 1159 4863 
L 1159 2969 
z
" transform="scale(0.015625)"/>
      <path id="DejaVuSans-70" d="M 1159 525 
L 1159 -1331 
L 581 -1331 
L 581 3500 
L 1159 3500 
L 1159 2969 
Q 1341 3281 1617 3432 
Q 1894 3584 2278 3584 
Q 2916 3584 3314 3078 
Q 3713 2572 3713 1747 
Q 3713 922 3314 415 
Q 2916 -91 2278 -91 
Q 1894 -91 1617 61 
Q 1341 213 1159 525 
z
M 3116 1747 
Q 3116 2381 2855 2742 
Q 2594 3103 2138 3103 
Q 1681 3103 1420 2742 
Q 1159 2381 1159 1747 
Q 1159 1113 1420 752 
Q 1681 391 2138 391 
Q 2594 391 2855 752 
Q 3116 1113 3116 1747 
z
" transform="scale(0.015625)"/>
     </defs>
     <use xlink:href="#DejaVuSans-41"/>
     <use xlink:href="#DejaVuSans-63" x="66.658203"/>
     <use xlink:href="#DejaVuSans-63" x="121.638672"/>
     <use xlink:href="#DejaVuSans-75" x="176.619141"/>
     <use xlink:href="#DejaVuSans-72" x="239.998047"/>
     <use xlink:href="#DejaVuSans-61" x="281.111328"/>
     <use xlink:href="#DejaVuSans-63" x="342.390625"/>
     <use xlink:href="#DejaVuSans-79" x="397.371094"/>
     <use xlink:href="#DejaVuSans-2d" x="454.800781"/>
     <use xlink:href="#DejaVuSans-65" x="490.884766"/>
     <use xlink:href="#DejaVuSans-66" x="552.408203"/>
     <use xlink:href="#DejaVuSans-66" x="587.613281"/>
     <use xlink:href="#DejaVuSans-69" x="622.818359"/>
     <use xlink:href="#DejaVuSans-63" x="650.601562"/>
     <use xlink:href="#DejaVuSans-69" x="705.582031"/>
     <use xlink:href="#DejaVuSans-65" x="733.365234"/>
     <use xlink:href="#DejaVuSans-6e" x="794.888672"/>
     <use xlink:href="#DejaVuSans-63" x="858.267578"/>
     <use xlink:href="#DejaVuSans-79" x="913.248047"/>
     <use xlink:href="#DejaVuSans-20" x="972.427734"/>
     <use xlink:href="#DejaVuSans-62" x="1004.214844"/>
     <use xlink:href="#DejaVuSans-75" x="1067.691406"/>
     <use xlink:href="#DejaVuSans-62" x="1131.070312"/>
     <use xlink:href="#DejaVuSans-62" x="1194.546875"/>
     <use xlink:href="#DejaVuSans-6c" x="1258.023438"/>
     <use xlink:href="#DejaVuSans-65" x="1285.806641"/>
     <use xlink:href="#DejaVuSans-20" x="1347.330078"/>
     <use xlink:href="#DejaVuSans-70" x="1379.117188"/>
     <use xlink:href="#DejaVuSans-6c" x="1442.59375"/>
     <use xlink:href="#DejaVuSans-6f" x="1470.376953"/>
     <use xlink:href="#DejaVuSans-74" x="1531.558594"/>
    </g>
   </g>
   <g id="legend_1">
    <g id="patch_7">
     <path d="M 679.59875 59.674375 
L 734.26125 59.674375 
Q 736.26125 59.674375 736.26125 57.674375 
L 736.26125 29.318125 
Q 736.26125 27.318125 734.26125 27.318125 
L 679.59875 27.318125 
Q 677.59875 27.318125 677.59875 29.318125 
L 677.59875 57.674375 
Q 677.59875 59.674375 679.59875 59.674375 
z
" style="fill: #ffffff; opacity: 0.8; stroke: #cccccc; stroke-linejoin: miter"/>
    </g>
    <g id="PathCollection_3">
     <defs>
      <path id="me4dd1ceff6" d="M 0 5.228303 
C 1.386562 5.228303 2.716521 4.677416 3.696968 3.696968 
C 4.677416 2.716521 5.228303 1.386562 5.228303 0 
C 5.228303 -1.386562 4.677416 -2.716521 3.696968 -3.696968 
C 2.716521 -4.677416 1.386562 -5.228303 0 -5.228303 
C -1.386562 -5.228303 -2.716521 -4.677416 -3.696968 -3.696968 
C -4.677416 -2.716521 -5.228303 -1.386562 -5.228303 0 
C -5.228303 1.386562 -4.677416 2.716521 -3.696968 3.696968 
C -2.716521 4.677416 -1.386562 5.228303 0 5.228303 
z
" style="stroke: #d62728; stroke-opacity: 0.55"/>
     </defs>
     <g>
      <use xlink:href="#me4dd1ceff6" x="691.59875" y="36.291562" style="fill: #d62728; fill-opacity: 0.55; stroke: #d62728; stroke-opacity: 0.55"/>
     </g>
    </g>
    <g id="text_21">
     <!-- DNN -->
     <g transform="translate(709.59875 38.916562) scale(0.1 -0.1)">
      <defs>
       <path id="DejaVuSans-44" d="M 1259 4147 
L 1259 519 
L 2022 519 
Q 2988 519 3436 956 
Q 3884 1394 3884 2338 
Q 3884 3275 3436 3711 
Q 2988 4147 2022 4147 
L 1259 4147 
z
M 628 4666 
L 1925 4666 
Q 3281 4666 3915 4102 
Q 4550 3538 4550 2338 
Q 4550 1131 3912 565 
Q 3275 0 1925 0 
L 628 0 
L 628 4666 
z
" transform="scale(0.015625)"/>
       <path id="DejaVuSans-4e" d="M 628 4666 
L 1478 4666 
L 3547 763 
L 3547 4666 
L 4159 4666 
L 4159 0 
L 3309 0 
L 1241 3903 
L 1241 0 
L 628 0 
L 628 4666 
z
" transform="scale(0.015625)"/>
      </defs>
      <use xlink:href="#DejaVuSans-44"/>
      <use xlink:href="#DejaVuSans-4e" x="77.001953"/>
      <use xlink:href="#DejaVuSans-4e" x="151.806641"/>
     </g>
    </g>
    <g id="PathCollection_4">
     <defs>
      <path id="m0f85d055f1" d="M 0 2.151192 
C 0.570503 2.151192 1.117716 1.924529 1.521123 1.521123 
C 1.924529 1.117716 2.151192 0.570503 2.151192 0 
C 2.151192 -0.570503 1.924529 -1.117716 1.521123 -1.521123 
C 1.117716 -1.924529 0.570503 -2.151192 0 -2.151192 
C -0.570503 -2.151192 -1.117716 -1.924529 -1.521123 -1.521123 
C -1.924529 -1.117716 -2.151192 -0.570503 -2.151192 0 
C -2.151192 0.570503 -1.924529 1.117716 -1.521123 1.521123 
C -1.117716 1.924529 -0.570503 2.151192 0 2.151192 
z
" style="stroke: #1f77b4; stroke-opacity: 0.55"/>
     </defs>
     <g>
      <use xlink:href="#m0f85d055f1" x="691.59875" y="50.969688" style="fill: #1f77b4; fill-opacity: 0.55; stroke: #1f77b4; stroke-opacity: 0.55"/>
     </g>
    </g>
    <g id="text_22">
     <!-- SNN -->
     <g transform="translate(709.59875 53.594688) scale(0.1 -0.1)">
      <defs>
       <path id="DejaVuSans-53" d="M 3425 4513 
L 3425 3897 
Q 3066 4069 2747 4153 
Q 2428 4238 2131 4238 
Q 1616 4238 1336 4038 
Q 1056 3838 1056 3469 
Q 1056 3159 1242 3001 
Q 1428 2844 1947 2747 
L 2328 2669 
Q 3034 2534 3370 2195 
Q 3706 1856 3706 1288 
Q 3706 609 3251 259 
Q 2797 -91 1919 -91 
Q 1588 -91 1214 -16 
Q 841 59 441 206 
L 441 856 
Q 825 641 1194 531 
Q 1563 422 1919 422 
Q 2459 422 2753 634 
Q 3047 847 3047 1241 
Q 3047 1584 2836 1778 
Q 2625 1972 2144 2069 
L 1759 2144 
Q 1053 2284 737 2584 
Q 422 2884 422 3419 
Q 422 4038 858 4394 
Q 1294 4750 2059 4750 
Q 2388 4750 2728 4690 
Q 3069 4631 3425 4513 
z
" transform="scale(0.015625)"/>
      </defs>
      <use xlink:href="#DejaVuSans-53"/>
      <use xlink:href="#DejaVuSans-4e" x="63.476562"/>
      <use xlink:href="#DejaVuSans-4e" x="138.28125"/>
     </g>
    </g>
   </g>
  </g>
 </g>
 <defs>
  <clipPath id="p141f096529">
   <rect x="43.78125" y="22.318125" width="697.48" height="291.16"/>
  </clipPath>
 </defs>
</svg>
