<?xml version="1.0" encoding="utf-8" standalone="no"?>
<!DOCTYPE svg PUBLIC "-//W3C//DTD SVG 1.1//EN"
  "http://www.w3.org/Graphics/SVG/1.1/DTD/svg11.dtd">
<svg xmlns:xlink="http://www.w3.org/1999/xlink" width="748.46125pt" height="351.034375pt" viewBox="0 0 748.46125 351.034375" xmlns="http://www.w3.org/2000/svg" version="1.1">
 <metadata>
  <rdf:RDF xmlns:dc="http://purl.org/dc/elements/1.1/" xmlns:cc="http://creativecommons.org/ns#" xmlns:rdf="http://www.w3.org/1999/02/22-rdf-syntax-ns#">
   <cc:Work>
    <dc:type rdf:resource="http://purl.org/dc/dcmitype/StillImage"/>
    <dc:date>2026-05-25T16:08:31.025436</dc:date>
    <dc:format>image/svg+xml</dc:format>
    <dc:creator>
     <cc:Agent>
      <dc:title>Matplotlib v3.9.4, https://matplotlib.org/</dc:title>
     </cc:Agent>
    </dc:creator>
   </cc:Work>
  </rdf:RDF>
 </metadata>
 <defs>
  <style type="text/css">*{stroke-linejoin: round; stroke-linecap: butt}</style>
 </defs>
 <g id="figure_1">
  <g id="patch_1">
   <path d="M 0 351.034375 
L 748.46125 351.034375 
L 748.46125 0 
L 0 0 
z
" style="fill: #ffffff"/>
  </g>
  <g id="axes_1">
   <g id="patch_2">
    <path d="M 43.78125 313.478125 
L 741.26125 313.478125 
L 741.26125 22.318125 
L 43.78125 22.318125 
z
" style="fill: #ffffff"/>
   </g>
   <g id="PathCollection_1">
    <path d="M 80.011212 60.475619 
C 81.886481 60.475619 83.685196 59.730567 85.011212 58.404551 
C 86.337227 57.078536 87.08228 55.27982 87.08228 53.404551 
C 87.08228 51.529282 86.337227 49.730567 85.011212 48.404551 
C 83.685196 47.078536 81.886481 46.333483 80.011212 46.333483 
C 78.135943 46.333483 76.337227 47.078536 75.011212 48.404551 
C 73.685196 49.730567 72.940144 51.529282 72.940144 53.404551 
C 72.940144 55.27982 73.685196 57.078536 75.011212 58.404551 
C 76.337227 59.730567 78.135943 60.475619 80.011212 60.475619 
z
" clip-path="url(#p0cfa3853ab)" style="fill: #d62728; fill-opacity: 0.55; stroke: #d62728; stroke-opacity: 0.55"/>
    <path d="M 76.91982 118.169252 
C 77.492947 118.169252 78.042678 117.941546 78.44794 117.536284 
C 78.853202 117.131022 79.080907 116.581292 79.080907 116.008165 
C 79.080907 115.435038 78.853202 114.885307 78.44794 114.480045 
C 78.042678 114.074784 77.492947 113.847078 76.91982 113.847078 
C 76.346693 113.847078 75.796963 114.074784 75.391701 114.480045 
C 74.986439 114.885307 74.758733 115.435038 74.758733 116.008165 
C 74.758733 116.581292 74.986439 117.131022 75.391701 117.536284 
C 75.796963 117.941546 76.346693 118.169252 76.91982 118.169252 
z
" clip-path="url(#p0cfa3853ab)" style="fill: #d62728; fill-opacity: 0.55; stroke: #d62728; stroke-opacity: 0.55"/>
    <path d="M 91.598917 84.016419 
C 93.437218 84.016419 95.200474 83.286054 96.500348 81.98618 
C 97.800223 80.686305 98.530588 78.923049 98.530588 77.084748 
C 98.530588 75.246448 97.800223 73.483192 96.500348 72.183317 
C 95.200474 70.883442 93.437218 70.153078 91.598917 70.153078 
C 89.760616 70.153078 87.99736 70.883442 86.697486 72.183317 
C 85.397611 73.483192 84.667246 75.246448 84.667246 77.084748 
C 84.667246 78.923049 85.397611 80.686305 86.697486 81.98618 
C 87.99736 83.286054 89.760616 84.016419 91.598917 84.016419 
z
" clip-path="url(#p0cfa3853ab)" style="fill: #d62728; fill-opacity: 0.55; stroke: #d62728; stroke-opacity: 0.55"/>
    <path d="M 80.384025 55.880118 
C 82.259294 55.880118 84.05801 55.135066 85.384025 53.80905 
C 86.710041 52.483035 87.455093 50.684319 87.455093 48.80905 
C 87.455093 46.933781 86.710041 45.135066 85.384025 43.80905 
C 84.05801 42.483035 82.259294 41.737982 80.384025 41.737982 
C 78.508756 41.737982 76.710041 42.483035 75.384025 43.80905 
C 74.05801 45.135066 73.312957 46.933781 73.312957 48.80905 
C 73.312957 50.684319 74.05801 52.483035 75.384025 53.80905 
C 76.710041 55.135066 78.508756 55.880118 80.384025 55.880118 
z
" clip-path="url(#p0cfa3853ab)" style="fill: #d62728; fill-opacity: 0.55; stroke: #d62728; stroke-opacity: 0.55"/>
    <path d="M 80.252396 92.196321 
C 82.127665 92.196321 83.92638 91.451269 85.252396 90.125254 
C 86.578411 88.799238 87.323464 87.000523 87.323464 85.125254 
C 87.323464 83.249984 86.578411 81.451269 85.252396 80.125254 
C 83.92638 78.799238 82.127665 78.054186 80.252396 78.054186 
C 78.377127 78.054186 76.578411 78.799238 75.252396 80.125254 
C 73.92638 81.451269 73.181328 83.249984 73.181328 85.125254 
C 73.181328 87.000523 73.92638 88.799238 75.252396 90.125254 
C 76.578411 91.451269 78.377127 92.196321 80.252396 92.196321 
z
" clip-path="url(#p0cfa3853ab)" style="fill: #d62728; fill-opacity: 0.55; stroke: #d62728; stroke-opacity: 0.55"/>
    <path d="M 90.119038 63.541999 
C 91.957339 63.541999 93.720595 62.811634 95.02047 61.51176 
C 96.320345 60.211885 97.050709 58.448629 97.050709 56.610328 
C 97.050709 54.772028 96.320345 53.008772 95.02047 51.708897 
C 93.720595 50.409022 91.957339 49.678658 90.119038 49.678658 
C 88.280738 49.678658 86.517482 50.409022 85.217607 51.708897 
C 83.917732 53.008772 83.187368 54.772028 83.187368 56.610328 
C 83.187368 58.448629 83.917732 60.211885 85.217607 61.51176 
C 86.517482 62.811634 88.280738 63.541999 90.119038 63.541999 
z
" clip-path="url(#p0cfa3853ab)" style="fill: #d62728; fill-opacity: 0.55; stroke: #d62728; stroke-opacity: 0.55"/>
    <path d="M 90.471434 48.8788 
C 92.309734 48.8788 94.07299 48.148436 95.372865 46.848561 
C 96.67274 45.548686 97.403104 43.78543 97.403104 41.947129 
C 97.403104 40.108829 96.67274 38.345573 95.372865 37.045698 
C 94.07299 35.745823 92.309734 35.015459 90.471434 35.015459 
C 88.633133 35.015459 86.869877 35.745823 85.570002 37.045698 
C 84.270128 38.345573 83.539763 40.108829 83.539763 41.947129 
C 83.539763 43.78543 84.270128 45.548686 85.570002 46.848561 
C 86.869877 48.148436 88.633133 48.8788 90.471434 48.8788 
z
" clip-path="url(#p0cfa3853ab)" style="fill: #d62728; fill-opacity: 0.55; stroke: #d62728; stroke-opacity: 0.55"/>
    <path d="M 89.675005 48.066802 
C 91.513306 48.066802 93.276562 47.336438 94.576436 46.036563 
C 95.876311 44.736688 96.606676 42.973432 96.606676 41.135131 
C 96.606676 39.296831 95.876311 37.533575 94.576436 36.2337 
C 93.276562 34.933825 91.513306 34.203461 89.675005 34.203461 
C 87.836704 34.203461 86.073448 34.933825 84.773574 36.2337 
C 83.473699 37.533575 82.743334 39.296831 82.743334 41.135131 
C 82.743334 42.973432 83.473699 44.736688 84.773574 46.036563 
C 86.073448 47.336438 87.836704 48.066802 89.675005 48.066802 
z
" clip-path="url(#p0cfa3853ab)" style="fill: #d62728; fill-opacity: 0.55; stroke: #d62728; stroke-opacity: 0.55"/>
    <path d="M 99.809795 70.858335 
C 101.096631 70.858335 102.330934 70.34707 103.240864 69.43714 
C 104.150794 68.52721 104.662059 67.292906 104.662059 66.006071 
C 104.662059 64.719236 104.150794 63.484933 103.240864 62.575003 
C 102.330934 61.665073 101.096631 61.153807 99.809795 61.153807 
C 98.52296 61.153807 97.288657 61.665073 96.378727 62.575003 
C 95.468797 63.484933 94.957532 64.719236 94.957532 66.006071 
C 94.957532 67.292906 95.468797 68.52721 96.378727 69.43714 
C 97.288657 70.34707 98.52296 70.858335 99.809795 70.858335 
z
" clip-path="url(#p0cfa3853ab)" style="fill: #d62728; fill-opacity: 0.55; stroke: #d62728; stroke-opacity: 0.55"/>
    <path d="M 77.905603 77.761294 
C 79.192438 77.761294 80.426741 77.250029 81.336671 76.340099 
C 82.246601 75.430169 82.757867 74.195866 82.757867 72.90903 
C 82.757867 71.622195 82.246601 70.387892 81.336671 69.477962 
C 80.426741 68.568032 79.192438 68.056767 77.905603 68.056767 
C 76.618768 68.056767 75.384464 68.568032 74.474534 69.477962 
C 73.564604 70.387892 73.053339 71.622195 73.053339 72.90903 
C 73.053339 74.195866 73.564604 75.430169 74.474534 76.340099 
C 75.384464 77.250029 76.618768 77.761294 77.905603 77.761294 
z
" clip-path="url(#p0cfa3853ab)" style="fill: #d62728; fill-opacity: 0.55; stroke: #d62728; stroke-opacity: 0.55"/>
    <path d="M 78.330338 134.730428 
C 79.617174 134.730428 80.851477 134.219163 81.761407 133.309233 
C 82.671337 132.399303 83.182602 131.165 83.182602 129.878164 
C 83.182602 128.591329 82.671337 127.357026 81.761407 126.447096 
C 80.851477 125.537166 79.617174 125.025901 78.330338 125.025901 
C 77.043503 125.025901 75.8092 125.537166 74.89927 126.447096 
C 73.98934 127.357026 73.478075 128.591329 73.478075 129.878164 
C 73.478075 131.165 73.98934 132.399303 74.89927 133.309233 
C 75.8092 134.219163 77.043503 134.730428 78.330338 134.730428 
z
" clip-path="url(#p0cfa3853ab)" style="fill: #d62728; fill-opacity: 0.55; stroke: #d62728; stroke-opacity: 0.55"/>
    <path d="M 79.013554 131.428988 
C 80.300389 131.428988 81.534693 130.917722 82.444623 130.007792 
C 83.354553 129.097862 83.865818 127.863559 83.865818 126.576724 
C 83.865818 125.289889 83.354553 124.055585 82.444623 123.145655 
C 81.534693 122.235725 80.300389 121.72446 79.013554 121.72446 
C 77.726719 121.72446 76.492416 122.235725 75.582486 123.145655 
C 74.672556 124.055585 74.16129 125.289889 74.16129 126.576724 
C 74.16129 127.863559 74.672556 129.097862 75.582486 130.007792 
C 76.492416 130.917722 77.726719 131.428988 79.013554 131.428988 
z
" clip-path="url(#p0cfa3853ab)" style="fill: #d62728; fill-opacity: 0.55; stroke: #d62728; stroke-opacity: 0.55"/>
    <path d="M 78.273472 94.962789 
C 79.560308 94.962789 80.794611 94.451524 81.704541 93.541594 
C 82.614471 92.631664 83.125736 91.397361 83.125736 90.110525 
C 83.125736 88.82369 82.614471 87.589387 81.704541 86.679457 
C 80.794611 85.769527 79.560308 85.258262 78.273472 85.258262 
C 76.986637 85.258262 75.752334 85.769527 74.842404 86.679457 
C 73.932474 87.589387 73.421209 88.82369 73.421209 90.110525 
C 73.421209 91.397361 73.932474 92.631664 74.842404 93.541594 
C 75.752334 94.451524 76.986637 94.962789 78.273472 94.962789 
z
" clip-path="url(#p0cfa3853ab)" style="fill: #d62728; fill-opacity: 0.55; stroke: #d62728; stroke-opacity: 0.55"/>
    <path d="M 78.418451 74.415126 
C 79.705286 74.415126 80.939589 73.903861 81.849519 72.993931 
C 82.759449 72.084001 83.270714 70.849698 83.270714 69.562862 
C 83.270714 68.276027 82.759449 67.041724 81.849519 66.131794 
C 80.939589 65.221864 79.705286 64.710599 78.418451 64.710599 
C 77.131616 64.710599 75.897312 65.221864 74.987382 66.131794 
C 74.077452 67.041724 73.566187 68.276027 73.566187 69.562862 
C 73.566187 70.849698 74.077452 72.084001 74.987382 72.993931 
C 75.897312 73.903861 77.131616 74.415126 78.418451 74.415126 
z
" clip-path="url(#p0cfa3853ab)" style="fill: #d62728; fill-opacity: 0.55; stroke: #d62728; stroke-opacity: 0.55"/>
    <path d="M 78.683721 77.896655 
C 79.970556 77.896655 81.204859 77.38539 82.114789 76.47546 
C 83.024719 75.56553 83.535984 74.331227 83.535984 73.044392 
C 83.535984 71.757556 83.024719 70.523253 82.114789 69.613323 
C 81.204859 68.703393 79.970556 68.192128 78.683721 68.192128 
C 77.396885 68.192128 76.162582 68.703393 75.252652 69.613323 
C 74.342722 70.523253 73.831457 71.757556 73.831457 73.044392 
C 73.831457 74.331227 74.342722 75.56553 75.252652 76.47546 
C 76.162582 77.38539 77.396885 77.896655 78.683721 77.896655 
z
" clip-path="url(#p0cfa3853ab)" style="fill: #d62728; fill-opacity: 0.55; stroke: #d62728; stroke-opacity: 0.55"/>
    <path d="M 123.58411 42.538566 
C 125.42241 42.538566 127.185666 41.808201 128.485541 40.508326 
C 129.785416 39.208451 130.51578 37.445195 130.51578 35.606895 
C 130.51578 33.768594 129.785416 32.005338 128.485541 30.705464 
C 127.185666 29.405589 125.42241 28.675224 123.58411 28.675224 
C 121.745809 28.675224 119.982553 29.405589 118.682678 30.705464 
C 117.382804 32.005338 116.652439 33.768594 116.652439 35.606895 
C 116.652439 37.445195 117.382804 39.208451 118.682678 40.508326 
C 119.982553 41.808201 121.745809 42.538566 123.58411 42.538566 
z
" clip-path="url(#p0cfa3853ab)" style="fill: #d62728; fill-opacity: 0.55; stroke: #d62728; stroke-opacity: 0.55"/>
    <path d="M 90.914678 109.856263 
C 92.752978 109.856263 94.516234 109.125899 95.816109 107.826024 
C 97.115984 106.526149 97.846348 104.762893 97.846348 102.924593 
C 97.846348 101.086292 97.115984 99.323036 95.816109 98.023161 
C 94.516234 96.723287 92.752978 95.992922 90.914678 95.992922 
C 89.076377 95.992922 87.313121 96.723287 86.013246 98.023161 
C 84.713371 99.323036 83.983007 101.086292 83.983007 102.924593 
C 83.983007 104.762893 84.713371 106.526149 86.013246 107.826024 
C 87.313121 109.125899 89.076377 109.856263 90.914678 109.856263 
z
" clip-path="url(#p0cfa3853ab)" style="fill: #d62728; fill-opacity: 0.55; stroke: #d62728; stroke-opacity: 0.55"/>
    <path d="M 90.427628 61.183982 
C 92.302897 61.183982 94.101612 60.438929 95.427628 59.112914 
C 96.753643 57.786898 97.498695 55.988183 97.498695 54.112914 
C 97.498695 52.237645 96.753643 50.438929 95.427628 49.112914 
C 94.101612 47.786898 92.302897 47.041846 90.427628 47.041846 
C 88.552358 47.041846 86.753643 47.786898 85.427628 49.112914 
C 84.101612 50.438929 83.35656 52.237645 83.35656 54.112914 
C 83.35656 55.988183 84.101612 57.786898 85.427628 59.112914 
C 86.753643 60.438929 88.552358 61.183982 90.427628 61.183982 
z
" clip-path="url(#p0cfa3853ab)" style="fill: #d62728; fill-opacity: 0.55; stroke: #d62728; stroke-opacity: 0.55"/>
    <path d="M 89.379856 42.484341 
C 91.218157 42.484341 92.981413 41.753977 94.281288 40.454102 
C 95.581163 39.154227 96.311527 37.390971 96.311527 35.55267 
C 96.311527 33.71437 95.581163 31.951114 94.281288 30.651239 
C 92.981413 29.351364 91.218157 28.621 89.379856 28.621 
C 87.541556 28.621 85.7783 29.351364 84.478425 30.651239 
C 83.17855 31.951114 82.448186 33.71437 82.448186 35.55267 
C 82.448186 37.390971 83.17855 39.154227 84.478425 40.454102 
C 85.7783 41.753977 87.541556 42.484341 89.379856 42.484341 
z
" clip-path="url(#p0cfa3853ab)" style="fill: #d62728; fill-opacity: 0.55; stroke: #d62728; stroke-opacity: 0.55"/>
    <path d="M 79.622052 72.620857 
C 81.497321 72.620857 83.296037 71.875805 84.622052 70.54979 
C 85.948068 69.223774 86.69312 67.425059 86.69312 65.54979 
C 86.69312 63.67452 85.948068 61.875805 84.622052 60.54979 
C 83.296037 59.223774 81.497321 58.478722 79.622052 58.478722 
C 77.746783 58.478722 75.948068 59.223774 74.622052 60.54979 
C 73.296037 61.875805 72.550984 63.67452 72.550984 65.54979 
C 72.550984 67.425059 73.296037 69.223774 74.622052 70.54979 
C 75.948068 71.875805 77.746783 72.620857 79.622052 72.620857 
z
" clip-path="url(#p0cfa3853ab)" style="fill: #d62728; fill-opacity: 0.55; stroke: #d62728; stroke-opacity: 0.55"/>
    <path d="M 80.81605 60.916374 
C 82.691319 60.916374 84.490035 60.171322 85.81605 58.845306 
C 87.142066 57.519291 87.887118 55.720575 87.887118 53.845306 
C 87.887118 51.970037 87.142066 50.171322 85.81605 48.845306 
C 84.490035 47.519291 82.691319 46.774238 80.81605 46.774238 
C 78.940781 46.774238 77.142066 47.519291 75.81605 48.845306 
C 74.490035 50.171322 73.744982 51.970037 73.744982 53.845306 
C 73.744982 55.720575 74.490035 57.519291 75.81605 58.845306 
C 77.142066 60.171322 78.940781 60.916374 80.81605 60.916374 
z
" clip-path="url(#p0cfa3853ab)" style="fill: #d62728; fill-opacity: 0.55; stroke: #d62728; stroke-opacity: 0.55"/>
    <path d="M 79.574936 110.171732 
C 81.450205 110.171732 83.248921 109.426679 84.574936 108.100664 
C 85.900952 106.774648 86.646004 104.975933 86.646004 103.100664 
C 86.646004 101.225395 85.900952 99.426679 84.574936 98.100664 
C 83.248921 96.774648 81.450205 96.029596 79.574936 96.029596 
C 77.699667 96.029596 75.900952 96.774648 74.574936 98.100664 
C 73.248921 99.426679 72.503868 101.225395 72.503868 103.100664 
C 72.503868 104.975933 73.248921 106.774648 74.574936 108.100664 
C 75.900952 109.426679 77.699667 110.171732 79.574936 110.171732 
z
" clip-path="url(#p0cfa3853ab)" style="fill: #d62728; fill-opacity: 0.55; stroke: #d62728; stroke-opacity: 0.55"/>
    <path d="M 709.557614 128.90025 
C 710.804693 128.90025 712.000863 128.40478 712.882681 127.522962 
C 713.7645 126.641144 714.25997 125.444974 714.25997 124.197894 
C 714.25997 122.950815 713.7645 121.754645 712.882681 120.872826 
C 712.000863 119.991008 710.804693 119.495538 709.557614 119.495538 
C 708.310534 119.495538 707.114364 119.991008 706.232546 120.872826 
C 705.350728 121.754645 704.855258 122.950815 704.855258 124.197894 
C 704.855258 125.444974 705.350728 126.641144 706.232546 127.522962 
C 707.114364 128.40478 708.310534 128.90025 709.557614 128.90025 
z
" clip-path="url(#p0cfa3853ab)" style="fill: #d62728; fill-opacity: 0.55; stroke: #d62728; stroke-opacity: 0.55"/>
   </g>
   <g id="PathCollection_2">
    <path d="M 78.050003 183.162961 
C 78.822523 183.162961 79.563506 182.856035 80.10976 182.309781 
C 80.656013 181.763528 80.962939 181.022544 80.962939 180.250025 
C 80.962939 179.477505 80.656013 178.736522 80.10976 178.190268 
C 79.563506 177.644014 78.822523 177.337089 78.050003 177.337089 
C 77.277483 177.337089 76.5365 177.644014 75.990246 178.190268 
C 75.443992 178.736522 75.137067 179.477505 75.137067 180.250025 
C 75.137067 181.022544 75.443992 181.763528 75.990246 182.309781 
C 76.5365 182.856035 77.277483 183.162961 78.050003 183.162961 
z
" clip-path="url(#p0cfa3853ab)" style="fill: #1f77b4; fill-opacity: 0.55; stroke: #1f77b4; stroke-opacity: 0.55"/>
    <path d="M 77.3194 117.712188 
C 77.924063 117.712188 78.504041 117.471954 78.931601 117.044393 
C 79.359162 116.616832 79.599397 116.036854 79.599397 115.432192 
C 79.599397 114.82753 79.359162 114.247552 78.931601 113.819991 
C 78.504041 113.39243 77.924063 113.152195 77.3194 113.152195 
C 76.714738 113.152195 76.13476 113.39243 75.707199 113.819991 
C 75.279639 114.247552 75.039404 114.82753 75.039404 115.432192 
C 75.039404 116.036854 75.279639 116.616832 75.707199 117.044393 
C 76.13476 117.471954 76.714738 117.712188 77.3194 117.712188 
z
" clip-path="url(#p0cfa3853ab)" style="fill: #1f77b4; fill-opacity: 0.55; stroke: #1f77b4; stroke-opacity: 0.55"/>
    <path d="M 76.892824 109.883682 
C 77.425424 109.883682 77.936281 109.672078 78.312886 109.295474 
C 78.689491 108.918869 78.901095 108.408012 78.901095 107.875412 
C 78.901095 107.342812 78.689491 106.831955 78.312886 106.45535 
C 77.936281 106.078746 77.425424 105.867141 76.892824 105.867141 
C 76.360225 105.867141 75.849367 106.078746 75.472763 106.45535 
C 75.096158 106.831955 74.884554 107.342812 74.884554 107.875412 
C 74.884554 108.408012 75.096158 108.918869 75.472763 109.295474 
C 75.849367 109.672078 76.360225 109.883682 76.892824 109.883682 
z
" clip-path="url(#p0cfa3853ab)" style="fill: #1f77b4; fill-opacity: 0.55; stroke: #1f77b4; stroke-opacity: 0.55"/>
    <path d="M 78.528418 108.505169 
C 79.13308 108.505169 79.713059 108.264934 80.140619 107.837374 
C 80.56818 107.409813 80.808415 106.829835 80.808415 106.225173 
C 80.808415 105.62051 80.56818 105.040532 80.140619 104.612972 
C 79.713059 104.185411 79.13308 103.945176 78.528418 103.945176 
C 77.923756 103.945176 77.343778 104.185411 76.916217 104.612972 
C 76.488657 105.040532 76.248422 105.62051 76.248422 106.225173 
C 76.248422 106.829835 76.488657 107.409813 76.916217 107.837374 
C 77.343778 108.264934 77.923756 108.505169 78.528418 108.505169 
z
" clip-path="url(#p0cfa3853ab)" style="fill: #1f77b4; fill-opacity: 0.55; stroke: #1f77b4; stroke-opacity: 0.55"/>
    <path d="M 77.226445 91.570713 
C 77.831107 91.570713 78.411085 91.330478 78.838646 90.902918 
C 79.266207 90.475357 79.506442 89.895379 79.506442 89.290717 
C 79.506442 88.686054 79.266207 88.106076 78.838646 87.678516 
C 78.411085 87.250955 77.831107 87.01072 77.226445 87.01072 
C 76.621783 87.01072 76.041805 87.250955 75.614244 87.678516 
C 75.186683 88.106076 74.946448 88.686054 74.946448 89.290717 
C 74.946448 89.895379 75.186683 90.475357 75.614244 90.902918 
C 76.041805 91.330478 76.621783 91.570713 77.226445 91.570713 
z
" clip-path="url(#p0cfa3853ab)" style="fill: #1f77b4; fill-opacity: 0.55; stroke: #1f77b4; stroke-opacity: 0.55"/>
    <path d="M 77.116051 82.751261 
C 77.720713 82.751261 78.300691 82.511026 78.728252 82.083465 
C 79.155812 81.655904 79.396047 81.075926 79.396047 80.471264 
C 79.396047 79.866602 79.155812 79.286624 78.728252 78.859063 
C 78.300691 78.431502 77.720713 78.191268 77.116051 78.191268 
C 76.511388 78.191268 75.93141 78.431502 75.50385 78.859063 
C 75.076289 79.286624 74.836054 79.866602 74.836054 80.471264 
C 74.836054 81.075926 75.076289 81.655904 75.50385 82.083465 
C 75.93141 82.511026 76.511388 82.751261 77.116051 82.751261 
z
" clip-path="url(#p0cfa3853ab)" style="fill: #1f77b4; fill-opacity: 0.55; stroke: #1f77b4; stroke-opacity: 0.55"/>
    <path d="M 77.322536 82.971243 
C 77.927198 82.971243 78.507176 82.731008 78.934737 82.303447 
C 79.362297 81.875886 79.602532 81.295908 79.602532 80.691246 
C 79.602532 80.086584 79.362297 79.506606 78.934737 79.079045 
C 78.507176 78.651484 77.927198 78.411249 77.322536 78.411249 
C 76.717874 78.411249 76.137895 78.651484 75.710335 79.079045 
C 75.282774 79.506606 75.042539 80.086584 75.042539 80.691246 
C 75.042539 81.295908 75.282774 81.875886 75.710335 82.303447 
C 76.137895 82.731008 76.717874 82.971243 77.322536 82.971243 
z
" clip-path="url(#p0cfa3853ab)" style="fill: #1f77b4; fill-opacity: 0.55; stroke: #1f77b4; stroke-opacity: 0.55"/>
    <path d="M 77.555576 82.381489 
C 78.160238 82.381489 78.740217 82.141254 79.167777 81.713694 
C 79.595338 81.286133 79.835573 80.706155 79.835573 80.101493 
C 79.835573 79.496831 79.595338 78.916852 79.167777 78.489292 
C 78.740217 78.061731 78.160238 77.821496 77.555576 77.821496 
C 76.950914 77.821496 76.370936 78.061731 75.943375 78.489292 
C 75.515814 78.916852 75.27558 79.496831 75.27558 80.101493 
C 75.27558 80.706155 75.515814 81.286133 75.943375 81.713694 
C 76.370936 82.141254 76.950914 82.381489 77.555576 82.381489 
z
" clip-path="url(#p0cfa3853ab)" style="fill: #1f77b4; fill-opacity: 0.55; stroke: #1f77b4; stroke-opacity: 0.55"/>
    <path d="M 78.342246 89.716587 
C 78.874845 89.716587 79.385703 89.504983 79.762307 89.128378 
C 80.138912 88.751773 80.350516 88.240916 80.350516 87.708316 
C 80.350516 87.175717 80.138912 86.664859 79.762307 86.288255 
C 79.385703 85.91165 78.874845 85.700046 78.342246 85.700046 
C 77.809646 85.700046 77.298789 85.91165 76.922184 86.288255 
C 76.545579 86.664859 76.333975 87.175717 76.333975 87.708316 
C 76.333975 88.240916 76.545579 88.751773 76.922184 89.128378 
C 77.298789 89.504983 77.809646 89.716587 78.342246 89.716587 
z
" clip-path="url(#p0cfa3853ab)" style="fill: #1f77b4; fill-opacity: 0.55; stroke: #1f77b4; stroke-opacity: 0.55"/>
    <path d="M 76.8769 119.089726 
C 77.4095 119.089726 77.920357 118.878122 78.296962 118.501518 
C 78.673567 118.124913 78.885171 117.614055 78.885171 117.081456 
C 78.885171 116.548856 78.673567 116.037999 78.296962 115.661394 
C 77.920357 115.284789 77.4095 115.073185 76.8769 115.073185 
C 76.344301 115.073185 75.833443 115.284789 75.456839 115.661394 
C 75.080234 116.037999 74.86863 116.548856 74.86863 117.081456 
C 74.86863 117.614055 75.080234 118.124913 75.456839 118.501518 
C 75.833443 118.878122 76.344301 119.089726 76.8769 119.089726 
z
" clip-path="url(#p0cfa3853ab)" style="fill: #1f77b4; fill-opacity: 0.55; stroke: #1f77b4; stroke-opacity: 0.55"/>
    <path d="M 76.727685 90.25487 
C 77.260285 90.25487 77.771142 90.043266 78.147747 89.666662 
C 78.524351 89.290057 78.735955 88.7792 78.735955 88.2466 
C 78.735955 87.714 78.524351 87.203143 78.147747 86.826538 
C 77.771142 86.449934 77.260285 86.238329 76.727685 86.238329 
C 76.195085 86.238329 75.684228 86.449934 75.307623 86.826538 
C 74.931019 87.203143 74.719414 87.714 74.719414 88.2466 
C 74.719414 88.7792 74.931019 89.290057 75.307623 89.666662 
C 75.684228 90.043266 76.195085 90.25487 76.727685 90.25487 
z
" clip-path="url(#p0cfa3853ab)" style="fill: #1f77b4; fill-opacity: 0.55; stroke: #1f77b4; stroke-opacity: 0.55"/>
    <path d="M 76.833847 94.562137 
C 77.366447 94.562137 77.877304 94.350533 78.253909 93.973928 
C 78.630513 93.597324 78.842117 93.086466 78.842117 92.553867 
C 78.842117 92.021267 78.630513 91.51041 78.253909 91.133805 
C 77.877304 90.7572 77.366447 90.545596 76.833847 90.545596 
C 76.301247 90.545596 75.79039 90.7572 75.413785 91.133805 
C 75.037181 91.51041 74.825576 92.021267 74.825576 92.553867 
C 74.825576 93.086466 75.037181 93.597324 75.413785 93.973928 
C 75.79039 94.350533 76.301247 94.562137 76.833847 94.562137 
z
" clip-path="url(#p0cfa3853ab)" style="fill: #1f77b4; fill-opacity: 0.55; stroke: #1f77b4; stroke-opacity: 0.55"/>
    <path d="M 76.951581 89.716587 
C 77.484181 89.716587 77.995038 89.504983 78.371643 89.128378 
C 78.748248 88.751773 78.959852 88.240916 78.959852 87.708316 
C 78.959852 87.175717 78.748248 86.664859 78.371643 86.288255 
C 77.995038 85.91165 77.484181 85.700046 76.951581 85.700046 
C 76.418982 85.700046 75.908124 85.91165 75.53152 86.288255 
C 75.154915 86.664859 74.943311 87.175717 74.943311 87.708316 
C 74.943311 88.240916 75.154915 88.751773 75.53152 89.128378 
C 75.908124 89.504983 76.418982 89.716587 76.951581 89.716587 
z
" clip-path="url(#p0cfa3853ab)" style="fill: #1f77b4; fill-opacity: 0.55; stroke: #1f77b4; stroke-opacity: 0.55"/>
    <path d="M 76.830767 88.632169 
C 77.363366 88.632169 77.874224 88.420565 78.250829 88.04396 
C 78.627433 87.667356 78.839037 87.156498 78.839037 86.623899 
C 78.839037 86.091299 78.627433 85.580442 78.250829 85.203837 
C 77.874224 84.827232 77.363366 84.615628 76.830767 84.615628 
C 76.298167 84.615628 75.78731 84.827232 75.410705 85.203837 
C 75.0341 85.580442 74.822496 86.091299 74.822496 86.623899 
C 74.822496 87.156498 75.0341 87.667356 75.410705 88.04396 
C 75.78731 88.420565 76.298167 88.632169 76.830767 88.632169 
z
" clip-path="url(#p0cfa3853ab)" style="fill: #1f77b4; fill-opacity: 0.55; stroke: #1f77b4; stroke-opacity: 0.55"/>
    <path d="M 76.15205 99.060611 
C 76.556387 99.060611 76.944219 98.899966 77.230129 98.614056 
C 77.516039 98.328146 77.676684 97.940315 77.676684 97.535977 
C 77.676684 97.131639 77.516039 96.743807 77.230129 96.457897 
C 76.944219 96.171987 76.556387 96.011342 76.15205 96.011342 
C 75.747712 96.011342 75.35988 96.171987 75.07397 96.457897 
C 74.78806 96.743807 74.627415 97.131639 74.627415 97.535977 
C 74.627415 97.940315 74.78806 98.328146 75.07397 98.614056 
C 75.35988 98.899966 75.747712 99.060611 76.15205 99.060611 
z
" clip-path="url(#p0cfa3853ab)" style="fill: #1f77b4; fill-opacity: 0.55; stroke: #1f77b4; stroke-opacity: 0.55"/>
    <path d="M 79.430444 89.865969 
C 79.834782 89.865969 80.222614 89.705324 80.508524 89.419414 
C 80.794434 89.133504 80.955079 88.745672 80.955079 88.341334 
C 80.955079 87.936997 80.794434 87.549165 80.508524 87.263255 
C 80.222614 86.977345 79.834782 86.8167 79.430444 86.8167 
C 79.026107 86.8167 78.638275 86.977345 78.352365 87.263255 
C 78.066455 87.549165 77.90581 87.936997 77.90581 88.341334 
C 77.90581 88.745672 78.066455 89.133504 78.352365 89.419414 
C 78.638275 89.705324 79.026107 89.865969 79.430444 89.865969 
z
" clip-path="url(#p0cfa3853ab)" style="fill: #1f77b4; fill-opacity: 0.55; stroke: #1f77b4; stroke-opacity: 0.55"/>
    <path d="M 76.170099 115.136282 
C 76.574437 115.136282 76.962268 114.975636 77.248178 114.689726 
C 77.534088 114.403816 77.694734 114.015985 77.694734 113.611647 
C 77.694734 113.207309 77.534088 112.819478 77.248178 112.533568 
C 76.962268 112.247658 76.574437 112.087012 76.170099 112.087012 
C 75.765761 112.087012 75.37793 112.247658 75.09202 112.533568 
C 74.80611 112.819478 74.645465 113.207309 74.645465 113.611647 
C 74.645465 114.015985 74.80611 114.403816 75.09202 114.689726 
C 75.37793 114.975636 75.765761 115.136282 76.170099 115.136282 
z
" clip-path="url(#p0cfa3853ab)" style="fill: #1f77b4; fill-opacity: 0.55; stroke: #1f77b4; stroke-opacity: 0.55"/>
    <path d="M 76.27538 124.901623 
C 76.679717 124.901623 77.067549 124.740978 77.353459 124.455068 
C 77.639369 124.169158 77.800014 123.781327 77.800014 123.376989 
C 77.800014 122.972651 77.639369 122.584819 77.353459 122.298909 
C 77.067549 122.012999 76.679717 121.852354 76.27538 121.852354 
C 75.871042 121.852354 75.48321 122.012999 75.1973 122.298909 
C 74.91139 122.584819 74.750745 122.972651 74.750745 123.376989 
C 74.750745 123.781327 74.91139 124.169158 75.1973 124.455068 
C 75.48321 124.740978 75.871042 124.901623 76.27538 124.901623 
z
" clip-path="url(#p0cfa3853ab)" style="fill: #1f77b4; fill-opacity: 0.55; stroke: #1f77b4; stroke-opacity: 0.55"/>
    <path d="M 76.540819 94.123408 
C 76.945157 94.123408 77.332989 93.962763 77.618899 93.676853 
C 77.904809 93.390943 78.065454 93.003111 78.065454 92.598774 
C 78.065454 92.194436 77.904809 91.806604 77.618899 91.520694 
C 77.332989 91.234784 76.945157 91.074139 76.540819 91.074139 
C 76.136481 91.074139 75.74865 91.234784 75.46274 91.520694 
C 75.17683 91.806604 75.016185 92.194436 75.016185 92.598774 
C 75.016185 93.003111 75.17683 93.390943 75.46274 93.676853 
C 75.74865 93.962763 76.136481 94.123408 76.540819 94.123408 
z
" clip-path="url(#p0cfa3853ab)" style="fill: #1f77b4; fill-opacity: 0.55; stroke: #1f77b4; stroke-opacity: 0.55"/>
    <path d="M 75.90824 91.330847 
C 76.312578 91.330847 76.700409 91.170202 76.986319 90.884292 
C 77.272229 90.598382 77.432875 90.21055 77.432875 89.806213 
C 77.432875 89.401875 77.272229 89.014043 76.986319 88.728133 
C 76.700409 88.442223 76.312578 88.281578 75.90824 88.281578 
C 75.503902 88.281578 75.116071 88.442223 74.830161 88.728133 
C 74.544251 89.014043 74.383605 89.401875 74.383605 89.806213 
C 74.383605 90.21055 74.544251 90.598382 74.830161 90.884292 
C 75.116071 91.170202 75.503902 91.330847 75.90824 91.330847 
z
" clip-path="url(#p0cfa3853ab)" style="fill: #1f77b4; fill-opacity: 0.55; stroke: #1f77b4; stroke-opacity: 0.55"/>
    <path d="M 76.377222 124.646313 
C 76.78156 124.646313 77.169392 124.485668 77.455302 124.199758 
C 77.741212 123.913848 77.901857 123.526016 77.901857 123.121679 
C 77.901857 122.717341 77.741212 122.329509 77.455302 122.043599 
C 77.169392 121.757689 76.78156 121.597044 76.377222 121.597044 
C 75.972884 121.597044 75.585053 121.757689 75.299143 122.043599 
C 75.013233 122.329509 74.852588 122.717341 74.852588 123.121679 
C 74.852588 123.526016 75.013233 123.913848 75.299143 124.199758 
C 75.585053 124.485668 75.972884 124.646313 76.377222 124.646313 
z
" clip-path="url(#p0cfa3853ab)" style="fill: #1f77b4; fill-opacity: 0.55; stroke: #1f77b4; stroke-opacity: 0.55"/>
    <path d="M 76.226878 117.907307 
C 76.631215 117.907307 77.019047 117.746662 77.304957 117.460752 
C 77.590867 117.174842 77.751512 116.78701 77.751512 116.382672 
C 77.751512 115.978334 77.590867 115.590503 77.304957 115.304593 
C 77.019047 115.018683 76.631215 114.858038 76.226878 114.858038 
C 75.82254 114.858038 75.434708 115.018683 75.148798 115.304593 
C 74.862888 115.590503 74.702243 115.978334 74.702243 116.382672 
C 74.702243 116.78701 74.862888 117.174842 75.148798 117.460752 
C 75.434708 117.746662 75.82254 117.907307 76.226878 117.907307 
z
" clip-path="url(#p0cfa3853ab)" style="fill: #1f77b4; fill-opacity: 0.55; stroke: #1f77b4; stroke-opacity: 0.55"/>
    <path d="M 76.127555 92.934003 
C 76.531893 92.934003 76.919725 92.773358 77.205635 92.487448 
C 77.491545 92.201538 77.65219 91.813707 77.65219 91.409369 
C 77.65219 91.005031 77.491545 90.6172 77.205635 90.33129 
C 76.919725 90.04538 76.531893 89.884734 76.127555 89.884734 
C 75.723217 89.884734 75.335386 90.04538 75.049476 90.33129 
C 74.763566 90.6172 74.602921 91.005031 74.602921 91.409369 
C 74.602921 91.813707 74.763566 92.201538 75.049476 92.487448 
C 75.335386 92.773358 75.723217 92.934003 76.127555 92.934003 
z
" clip-path="url(#p0cfa3853ab)" style="fill: #1f77b4; fill-opacity: 0.55; stroke: #1f77b4; stroke-opacity: 0.55"/>
    <path d="M 76.237853 86.650863 
C 76.642191 86.650863 77.030023 86.490218 77.315933 86.204308 
C 77.601843 85.918398 77.762488 85.530566 77.762488 85.126229 
C 77.762488 84.721891 77.601843 84.334059 77.315933 84.048149 
C 77.030023 83.762239 76.642191 83.601594 76.237853 83.601594 
C 75.833515 83.601594 75.445684 83.762239 75.159774 84.048149 
C 74.873864 84.334059 74.713219 84.721891 74.713219 85.126229 
C 74.713219 85.530566 74.873864 85.918398 75.159774 86.204308 
C 75.445684 86.490218 75.833515 86.650863 76.237853 86.650863 
z
" clip-path="url(#p0cfa3853ab)" style="fill: #1f77b4; fill-opacity: 0.55; stroke: #1f77b4; stroke-opacity: 0.55"/>
    <path d="M 76.201047 89.854554 
C 76.605385 89.854554 76.993217 89.693909 77.279127 89.407999 
C 77.565037 89.122089 77.725682 88.734257 77.725682 88.329919 
C 77.725682 87.925582 77.565037 87.53775 77.279127 87.25184 
C 76.993217 86.96593 76.605385 86.805285 76.201047 86.805285 
C 75.79671 86.805285 75.408878 86.96593 75.122968 87.25184 
C 74.837058 87.53775 74.676413 87.925582 74.676413 88.329919 
C 74.676413 88.734257 74.837058 89.122089 75.122968 89.407999 
C 75.408878 89.693909 75.79671 89.854554 76.201047 89.854554 
z
" clip-path="url(#p0cfa3853ab)" style="fill: #1f77b4; fill-opacity: 0.55; stroke: #1f77b4; stroke-opacity: 0.55"/>
    <path d="M 76.110869 96.811024 
C 76.515207 96.811024 76.903039 96.650379 77.188949 96.364469 
C 77.474859 96.078559 77.635504 95.690727 77.635504 95.286389 
C 77.635504 94.882051 77.474859 94.49422 77.188949 94.20831 
C 76.903039 93.9224 76.515207 93.761755 76.110869 93.761755 
C 75.706531 93.761755 75.3187 93.9224 75.03279 94.20831 
C 74.74688 94.49422 74.586235 94.882051 74.586235 95.286389 
C 74.586235 95.690727 74.74688 96.078559 75.03279 96.364469 
C 75.3187 96.650379 75.706531 96.811024 76.110869 96.811024 
z
" clip-path="url(#p0cfa3853ab)" style="fill: #1f77b4; fill-opacity: 0.55; stroke: #1f77b4; stroke-opacity: 0.55"/>
    <path d="M 76.429566 94.535062 
C 76.833904 94.535062 77.221736 94.374417 77.507646 94.088507 
C 77.793556 93.802597 77.954201 93.414765 77.954201 93.010428 
C 77.954201 92.60609 77.793556 92.218258 77.507646 91.932348 
C 77.221736 91.646438 76.833904 91.485793 76.429566 91.485793 
C 76.025229 91.485793 75.637397 91.646438 75.351487 91.932348 
C 75.065577 92.218258 74.904932 92.60609 74.904932 93.010428 
C 74.904932 93.414765 75.065577 93.802597 75.351487 94.088507 
C 75.637397 94.374417 76.025229 94.535062 76.429566 94.535062 
z
" clip-path="url(#p0cfa3853ab)" style="fill: #1f77b4; fill-opacity: 0.55; stroke: #1f77b4; stroke-opacity: 0.55"/>
    <path d="M 78.880332 92.876385 
C 79.284669 92.876385 79.672501 92.71574 79.958411 92.42983 
C 80.244321 92.14392 80.404966 91.756089 80.404966 91.351751 
C 80.404966 90.947413 80.244321 90.559581 79.958411 90.273671 
C 79.672501 89.987761 79.284669 89.827116 78.880332 89.827116 
C 78.475994 89.827116 78.088162 89.987761 77.802252 90.273671 
C 77.516342 90.559581 77.355697 90.947413 77.355697 91.351751 
C 77.355697 91.756089 77.516342 92.14392 77.802252 92.42983 
C 78.088162 92.71574 78.475994 92.876385 78.880332 92.876385 
z
" clip-path="url(#p0cfa3853ab)" style="fill: #1f77b4; fill-opacity: 0.55; stroke: #1f77b4; stroke-opacity: 0.55"/>
    <path d="M 76.421731 96.062121 
C 76.826068 96.062121 77.2139 95.901476 77.49981 95.615566 
C 77.78572 95.329656 77.946365 94.941824 77.946365 94.537487 
C 77.946365 94.133149 77.78572 93.745317 77.49981 93.459407 
C 77.2139 93.173497 76.826068 93.012852 76.421731 93.012852 
C 76.017393 93.012852 75.629561 93.173497 75.343651 93.459407 
C 75.057741 93.745317 74.897096 94.133149 74.897096 94.537487 
C 74.897096 94.941824 75.057741 95.329656 75.343651 95.615566 
C 75.629561 95.901476 76.017393 96.062121 76.421731 96.062121 
z
" clip-path="url(#p0cfa3853ab)" style="fill: #1f77b4; fill-opacity: 0.55; stroke: #1f77b4; stroke-opacity: 0.55"/>
    <path d="M 76.621234 92.478473 
C 77.025572 92.478473 77.413403 92.317827 77.699313 92.031917 
C 77.985223 91.746007 78.145868 91.358176 78.145868 90.953838 
C 78.145868 90.5495 77.985223 90.161669 77.699313 89.875759 
C 77.413403 89.589849 77.025572 89.429204 76.621234 89.429204 
C 76.216896 89.429204 75.829064 89.589849 75.543154 89.875759 
C 75.257244 90.161669 75.096599 90.5495 75.096599 90.953838 
C 75.096599 91.358176 75.257244 91.746007 75.543154 92.031917 
C 75.829064 92.317827 76.216896 92.478473 76.621234 92.478473 
z
" clip-path="url(#p0cfa3853ab)" style="fill: #1f77b4; fill-opacity: 0.55; stroke: #1f77b4; stroke-opacity: 0.55"/>
    <path d="M 76.576996 117.376456 
C 76.981334 117.376456 77.369166 117.215811 77.655075 116.929901 
C 77.940985 116.643991 78.101631 116.25616 78.101631 115.851822 
C 78.101631 115.447484 77.940985 115.059652 77.655075 114.773742 
C 77.369166 114.487832 76.981334 114.327187 76.576996 114.327187 
C 76.172658 114.327187 75.784827 114.487832 75.498917 114.773742 
C 75.213007 115.059652 75.052362 115.447484 75.052362 115.851822 
C 75.052362 116.25616 75.213007 116.643991 75.498917 116.929901 
C 75.784827 117.215811 76.172658 117.376456 76.576996 117.376456 
z
" clip-path="url(#p0cfa3853ab)" style="fill: #1f77b4; fill-opacity: 0.55; stroke: #1f77b4; stroke-opacity: 0.55"/>
    <path d="M 76.944586 102.586091 
C 77.348923 102.586091 77.736755 102.425446 78.022665 102.139536 
C 78.308575 101.853626 78.46922 101.465795 78.46922 101.061457 
C 78.46922 100.657119 78.308575 100.269287 78.022665 99.983377 
C 77.736755 99.697467 77.348923 99.536822 76.944586 99.536822 
C 76.540248 99.536822 76.152416 99.697467 75.866506 99.983377 
C 75.580596 100.269287 75.419951 100.657119 75.419951 101.061457 
C 75.419951 101.465795 75.580596 101.853626 75.866506 102.139536 
C 76.152416 102.425446 76.540248 102.586091 76.944586 102.586091 
z
" clip-path="url(#p0cfa3853ab)" style="fill: #1f77b4; fill-opacity: 0.55; stroke: #1f77b4; stroke-opacity: 0.55"/>
    <path d="M 82.561988 92.478473 
C 82.966326 92.478473 83.354157 92.317827 83.640067 92.031917 
C 83.925977 91.746007 84.086623 91.358176 84.086623 90.953838 
C 84.086623 90.5495 83.925977 90.161669 83.640067 89.875759 
C 83.354157 89.589849 82.966326 89.429204 82.561988 89.429204 
C 82.15765 89.429204 81.769819 89.589849 81.483909 89.875759 
C 81.197999 90.161669 81.037354 90.5495 81.037354 90.953838 
C 81.037354 91.358176 81.197999 91.746007 81.483909 92.031917 
C 81.769819 92.317827 82.15765 92.478473 82.561988 92.478473 
z
" clip-path="url(#p0cfa3853ab)" style="fill: #1f77b4; fill-opacity: 0.55; stroke: #1f77b4; stroke-opacity: 0.55"/>
    <path d="M 76.578194 123.901274 
C 76.982532 123.901274 77.370364 123.740629 77.656274 123.454719 
C 77.942184 123.168809 78.102829 122.780977 78.102829 122.376639 
C 78.102829 121.972301 77.942184 121.58447 77.656274 121.29856 
C 77.370364 121.01265 76.982532 120.852005 76.578194 120.852005 
C 76.173856 120.852005 75.786025 121.01265 75.500115 121.29856 
C 75.214205 121.58447 75.05356 121.972301 75.05356 122.376639 
C 75.05356 122.780977 75.214205 123.168809 75.500115 123.454719 
C 75.786025 123.740629 76.173856 123.901274 76.578194 123.901274 
z
" clip-path="url(#p0cfa3853ab)" style="fill: #1f77b4; fill-opacity: 0.55; stroke: #1f77b4; stroke-opacity: 0.55"/>
    <path d="M 76.133027 125.245883 
C 76.625245 125.245883 77.09737 125.050322 77.445421 124.702271 
C 77.793472 124.35422 77.989032 123.882096 77.989032 123.389877 
C 77.989032 122.897659 77.793472 122.425534 77.445421 122.077484 
C 77.09737 121.729433 76.625245 121.533872 76.133027 121.533872 
C 75.640809 121.533872 75.168684 121.729433 74.820633 122.077484 
C 74.472582 122.425534 74.277022 122.897659 74.277022 123.389877 
C 74.277022 123.882096 74.472582 124.35422 74.820633 124.702271 
C 75.168684 125.050322 75.640809 125.245883 76.133027 125.245883 
z
" clip-path="url(#p0cfa3853ab)" style="fill: #1f77b4; fill-opacity: 0.55; stroke: #1f77b4; stroke-opacity: 0.55"/>
    <path d="M 76.105062 118.083968 
C 76.597281 118.083968 77.069405 117.888408 77.417456 117.540357 
C 77.765507 117.192306 77.961068 116.720182 77.961068 116.227963 
C 77.961068 115.735745 77.765507 115.26362 77.417456 114.915569 
C 77.069405 114.567518 76.597281 114.371958 76.105062 114.371958 
C 75.612844 114.371958 75.140719 114.567518 74.792668 114.915569 
C 74.444618 115.26362 74.249057 115.735745 74.249057 116.227963 
C 74.249057 116.720182 74.444618 117.192306 74.792668 117.540357 
C 75.140719 117.888408 75.612844 118.083968 76.105062 118.083968 
z
" clip-path="url(#p0cfa3853ab)" style="fill: #1f77b4; fill-opacity: 0.55; stroke: #1f77b4; stroke-opacity: 0.55"/>
    <path d="M 76.186579 121.313985 
C 76.678797 121.313985 77.150921 121.118425 77.498972 120.770374 
C 77.847023 120.422323 78.042584 119.950198 78.042584 119.45798 
C 78.042584 118.965761 77.847023 118.493637 77.498972 118.145586 
C 77.150921 117.797535 76.678797 117.601975 76.186579 117.601975 
C 75.69436 117.601975 75.222236 117.797535 74.874185 118.145586 
C 74.526134 118.493637 74.330573 118.965761 74.330573 119.45798 
C 74.330573 119.950198 74.526134 120.422323 74.874185 120.770374 
C 75.222236 121.118425 75.69436 121.313985 76.186579 121.313985 
z
" clip-path="url(#p0cfa3853ab)" style="fill: #1f77b4; fill-opacity: 0.55; stroke: #1f77b4; stroke-opacity: 0.55"/>
    <path d="M 76.271501 124.1551 
C 76.763719 124.1551 77.235844 123.95954 77.583895 123.611489 
C 77.931946 123.263438 78.127506 122.791313 78.127506 122.299095 
C 78.127506 121.806877 77.931946 121.334752 77.583895 120.986701 
C 77.235844 120.63865 76.763719 120.44309 76.271501 120.44309 
C 75.779282 120.44309 75.307158 120.63865 74.959107 120.986701 
C 74.611056 121.334752 74.415496 121.806877 74.415496 122.299095 
C 74.415496 122.791313 74.611056 123.263438 74.959107 123.611489 
C 75.307158 123.95954 75.779282 124.1551 76.271501 124.1551 
z
" clip-path="url(#p0cfa3853ab)" style="fill: #1f77b4; fill-opacity: 0.55; stroke: #1f77b4; stroke-opacity: 0.55"/>
    <path d="M 76.188571 95.574925 
C 76.592909 95.574925 76.98074 95.41428 77.26665 95.12837 
C 77.55256 94.84246 77.713205 94.454628 77.713205 94.05029 
C 77.713205 93.645953 77.55256 93.258121 77.26665 92.972211 
C 76.98074 92.686301 76.592909 92.525656 76.188571 92.525656 
C 75.784233 92.525656 75.396401 92.686301 75.110491 92.972211 
C 74.824581 93.258121 74.663936 93.645953 74.663936 94.05029 
C 74.663936 94.454628 74.824581 94.84246 75.110491 95.12837 
C 75.396401 95.41428 75.784233 95.574925 76.188571 95.574925 
z
" clip-path="url(#p0cfa3853ab)" style="fill: #1f77b4; fill-opacity: 0.55; stroke: #1f77b4; stroke-opacity: 0.55"/>
    <path d="M 76.261475 126.715604 
C 76.753694 126.715604 77.225818 126.520044 77.573869 126.171993 
C 77.92192 125.823942 78.117481 125.351817 78.117481 124.859599 
C 78.117481 124.367381 77.92192 123.895256 77.573869 123.547205 
C 77.225818 123.199154 76.753694 123.003594 76.261475 123.003594 
C 75.769257 123.003594 75.297132 123.199154 74.949082 123.547205 
C 74.601031 123.895256 74.40547 124.367381 74.40547 124.859599 
C 74.40547 125.351817 74.601031 125.823942 74.949082 126.171993 
C 75.297132 126.520044 75.769257 126.715604 76.261475 126.715604 
z
" clip-path="url(#p0cfa3853ab)" style="fill: #1f77b4; fill-opacity: 0.55; stroke: #1f77b4; stroke-opacity: 0.55"/>
    <path d="M 76.453882 127.865347 
C 76.9461 127.865347 77.418225 127.669787 77.766276 127.321736 
C 78.114327 126.973685 78.309887 126.50156 78.309887 126.009342 
C 78.309887 125.517123 78.114327 125.044999 77.766276 124.696948 
C 77.418225 124.348897 76.9461 124.153336 76.453882 124.153336 
C 75.961663 124.153336 75.489539 124.348897 75.141488 124.696948 
C 74.793437 125.044999 74.597877 125.517123 74.597877 126.009342 
C 74.597877 126.50156 74.793437 126.973685 75.141488 127.321736 
C 75.489539 127.669787 75.961663 127.865347 76.453882 127.865347 
z
" clip-path="url(#p0cfa3853ab)" style="fill: #1f77b4; fill-opacity: 0.55; stroke: #1f77b4; stroke-opacity: 0.55"/>
    <path d="M 91.628222 119.867808 
C 92.12044 119.867808 92.592565 119.672248 92.940616 119.324197 
C 93.288667 118.976146 93.484227 118.504021 93.484227 118.011803 
C 93.484227 117.519585 93.288667 117.04746 92.940616 116.699409 
C 92.592565 116.351358 92.12044 116.155798 91.628222 116.155798 
C 91.136004 116.155798 90.663879 116.351358 90.315828 116.699409 
C 89.967777 117.04746 89.772217 117.519585 89.772217 118.011803 
C 89.772217 118.504021 89.967777 118.976146 90.315828 119.324197 
C 90.663879 119.672248 91.136004 119.867808 91.628222 119.867808 
z
" clip-path="url(#p0cfa3853ab)" style="fill: #1f77b4; fill-opacity: 0.55; stroke: #1f77b4; stroke-opacity: 0.55"/>
    <path d="M 116.390068 80.633391 
C 116.99473 80.633391 117.574708 80.393156 118.002269 79.965596 
C 118.42983 79.538035 118.670064 78.958057 118.670064 78.353395 
C 118.670064 77.748732 118.42983 77.168754 118.002269 76.741194 
C 117.574708 76.313633 116.99473 76.073398 116.390068 76.073398 
C 115.785406 76.073398 115.205427 76.313633 114.777867 76.741194 
C 114.350306 77.168754 114.110071 77.748732 114.110071 78.353395 
C 114.110071 78.958057 114.350306 79.538035 114.777867 79.965596 
C 115.205427 80.393156 115.785406 80.633391 116.390068 80.633391 
z
" clip-path="url(#p0cfa3853ab)" style="fill: #1f77b4; fill-opacity: 0.55; stroke: #1f77b4; stroke-opacity: 0.55"/>
    <path d="M 75.570474 160.005254 
C 75.803198 160.005254 76.026422 159.912792 76.190983 159.748231 
C 76.355543 159.583671 76.448006 159.360447 76.448006 159.127723 
C 76.448006 158.894999 76.355543 158.671776 76.190983 158.507215 
C 76.026422 158.342654 75.803198 158.250192 75.570474 158.250192 
C 75.33775 158.250192 75.114527 158.342654 74.949966 158.507215 
C 74.785405 158.671776 74.692943 158.894999 74.692943 159.127723 
C 74.692943 159.360447 74.785405 159.583671 74.949966 159.748231 
C 75.114527 159.912792 75.33775 160.005254 75.570474 160.005254 
z
" clip-path="url(#p0cfa3853ab)" style="fill: #1f77b4; fill-opacity: 0.55; stroke: #1f77b4; stroke-opacity: 0.55"/>
    <path d="M 75.630012 160.211524 
C 75.862736 160.211524 76.085959 160.119061 76.25052 159.954501 
C 76.415081 159.78994 76.507543 159.566716 76.507543 159.333992 
C 76.507543 159.101268 76.415081 158.878045 76.25052 158.713484 
C 76.085959 158.548923 75.862736 158.456461 75.630012 158.456461 
C 75.397288 158.456461 75.174064 158.548923 75.009503 158.713484 
C 74.844943 158.878045 74.75248 159.101268 74.75248 159.333992 
C 74.75248 159.566716 74.844943 159.78994 75.009503 159.954501 
C 75.174064 160.119061 75.397288 160.211524 75.630012 160.211524 
z
" clip-path="url(#p0cfa3853ab)" style="fill: #1f77b4; fill-opacity: 0.55; stroke: #1f77b4; stroke-opacity: 0.55"/>
    <path d="M 75.527357 161.253014 
C 75.760081 161.253014 75.983304 161.160552 76.147865 160.995991 
C 76.312426 160.83143 76.404888 160.608207 76.404888 160.375483 
C 76.404888 160.142759 76.312426 159.919535 76.147865 159.754974 
C 75.983304 159.590413 75.760081 159.497951 75.527357 159.497951 
C 75.294633 159.497951 75.071409 159.590413 74.906848 159.754974 
C 74.742288 159.919535 74.649825 160.142759 74.649825 160.375483 
C 74.649825 160.608207 74.742288 160.83143 74.906848 160.995991 
C 75.071409 161.160552 75.294633 161.253014 75.527357 161.253014 
z
" clip-path="url(#p0cfa3853ab)" style="fill: #1f77b4; fill-opacity: 0.55; stroke: #1f77b4; stroke-opacity: 0.55"/>
    <path d="M 75.566784 159.981089 
C 75.799508 159.981089 76.022731 159.888627 76.187292 159.724066 
C 76.351853 159.559506 76.444315 159.336282 76.444315 159.103558 
C 76.444315 158.870834 76.351853 158.64761 76.187292 158.48305 
C 76.022731 158.318489 75.799508 158.226027 75.566784 158.226027 
C 75.33406 158.226027 75.110836 158.318489 74.946275 158.48305 
C 74.781715 158.64761 74.689252 158.870834 74.689252 159.103558 
C 74.689252 159.336282 74.781715 159.559506 74.946275 159.724066 
C 75.110836 159.888627 75.33406 159.981089 75.566784 159.981089 
z
" clip-path="url(#p0cfa3853ab)" style="fill: #1f77b4; fill-opacity: 0.55; stroke: #1f77b4; stroke-opacity: 0.55"/>
    <path d="M 75.551029 159.908943 
C 75.783753 159.908943 76.006977 159.81648 76.171538 159.65192 
C 76.336098 159.487359 76.428561 159.264135 76.428561 159.031411 
C 76.428561 158.798687 76.336098 158.575464 76.171538 158.410903 
C 76.006977 158.246342 75.783753 158.15388 75.551029 158.15388 
C 75.318305 158.15388 75.095082 158.246342 74.930521 158.410903 
C 74.76596 158.575464 74.673498 158.798687 74.673498 159.031411 
C 74.673498 159.264135 74.76596 159.487359 74.930521 159.65192 
C 75.095082 159.81648 75.318305 159.908943 75.551029 159.908943 
z
" clip-path="url(#p0cfa3853ab)" style="fill: #1f77b4; fill-opacity: 0.55; stroke: #1f77b4; stroke-opacity: 0.55"/>
    <path d="M 75.484886 160.29954 
C 75.71761 160.29954 75.940834 160.207078 76.105395 160.042517 
C 76.269955 159.877957 76.362418 159.654733 76.362418 159.422009 
C 76.362418 159.189285 76.269955 158.966062 76.105395 158.801501 
C 75.940834 158.63694 75.71761 158.544478 75.484886 158.544478 
C 75.252162 158.544478 75.028939 158.63694 74.864378 158.801501 
C 74.699817 158.966062 74.607355 159.189285 74.607355 159.422009 
C 74.607355 159.654733 74.699817 159.877957 74.864378 160.042517 
C 75.028939 160.207078 75.252162 160.29954 75.484886 160.29954 
z
" clip-path="url(#p0cfa3853ab)" style="fill: #1f77b4; fill-opacity: 0.55; stroke: #1f77b4; stroke-opacity: 0.55"/>
    <path d="M 77.145232 117.17835 
C 77.542193 117.17835 77.922949 117.020636 78.203643 116.739942 
C 78.484337 116.459248 78.642051 116.078492 78.642051 115.68153 
C 78.642051 115.284569 78.484337 114.903813 78.203643 114.623119 
C 77.922949 114.342425 77.542193 114.184711 77.145232 114.184711 
C 76.748271 114.184711 76.367514 114.342425 76.08682 114.623119 
C 75.806127 114.903813 75.648412 115.284569 75.648412 115.68153 
C 75.648412 116.078492 75.806127 116.459248 76.08682 116.739942 
C 76.367514 117.020636 76.748271 117.17835 77.145232 117.17835 
z
" clip-path="url(#p0cfa3853ab)" style="fill: #1f77b4; fill-opacity: 0.55; stroke: #1f77b4; stroke-opacity: 0.55"/>
    <path d="M 75.754095 123.868392 
C 76.151056 123.868392 76.531812 123.710678 76.812506 123.429984 
C 77.0932 123.14929 77.250914 122.768534 77.250914 122.371573 
C 77.250914 121.974612 77.0932 121.593855 76.812506 121.313161 
C 76.531812 121.032468 76.151056 120.874753 75.754095 120.874753 
C 75.357133 120.874753 74.976377 121.032468 74.695683 121.313161 
C 74.414989 121.593855 74.257275 121.974612 74.257275 122.371573 
C 74.257275 122.768534 74.414989 123.14929 74.695683 123.429984 
C 74.976377 123.710678 75.357133 123.868392 75.754095 123.868392 
z
" clip-path="url(#p0cfa3853ab)" style="fill: #1f77b4; fill-opacity: 0.55; stroke: #1f77b4; stroke-opacity: 0.55"/>
    <path d="M 75.641451 117.115662 
C 76.038412 117.115662 76.419168 116.957948 76.699862 116.677254 
C 76.980556 116.39656 77.13827 116.015804 77.13827 115.618842 
C 77.13827 115.221881 76.980556 114.841125 76.699862 114.560431 
C 76.419168 114.279737 76.038412 114.122023 75.641451 114.122023 
C 75.24449 114.122023 74.863734 114.279737 74.58304 114.560431 
C 74.302346 114.841125 74.144631 115.221881 74.144631 115.618842 
C 74.144631 116.015804 74.302346 116.39656 74.58304 116.677254 
C 74.863734 116.957948 75.24449 117.115662 75.641451 117.115662 
z
" clip-path="url(#p0cfa3853ab)" style="fill: #1f77b4; fill-opacity: 0.55; stroke: #1f77b4; stroke-opacity: 0.55"/>
    <path d="M 75.835143 118.623986 
C 76.232104 118.623986 76.61286 118.466272 76.893554 118.185578 
C 77.174248 117.904884 77.331962 117.524128 77.331962 117.127166 
C 77.331962 116.730205 77.174248 116.349449 76.893554 116.068755 
C 76.61286 115.788061 76.232104 115.630347 75.835143 115.630347 
C 75.438181 115.630347 75.057425 115.788061 74.776731 116.068755 
C 74.496037 116.349449 74.338323 116.730205 74.338323 117.127166 
C 74.338323 117.524128 74.496037 117.904884 74.776731 118.185578 
C 75.057425 118.466272 75.438181 118.623986 75.835143 118.623986 
z
" clip-path="url(#p0cfa3853ab)" style="fill: #1f77b4; fill-opacity: 0.55; stroke: #1f77b4; stroke-opacity: 0.55"/>
    <path d="M 75.721475 118.927477 
C 76.118436 118.927477 76.499193 118.769762 76.779887 118.489069 
C 77.06058 118.208375 77.218295 117.827618 77.218295 117.430657 
C 77.218295 117.033696 77.06058 116.65294 76.779887 116.372246 
C 76.499193 116.091552 76.118436 115.933838 75.721475 115.933838 
C 75.324514 115.933838 74.943758 116.091552 74.663064 116.372246 
C 74.38237 116.65294 74.224656 117.033696 74.224656 117.430657 
C 74.224656 117.827618 74.38237 118.208375 74.663064 118.489069 
C 74.943758 118.769762 75.324514 118.927477 75.721475 118.927477 
z
" clip-path="url(#p0cfa3853ab)" style="fill: #1f77b4; fill-opacity: 0.55; stroke: #1f77b4; stroke-opacity: 0.55"/>
    <path d="M 75.833155 114.931496 
C 76.230116 114.931496 76.610872 114.773781 76.891566 114.493087 
C 77.17226 114.212393 77.329975 113.831637 77.329975 113.434676 
C 77.329975 113.037715 77.17226 112.656959 76.891566 112.376265 
C 76.610872 112.095571 76.230116 111.937856 75.833155 111.937856 
C 75.436194 111.937856 75.055438 112.095571 74.774744 112.376265 
C 74.49405 112.656959 74.336335 113.037715 74.336335 113.434676 
C 74.336335 113.831637 74.49405 114.212393 74.774744 114.493087 
C 75.055438 114.773781 75.436194 114.931496 75.833155 114.931496 
z
" clip-path="url(#p0cfa3853ab)" style="fill: #1f77b4; fill-opacity: 0.55; stroke: #1f77b4; stroke-opacity: 0.55"/>
    <path d="M 75.827339 119.843936 
C 76.2243 119.843936 76.605056 119.686221 76.88575 119.405527 
C 77.166444 119.124833 77.324158 118.744077 77.324158 118.347116 
C 77.324158 117.950155 77.166444 117.569399 76.88575 117.288705 
C 76.605056 117.008011 76.2243 116.850297 75.827339 116.850297 
C 75.430378 116.850297 75.049622 117.008011 74.768928 117.288705 
C 74.488234 117.569399 74.330519 117.950155 74.330519 118.347116 
C 74.330519 118.744077 74.488234 119.124833 74.768928 119.405527 
C 75.049622 119.686221 75.430378 119.843936 75.827339 119.843936 
z
" clip-path="url(#p0cfa3853ab)" style="fill: #1f77b4; fill-opacity: 0.55; stroke: #1f77b4; stroke-opacity: 0.55"/>
    <path d="M 75.931922 301.279972 
C 76.206776 301.279972 76.47041 301.170771 76.664762 300.97642 
C 76.859113 300.782068 76.968314 300.518434 76.968314 300.24358 
C 76.968314 299.968725 76.859113 299.705091 76.664762 299.510739 
C 76.47041 299.316388 76.206776 299.207187 75.931922 299.207187 
C 75.657067 299.207187 75.393433 299.316388 75.199082 299.510739 
C 75.00473 299.705091 74.895529 299.968725 74.895529 300.24358 
C 74.895529 300.518434 75.00473 300.782068 75.199082 300.97642 
C 75.393433 301.170771 75.657067 301.279972 75.931922 301.279972 
z
" clip-path="url(#p0cfa3853ab)" style="fill: #1f77b4; fill-opacity: 0.55; stroke: #1f77b4; stroke-opacity: 0.55"/>
   </g>
   <g id="matplotlib.axis_1">
    <g id="xtick_1">
     <g id="line2d_1">
      <path d="M 75.40281 313.478125 
L 75.40281 22.318125 
" clip-path="url(#p0cfa3853ab)" style="fill: none; stroke: #b0b0b0; stroke-opacity: 0.25; stroke-width: 0.8; stroke-linecap: square"/>
     </g>
     <g id="line2d_2">
      <defs>
       <path id="ma2da7193b8" d="M 0 0 
L 0 3.5 
" style="stroke: #000000; stroke-width: 0.8"/>
      </defs>
      <g>
       <use xlink:href="#ma2da7193b8" x="75.40281" y="313.478125" style="stroke: #000000; stroke-width: 0.8"/>
      </g>
     </g>
     <g id="text_1">
      <!-- 0 -->
      <g transform="translate(72.22156 328.076563) scale(0.1 -0.1)">
       <defs>
        <path id="DejaVuSans-30" d="M 2034 4250 
Q 1547 4250 1301 3770 
Q 1056 3291 1056 2328 
Q 1056 1369 1301 889 
Q 1547 409 2034 409 
Q 2525 409 2770 889 
Q 3016 1369 3016 2328 
Q 3016 3291 2770 3770 
Q 2525 4250 2034 4250 
z
M 2034 4750 
Q 2819 4750 3233 4129 
Q 3647 3509 3647 2328 
Q 3647 1150 3233 529 
Q 2819 -91 2034 -91 
Q 1250 -91 836 529 
Q 422 1150 422 2328 
Q 422 3509 836 4129 
Q 1250 4750 2034 4750 
z
" transform="scale(0.015625)"/>
       </defs>
       <use xlink:href="#DejaVuSans-30"/>
      </g>
     </g>
    </g>
    <g id="xtick_2">
     <g id="line2d_3">
      <path d="M 190.162651 313.478125 
L 190.162651 22.318125 
" clip-path="url(#p0cfa3853ab)" style="fill: none; stroke: #b0b0b0; stroke-opacity: 0.25; stroke-width: 0.8; stroke-linecap: square"/>
     </g>
     <g id="line2d_4">
      <g>
       <use xlink:href="#ma2da7193b8" x="190.162651" y="313.478125" style="stroke: #000000; stroke-width: 0.8"/>
      </g>
     </g>
     <g id="text_2">
      <!-- 500 -->
      <g transform="translate(180.618901 328.076563) scale(0.1 -0.1)">
       <defs>
        <path id="DejaVuSans-35" d="M 691 4666 
L 3169 4666 
L 3169 4134 
L 1269 4134 
L 1269 2991 
Q 1406 3038 1543 3061 
Q 1681 3084 1819 3084 
Q 2600 3084 3056 2656 
Q 3513 2228 3513 1497 
Q 3513 744 3044 326 
Q 2575 -91 1722 -91 
Q 1428 -91 1123 -41 
Q 819 9 494 109 
L 494 744 
Q 775 591 1075 516 
Q 1375 441 1709 441 
Q 2250 441 2565 725 
Q 2881 1009 2881 1497 
Q 2881 1984 2565 2268 
Q 2250 2553 1709 2553 
Q 1456 2553 1204 2497 
Q 953 2441 691 2322 
L 691 4666 
z
" transform="scale(0.015625)"/>
       </defs>
       <use xlink:href="#DejaVuSans-35"/>
       <use xlink:href="#DejaVuSans-30" x="63.623047"/>
       <use xlink:href="#DejaVuSans-30" x="127.246094"/>
      </g>
     </g>
    </g>
    <g id="xtick_3">
     <g id="line2d_5">
      <path d="M 304.922493 313.478125 
L 304.922493 22.318125 
" clip-path="url(#p0cfa3853ab)" style="fill: none; stroke: #b0b0b0; stroke-opacity: 0.25; stroke-width: 0.8; stroke-linecap: square"/>
     </g>
     <g id="line2d_6">
      <g>
       <use xlink:href="#ma2da7193b8" x="304.922493" y="313.478125" style="stroke: #000000; stroke-width: 0.8"/>
      </g>
     </g>
     <g id="text_3">
      <!-- 1000 -->
      <g transform="translate(292.197493 328.076563) scale(0.1 -0.1)">
       <defs>
        <path id="DejaVuSans-31" d="M 794 531 
L 1825 531 
L 1825 4091 
L 703 3866 
L 703 4441 
L 1819 4666 
L 2450 4666 
L 2450 531 
L 3481 531 
L 3481 0 
L 794 0 
L 794 531 
z
" transform="scale(0.015625)"/>
       </defs>
       <use xlink:href="#DejaVuSans-31"/>
       <use xlink:href="#DejaVuSans-30" x="63.623047"/>
       <use xlink:href="#DejaVuSans-30" x="127.246094"/>
       <use xlink:href="#DejaVuSans-30" x="190.869141"/>
      </g>
     </g>
    </g>
    <g id="xtick_4">
     <g id="line2d_7">
      <path d="M 419.682334 313.478125 
L 419.682334 22.318125 
" clip-path="url(#p0cfa3853ab)" style="fill: none; stroke: #b0b0b0; stroke-opacity: 0.25; stroke-width: 0.8; stroke-linecap: square"/>
     </g>
     <g id="line2d_8">
      <g>
       <use xlink:href="#ma2da7193b8" x="419.682334" y="313.478125" style="stroke: #000000; stroke-width: 0.8"/>
      </g>
     </g>
     <g id="text_4">
      <!-- 1500 -->
      <g transform="translate(406.957334 328.076563) scale(0.1 -0.1)">
       <use xlink:href="#DejaVuSans-31"/>
       <use xlink:href="#DejaVuSans-35" x="63.623047"/>
       <use xlink:href="#DejaVuSans-30" x="127.246094"/>
       <use xlink:href="#DejaVuSans-30" x="190.869141"/>
      </g>
     </g>
    </g>
    <g id="xtick_5">
     <g id="line2d_9">
      <path d="M 534.442175 313.478125 
L 534.442175 22.318125 
" clip-path="url(#p0cfa3853ab)" style="fill: none; stroke: #b0b0b0; stroke-opacity: 0.25; stroke-width: 0.8; stroke-linecap: square"/>
     </g>
     <g id="line2d_10">
      <g>
       <use xlink:href="#ma2da7193b8" x="534.442175" y="313.478125" style="stroke: #000000; stroke-width: 0.8"/>
      </g>
     </g>
     <g id="text_5">
      <!-- 2000 -->
      <g transform="translate(521.717175 328.076563) scale(0.1 -0.1)">
       <defs>
        <path id="DejaVuSans-32" d="M 1228 531 
L 3431 531 
L 3431 0 
L 469 0 
L 469 531 
Q 828 903 1448 1529 
Q 2069 2156 2228 2338 
Q 2531 2678 2651 2914 
Q 2772 3150 2772 3378 
Q 2772 3750 2511 3984 
Q 2250 4219 1831 4219 
Q 1534 4219 1204 4116 
Q 875 4013 500 3803 
L 500 4441 
Q 881 4594 1212 4672 
Q 1544 4750 1819 4750 
Q 2544 4750 2975 4387 
Q 3406 4025 3406 3419 
Q 3406 3131 3298 2873 
Q 3191 2616 2906 2266 
Q 2828 2175 2409 1742 
Q 1991 1309 1228 531 
z
" transform="scale(0.015625)"/>
       </defs>
       <use xlink:href="#DejaVuSans-32"/>
       <use xlink:href="#DejaVuSans-30" x="63.623047"/>
       <use xlink:href="#DejaVuSans-30" x="127.246094"/>
       <use xlink:href="#DejaVuSans-30" x="190.869141"/>
      </g>
     </g>
    </g>
    <g id="xtick_6">
     <g id="line2d_11">
      <path d="M 649.202016 313.478125 
L 649.202016 22.318125 
" clip-path="url(#p0cfa3853ab)" style="fill: none; stroke: #b0b0b0; stroke-opacity: 0.25; stroke-width: 0.8; stroke-linecap: square"/>
     </g>
     <g id="line2d_12">
      <g>
       <use xlink:href="#ma2da7193b8" x="649.202016" y="313.478125" style="stroke: #000000; stroke-width: 0.8"/>
      </g>
     </g>
     <g id="text_6">
      <!-- 2500 -->
      <g transform="translate(636.477016 328.076563) scale(0.1 -0.1)">
       <use xlink:href="#DejaVuSans-32"/>
       <use xlink:href="#DejaVuSans-35" x="63.623047"/>
       <use xlink:href="#DejaVuSans-30" x="127.246094"/>
       <use xlink:href="#DejaVuSans-30" x="190.869141"/>
      </g>
     </g>
    </g>
    <g id="text_7">
     <!-- Inference time (ms) -->
     <g transform="translate(343.175938 341.754687) scale(0.1 -0.1)">
      <defs>
       <path id="DejaVuSans-49" d="M 628 4666 
L 1259 4666 
L 1259 0 
L 628 0 
L 628 4666 
z
" transform="scale(0.015625)"/>
       <path id="DejaVuSans-6e" d="M 3513 2113 
L 3513 0 
L 2938 0 
L 2938 2094 
Q 2938 2591 2744 2837 
Q 2550 3084 2163 3084 
Q 1697 3084 1428 2787 
Q 1159 2491 1159 1978 
L 1159 0 
L 581 0 
L 581 3500 
L 1159 3500 
L 1159 2956 
Q 1366 3272 1645 3428 
Q 1925 3584 2291 3584 
Q 2894 3584 3203 3211 
Q 3513 2838 3513 2113 
z
" transform="scale(0.015625)"/>
       <path id="DejaVuSans-66" d="M 2375 4863 
L 2375 4384 
L 1825 4384 
Q 1516 4384 1395 4259 
Q 1275 4134 1275 3809 
L 1275 3500 
L 2222 3500 
L 2222 3053 
L 1275 3053 
L 1275 0 
L 697 0 
L 697 3053 
L 147 3053 
L 147 3500 
L 697 3500 
L 697 3744 
Q 697 4328 969 4595 
Q 1241 4863 1831 4863 
L 2375 4863 
z
" transform="scale(0.015625)"/>
       <path id="DejaVuSans-65" d="M 3597 1894 
L 3597 1613 
L 953 1613 
Q 991 1019 1311 708 
Q 1631 397 2203 397 
Q 2534 397 2845 478 
Q 3156 559 3463 722 
L 3463 178 
Q 3153 47 2828 -22 
Q 2503 -91 2169 -91 
Q 1331 -91 842 396 
Q 353 884 353 1716 
Q 353 2575 817 3079 
Q 1281 3584 2069 3584 
Q 2775 3584 3186 3129 
Q 3597 2675 3597 1894 
z
M 3022 2063 
Q 3016 2534 2758 2815 
Q 2500 3097 2075 3097 
Q 1594 3097 1305 2825 
Q 1016 2553 972 2059 
L 3022 2063 
z
" transform="scale(0.015625)"/>
       <path id="DejaVuSans-72" d="M 2631 2963 
Q 2534 3019 2420 3045 
Q 2306 3072 2169 3072 
Q 1681 3072 1420 2755 
Q 1159 2438 1159 1844 
L 1159 0 
L 581 0 
L 581 3500 
L 1159 3500 
L 1159 2956 
Q 1341 3275 1631 3429 
Q 1922 3584 2338 3584 
Q 2397 3584 2469 3576 
Q 2541 3569 2628 3553 
L 2631 2963 
z
" transform="scale(0.015625)"/>
       <path id="DejaVuSans-63" d="M 3122 3366 
L 3122 2828 
Q 2878 2963 2633 3030 
Q 2388 3097 2138 3097 
Q 1578 3097 1268 2742 
Q 959 2388 959 1747 
Q 959 1106 1268 751 
Q 1578 397 2138 397 
Q 2388 397 2633 464 
Q 2878 531 3122 666 
L 3122 134 
Q 2881 22 2623 -34 
Q 2366 -91 2075 -91 
Q 1284 -91 818 406 
Q 353 903 353 1747 
Q 353 2603 823 3093 
Q 1294 3584 2113 3584 
Q 2378 3584 2631 3529 
Q 2884 3475 3122 3366 
z
" transform="scale(0.015625)"/>
       <path id="DejaVuSans-20" transform="scale(0.015625)"/>
       <path id="DejaVuSans-74" d="M 1172 4494 
L 1172 3500 
L 2356 3500 
L 2356 3053 
L 1172 3053 
L 1172 1153 
Q 1172 725 1289 603 
Q 1406 481 1766 481 
L 2356 481 
L 2356 0 
L 1766 0 
Q 1100 0 847 248 
Q 594 497 594 1153 
L 594 3053 
L 172 3053 
L 172 3500 
L 594 3500 
L 594 4494 
L 1172 4494 
z
" transform="scale(0.015625)"/>
       <path id="DejaVuSans-69" d="M 603 3500 
L 1178 3500 
L 1178 0 
L 603 0 
L 603 3500 
z
M 603 4863 
L 1178 4863 
L 1178 4134 
L 603 4134 
L 603 4863 
z
" transform="scale(0.015625)"/>
       <path id="DejaVuSans-6d" d="M 3328 2828 
Q 3544 3216 3844 3400 
Q 4144 3584 4550 3584 
Q 5097 3584 5394 3201 
Q 5691 2819 5691 2113 
L 5691 0 
L 5113 0 
L 5113 2094 
Q 5113 2597 4934 2840 
Q 4756 3084 4391 3084 
Q 3944 3084 3684 2787 
Q 3425 2491 3425 1978 
L 3425 0 
L 2847 0 
L 2847 2094 
Q 2847 2600 2669 2842 
Q 2491 3084 2119 3084 
Q 1678 3084 1418 2786 
Q 1159 2488 1159 1978 
L 1159 0 
L 581 0 
L 581 3500 
L 1159 3500 
L 1159 2956 
Q 1356 3278 1631 3431 
Q 1906 3584 2284 3584 
Q 2666 3584 2933 3390 
Q 3200 3197 3328 2828 
z
" transform="scale(0.015625)"/>
       <path id="DejaVuSans-28" d="M 1984 4856 
Q 1566 4138 1362 3434 
Q 1159 2731 1159 2009 
Q 1159 1288 1364 580 
Q 1569 -128 1984 -844 
L 1484 -844 
Q 1016 -109 783 600 
Q 550 1309 550 2009 
Q 550 2706 781 3412 
Q 1013 4119 1484 4856 
L 1984 4856 
z
" transform="scale(0.015625)"/>
       <path id="DejaVuSans-73" d="M 2834 3397 
L 2834 2853 
Q 2591 2978 2328 3040 
Q 2066 3103 1784 3103 
Q 1356 3103 1142 2972 
Q 928 2841 928 2578 
Q 928 2378 1081 2264 
Q 1234 2150 1697 2047 
L 1894 2003 
Q 2506 1872 2764 1633 
Q 3022 1394 3022 966 
Q 3022 478 2636 193 
Q 2250 -91 1575 -91 
Q 1294 -91 989 -36 
Q 684 19 347 128 
L 347 722 
Q 666 556 975 473 
Q 1284 391 1588 391 
Q 1994 391 2212 530 
Q 2431 669 2431 922 
Q 2431 1156 2273 1281 
Q 2116 1406 1581 1522 
L 1381 1569 
Q 847 1681 609 1914 
Q 372 2147 372 2553 
Q 372 3047 722 3315 
Q 1072 3584 1716 3584 
Q 2034 3584 2315 3537 
Q 2597 3491 2834 3397 
z
" transform="scale(0.015625)"/>
       <path id="DejaVuSans-29" d="M 513 4856 
L 1013 4856 
Q 1481 4119 1714 3412 
Q 1947 2706 1947 2009 
Q 1947 1309 1714 600 
Q 1481 -109 1013 -844 
L 513 -844 
Q 928 -128 1133 580 
Q 1338 1288 1338 2009 
Q 1338 2731 1133 3434 
Q 928 4138 513 4856 
z
" transform="scale(0.015625)"/>
      </defs>
      <use xlink:href="#DejaVuSans-49"/>
      <use xlink:href="#DejaVuSans-6e" x="29.492188"/>
      <use xlink:href="#DejaVuSans-66" x="92.871094"/>
      <use xlink:href="#DejaVuSans-65" x="128.076172"/>
      <use xlink:href="#DejaVuSans-72" x="189.599609"/>
      <use xlink:href="#DejaVuSans-65" x="228.462891"/>
      <use xlink:href="#DejaVuSans-6e" x="289.986328"/>
      <use xlink:href="#DejaVuSans-63" x="353.365234"/>
      <use xlink:href="#DejaVuSans-65" x="408.345703"/>
      <use xlink:href="#DejaVuSans-20" x="469.869141"/>
      <use xlink:href="#DejaVuSans-74" x="501.65625"/>
      <use xlink:href="#DejaVuSans-69" x="540.865234"/>
      <use xlink:href="#DejaVuSans-6d" x="568.648438"/>
      <use xlink:href="#DejaVuSans-65" x="666.060547"/>
      <use xlink:href="#DejaVuSans-20" x="727.583984"/>
      <use xlink:href="#DejaVuSans-28" x="759.371094"/>
      <use xlink:href="#DejaVuSans-6d" x="798.384766"/>
      <use xlink:href="#DejaVuSans-73" x="895.796875"/>
      <use xlink:href="#DejaVuSans-29" x="947.896484"/>
     </g>
    </g>
   </g>
   <g id="matplotlib.axis_2">
    <g id="ytick_1">
     <g id="line2d_13">
      <path d="M 43.78125 308.105061 
L 741.26125 308.105061 
" clip-path="url(#p0cfa3853ab)" style="fill: none; stroke: #b0b0b0; stroke-opacity: 0.25; stroke-width: 0.8; stroke-linecap: square"/>
     </g>
     <g id="line2d_14">
      <defs>
       <path id="mfe8a4f3dc4" d="M 0 0 
L -3.5 0 
" style="stroke: #000000; stroke-width: 0.8"/>
      </defs>
      <g>
       <use xlink:href="#mfe8a4f3dc4" x="43.78125" y="308.105061" style="stroke: #000000; stroke-width: 0.8"/>
      </g>
     </g>
     <g id="text_8">
      <!-- 0.1 -->
      <g transform="translate(20.878125 311.904279) scale(0.1 -0.1)">
       <defs>
        <path id="DejaVuSans-2e" d="M 684 794 
L 1344 794 
L 1344 0 
L 684 0 
L 684 794 
z
" transform="scale(0.015625)"/>
       </defs>
       <use xlink:href="#DejaVuSans-30"/>
       <use xlink:href="#DejaVuSans-2e" x="63.623047"/>
       <use xlink:href="#DejaVuSans-31" x="95.410156"/>
      </g>
     </g>
    </g>
    <g id="ytick_2">
     <g id="line2d_15">
      <path d="M 43.78125 275.452941 
L 741.26125 275.452941 
" clip-path="url(#p0cfa3853ab)" style="fill: none; stroke: #b0b0b0; stroke-opacity: 0.25; stroke-width: 0.8; stroke-linecap: square"/>
     </g>
     <g id="line2d_16">
      <g>
       <use xlink:href="#mfe8a4f3dc4" x="43.78125" y="275.452941" style="stroke: #000000; stroke-width: 0.8"/>
      </g>
     </g>
     <g id="text_9">
      <!-- 0.2 -->
      <g transform="translate(20.878125 279.25216) scale(0.1 -0.1)">
       <use xlink:href="#DejaVuSans-30"/>
       <use xlink:href="#DejaVuSans-2e" x="63.623047"/>
       <use xlink:href="#DejaVuSans-32" x="95.410156"/>
      </g>
     </g>
    </g>
    <g id="ytick_3">
     <g id="line2d_17">
      <path d="M 43.78125 242.800821 
L 741.26125 242.800821 
" clip-path="url(#p0cfa3853ab)" style="fill: none; stroke: #b0b0b0; stroke-opacity: 0.25; stroke-width: 0.8; stroke-linecap: square"/>
     </g>
     <g id="line2d_18">
      <g>
       <use xlink:href="#mfe8a4f3dc4" x="43.78125" y="242.800821" style="stroke: #000000; stroke-width: 0.8"/>
      </g>
     </g>
     <g id="text_10">
      <!-- 0.3 -->
      <g transform="translate(20.878125 246.60004) scale(0.1 -0.1)">
       <defs>
        <path id="DejaVuSans-33" d="M 2597 2516 
Q 3050 2419 3304 2112 
Q 3559 1806 3559 1356 
Q 3559 666 3084 287 
Q 2609 -91 1734 -91 
Q 1441 -91 1130 -33 
Q 819 25 488 141 
L 488 750 
Q 750 597 1062 519 
Q 1375 441 1716 441 
Q 2309 441 2620 675 
Q 2931 909 2931 1356 
Q 2931 1769 2642 2001 
Q 2353 2234 1838 2234 
L 1294 2234 
L 1294 2753 
L 1863 2753 
Q 2328 2753 2575 2939 
Q 2822 3125 2822 3475 
Q 2822 3834 2567 4026 
Q 2313 4219 1838 4219 
Q 1578 4219 1281 4162 
Q 984 4106 628 3988 
L 628 4550 
Q 988 4650 1302 4700 
Q 1616 4750 1894 4750 
Q 2613 4750 3031 4423 
Q 3450 4097 3450 3541 
Q 3450 3153 3228 2886 
Q 3006 2619 2597 2516 
z
" transform="scale(0.015625)"/>
       </defs>
       <use xlink:href="#DejaVuSans-30"/>
       <use xlink:href="#DejaVuSans-2e" x="63.623047"/>
       <use xlink:href="#DejaVuSans-33" x="95.410156"/>
      </g>
     </g>
    </g>
    <g id="ytick_4">
     <g id="line2d_19">
      <path d="M 43.78125 210.148701 
L 741.26125 210.148701 
" clip-path="url(#p0cfa3853ab)" style="fill: none; stroke: #b0b0b0; stroke-opacity: 0.25; stroke-width: 0.8; stroke-linecap: square"/>
     </g>
     <g id="line2d_20">
      <g>
       <use xlink:href="#mfe8a4f3dc4" x="43.78125" y="210.148701" style="stroke: #000000; stroke-width: 0.8"/>
      </g>
     </g>
     <g id="text_11">
      <!-- 0.4 -->
      <g transform="translate(20.878125 213.94792) scale(0.1 -0.1)">
       <defs>
        <path id="DejaVuSans-34" d="M 2419 4116 
L 825 1625 
L 2419 1625 
L 2419 4116 
z
M 2253 4666 
L 3047 4666 
L 3047 1625 
L 3713 1625 
L 3713 1100 
L 3047 1100 
L 3047 0 
L 2419 0 
L 2419 1100 
L 313 1100 
L 313 1709 
L 2253 4666 
z
" transform="scale(0.015625)"/>
       </defs>
       <use xlink:href="#DejaVuSans-30"/>
       <use xlink:href="#DejaVuSans-2e" x="63.623047"/>
       <use xlink:href="#DejaVuSans-34" x="95.410156"/>
      </g>
     </g>
    </g>
    <g id="ytick_5">
     <g id="line2d_21">
      <path d="M 43.78125 177.496581 
L 741.26125 177.496581 
" clip-path="url(#p0cfa3853ab)" style="fill: none; stroke: #b0b0b0; stroke-opacity: 0.25; stroke-width: 0.8; stroke-linecap: square"/>
     </g>
     <g id="line2d_22">
      <g>
       <use xlink:href="#mfe8a4f3dc4" x="43.78125" y="177.496581" style="stroke: #000000; stroke-width: 0.8"/>
      </g>
     </g>
     <g id="text_12">
      <!-- 0.5 -->
      <g transform="translate(20.878125 181.2958) scale(0.1 -0.1)">
       <use xlink:href="#DejaVuSans-30"/>
       <use xlink:href="#DejaVuSans-2e" x="63.623047"/>
       <use xlink:href="#DejaVuSans-35" x="95.410156"/>
      </g>
     </g>
    </g>
    <g id="ytick_6">
     <g id="line2d_23">
      <path d="M 43.78125 144.844462 
L 741.26125 144.844462 
" clip-path="url(#p0cfa3853ab)" style="fill: none; stroke: #b0b0b0; stroke-opacity: 0.25; stroke-width: 0.8; stroke-linecap: square"/>
     </g>
     <g id="line2d_24">
      <g>
       <use xlink:href="#mfe8a4f3dc4" x="43.78125" y="144.844462" style="stroke: #000000; stroke-width: 0.8"/>
      </g>
     </g>
     <g id="text_13">
      <!-- 0.6 -->
      <g transform="translate(20.878125 148.64368) scale(0.1 -0.1)">
       <defs>
        <path id="DejaVuSans-36" d="M 2113 2584 
Q 1688 2584 1439 2293 
Q 1191 2003 1191 1497 
Q 1191 994 1439 701 
Q 1688 409 2113 409 
Q 2538 409 2786 701 
Q 3034 994 3034 1497 
Q 3034 2003 2786 2293 
Q 2538 2584 2113 2584 
z
M 3366 4563 
L 3366 3988 
Q 3128 4100 2886 4159 
Q 2644 4219 2406 4219 
Q 1781 4219 1451 3797 
Q 1122 3375 1075 2522 
Q 1259 2794 1537 2939 
Q 1816 3084 2150 3084 
Q 2853 3084 3261 2657 
Q 3669 2231 3669 1497 
Q 3669 778 3244 343 
Q 2819 -91 2113 -91 
Q 1303 -91 875 529 
Q 447 1150 447 2328 
Q 447 3434 972 4092 
Q 1497 4750 2381 4750 
Q 2619 4750 2861 4703 
Q 3103 4656 3366 4563 
z
" transform="scale(0.015625)"/>
       </defs>
       <use xlink:href="#DejaVuSans-30"/>
       <use xlink:href="#DejaVuSans-2e" x="63.623047"/>
       <use xlink:href="#DejaVuSans-36" x="95.410156"/>
      </g>
     </g>
    </g>
    <g id="ytick_7">
     <g id="line2d_25">
      <path d="M 43.78125 112.192342 
L 741.26125 112.192342 
" clip-path="url(#p0cfa3853ab)" style="fill: none; stroke: #b0b0b0; stroke-opacity: 0.25; stroke-width: 0.8; stroke-linecap: square"/>
     </g>
     <g id="line2d_26">
      <g>
       <use xlink:href="#mfe8a4f3dc4" x="43.78125" y="112.192342" style="stroke: #000000; stroke-width: 0.8"/>
      </g>
     </g>
     <g id="text_14">
      <!-- 0.7 -->
      <g transform="translate(20.878125 115.991561) scale(0.1 -0.1)">
       <defs>
        <path id="DejaVuSans-37" d="M 525 4666 
L 3525 4666 
L 3525 4397 
L 1831 0 
L 1172 0 
L 2766 4134 
L 525 4134 
L 525 4666 
z
" transform="scale(0.015625)"/>
       </defs>
       <use xlink:href="#DejaVuSans-30"/>
       <use xlink:href="#DejaVuSans-2e" x="63.623047"/>
       <use xlink:href="#DejaVuSans-37" x="95.410156"/>
      </g>
     </g>
    </g>
    <g id="ytick_8">
     <g id="line2d_27">
      <path d="M 43.78125 79.540222 
L 741.26125 79.540222 
" clip-path="url(#p0cfa3853ab)" style="fill: none; stroke: #b0b0b0; stroke-opacity: 0.25; stroke-width: 0.8; stroke-linecap: square"/>
     </g>
     <g id="line2d_28">
      <g>
       <use xlink:href="#mfe8a4f3dc4" x="43.78125" y="79.540222" style="stroke: #000000; stroke-width: 0.8"/>
      </g>
     </g>
     <g id="text_15">
      <!-- 0.8 -->
      <g transform="translate(20.878125 83.339441) scale(0.1 -0.1)">
       <defs>
        <path id="DejaVuSans-38" d="M 2034 2216 
Q 1584 2216 1326 1975 
Q 1069 1734 1069 1313 
Q 1069 891 1326 650 
Q 1584 409 2034 409 
Q 2484 409 2743 651 
Q 3003 894 3003 1313 
Q 3003 1734 2745 1975 
Q 2488 2216 2034 2216 
z
M 1403 2484 
Q 997 2584 770 2862 
Q 544 3141 544 3541 
Q 544 4100 942 4425 
Q 1341 4750 2034 4750 
Q 2731 4750 3128 4425 
Q 3525 4100 3525 3541 
Q 3525 3141 3298 2862 
Q 3072 2584 2669 2484 
Q 3125 2378 3379 2068 
Q 3634 1759 3634 1313 
Q 3634 634 3220 271 
Q 2806 -91 2034 -91 
Q 1263 -91 848 271 
Q 434 634 434 1313 
Q 434 1759 690 2068 
Q 947 2378 1403 2484 
z
M 1172 3481 
Q 1172 3119 1398 2916 
Q 1625 2713 2034 2713 
Q 2441 2713 2670 2916 
Q 2900 3119 2900 3481 
Q 2900 3844 2670 4047 
Q 2441 4250 2034 4250 
Q 1625 4250 1398 4047 
Q 1172 3844 1172 3481 
z
" transform="scale(0.015625)"/>
       </defs>
       <use xlink:href="#DejaVuSans-30"/>
       <use xlink:href="#DejaVuSans-2e" x="63.623047"/>
       <use xlink:href="#DejaVuSans-38" x="95.410156"/>
      </g>
     </g>
    </g>
    <g id="ytick_9">
     <g id="line2d_29">
      <path d="M 43.78125 46.888102 
L 741.26125 46.888102 
" clip-path="url(#p0cfa3853ab)" style="fill: none; stroke: #b0b0b0; stroke-opacity: 0.25; stroke-width: 0.8; stroke-linecap: square"/>
     </g>
     <g id="line2d_30">
      <g>
       <use xlink:href="#mfe8a4f3dc4" x="43.78125" y="46.888102" style="stroke: #000000; stroke-width: 0.8"/>
      </g>
     </g>
     <g id="text_16">
      <!-- 0.9 -->
      <g transform="translate(20.878125 50.687321) scale(0.1 -0.1)">
       <defs>
        <path id="DejaVuSans-39" d="M 703 97 
L 703 672 
Q 941 559 1184 500 
Q 1428 441 1663 441 
Q 2288 441 2617 861 
Q 2947 1281 2994 2138 
Q 2813 1869 2534 1725 
Q 2256 1581 1919 1581 
Q 1219 1581 811 2004 
Q 403 2428 403 3163 
Q 403 3881 828 4315 
Q 1253 4750 1959 4750 
Q 2769 4750 3195 4129 
Q 3622 3509 3622 2328 
Q 3622 1225 3098 567 
Q 2575 -91 1691 -91 
Q 1453 -91 1209 -44 
Q 966 3 703 97 
z
M 1959 2075 
Q 2384 2075 2632 2365 
Q 2881 2656 2881 3163 
Q 2881 3666 2632 3958 
Q 2384 4250 1959 4250 
Q 1534 4250 1286 3958 
Q 1038 3666 1038 3163 
Q 1038 2656 1286 2365 
Q 1534 2075 1959 2075 
z
" transform="scale(0.015625)"/>
       </defs>
       <use xlink:href="#DejaVuSans-30"/>
       <use xlink:href="#DejaVuSans-2e" x="63.623047"/>
       <use xlink:href="#DejaVuSans-39" x="95.410156"/>
      </g>
     </g>
    </g>
    <g id="text_17">
     <!-- Macro correlation -->
     <g transform="translate(14.798438 211.443438) rotate(-90) scale(0.1 -0.1)">
      <defs>
       <path id="DejaVuSans-4d" d="M 628 4666 
L 1569 4666 
L 2759 1491 
L 3956 4666 
L 4897 4666 
L 4897 0 
L 4281 0 
L 4281 4097 
L 3078 897 
L 2444 897 
L 1241 4097 
L 1241 0 
L 628 0 
L 628 4666 
z
" transform="scale(0.015625)"/>
       <path id="DejaVuSans-61" d="M 2194 1759 
Q 1497 1759 1228 1600 
Q 959 1441 959 1056 
Q 959 750 1161 570 
Q 1363 391 1709 391 
Q 2188 391 2477 730 
Q 2766 1069 2766 1631 
L 2766 1759 
L 2194 1759 
z
M 3341 1997 
L 3341 0 
L 2766 0 
L 2766 531 
Q 2569 213 2275 61 
Q 1981 -91 1556 -91 
Q 1019 -91 701 211 
Q 384 513 384 1019 
Q 384 1609 779 1909 
Q 1175 2209 1959 2209 
L 2766 2209 
L 2766 2266 
Q 2766 2663 2505 2880 
Q 2244 3097 1772 3097 
Q 1472 3097 1187 3025 
Q 903 2953 641 2809 
L 641 3341 
Q 956 3463 1253 3523 
Q 1550 3584 1831 3584 
Q 2591 3584 2966 3190 
Q 3341 2797 3341 1997 
z
" transform="scale(0.015625)"/>
       <path id="DejaVuSans-6f" d="M 1959 3097 
Q 1497 3097 1228 2736 
Q 959 2375 959 1747 
Q 959 1119 1226 758 
Q 1494 397 1959 397 
Q 2419 397 2687 759 
Q 2956 1122 2956 1747 
Q 2956 2369 2687 2733 
Q 2419 3097 1959 3097 
z
M 1959 3584 
Q 2709 3584 3137 3096 
Q 3566 2609 3566 1747 
Q 3566 888 3137 398 
Q 2709 -91 1959 -91 
Q 1206 -91 779 398 
Q 353 888 353 1747 
Q 353 2609 779 3096 
Q 1206 3584 1959 3584 
z
" transform="scale(0.015625)"/>
       <path id="DejaVuSans-6c" d="M 603 4863 
L 1178 4863 
L 1178 0 
L 603 0 
L 603 4863 
z
" transform="scale(0.015625)"/>
      </defs>
      <use xlink:href="#DejaVuSans-4d"/>
      <use xlink:href="#DejaVuSans-61" x="86.279297"/>
      <use xlink:href="#DejaVuSans-63" x="147.558594"/>
      <use xlink:href="#DejaVuSans-72" x="202.539062"/>
      <use xlink:href="#DejaVuSans-6f" x="241.402344"/>
      <use xlink:href="#DejaVuSans-20" x="302.583984"/>
      <use xlink:href="#DejaVuSans-63" x="334.371094"/>
      <use xlink:href="#DejaVuSans-6f" x="389.351562"/>
      <use xlink:href="#DejaVuSans-72" x="450.533203"/>
      <use xlink:href="#DejaVuSans-72" x="489.896484"/>
      <use xlink:href="#DejaVuSans-65" x="528.759766"/>
      <use xlink:href="#DejaVuSans-6c" x="590.283203"/>
      <use xlink:href="#DejaVuSans-61" x="618.066406"/>
      <use xlink:href="#DejaVuSans-74" x="679.345703"/>
      <use xlink:href="#DejaVuSans-69" x="718.554688"/>
      <use xlink:href="#DejaVuSans-6f" x="746.337891"/>
      <use xlink:href="#DejaVuSans-6e" x="807.519531"/>
     </g>
    </g>
   </g>
   <g id="patch_3">
    <path d="M 43.78125 313.478125 
L 43.78125 22.318125 
" style="fill: none; stroke: #000000; stroke-width: 0.8; stroke-linejoin: miter; stroke-linecap: square"/>
   </g>
   <g id="patch_4">
    <path d="M 741.26125 313.478125 
L 741.26125 22.318125 
" style="fill: none; stroke: #000000; stroke-width: 0.8; stroke-linejoin: miter; stroke-linecap: square"/>
   </g>
   <g id="patch_5">
    <path d="M 43.78125 313.478125 
L 741.26125 313.478125 
" style="fill: none; stroke: #000000; stroke-width: 0.8; stroke-linejoin: miter; stroke-linecap: square"/>
   </g>
   <g id="patch_6">
    <path d="M 43.78125 22.318125 
L 741.26125 22.318125 
" style="fill: none; stroke: #000000; stroke-width: 0.8; stroke-linejoin: miter; stroke-linecap: square"/>
   </g>
   <g id="text_18">
    <!-- Accuracy-efficiency bubble plot -->
    <g transform="translate(298.2725 16.318125) scale(0.12 -0.12)">
     <defs>
      <path id="DejaVuSans-41" d="M 2188 4044 
L 1331 1722 
L 3047 1722 
L 2188 4044 
z
M 1831 4666 
L 2547 4666 
L 4325 0 
L 3669 0 
L 3244 1197 
L 1141 1197 
L 716 0 
L 50 0 
L 1831 4666 
z
" transform="scale(0.015625)"/>
      <path id="DejaVuSans-75" d="M 544 1381 
L 544 3500 
L 1119 3500 
L 1119 1403 
Q 1119 906 1312 657 
Q 1506 409 1894 409 
Q 2359 409 2629 706 
Q 2900 1003 2900 1516 
L 2900 3500 
L 3475 3500 
L 3475 0 
L 2900 0 
L 2900 538 
Q 2691 219 2414 64 
Q 2138 -91 1772 -91 
Q 1169 -91 856 284 
Q 544 659 544 1381 
z
M 1991 3584 
L 1991 3584 
z
" transform="scale(0.015625)"/>
      <path id="DejaVuSans-79" d="M 2059 -325 
Q 1816 -950 1584 -1140 
Q 1353 -1331 966 -1331 
L 506 -1331 
L 506 -850 
L 844 -850 
Q 1081 -850 1212 -737 
Q 1344 -625 1503 -206 
L 1606 56 
L 191 3500 
L 800 3500 
L 1894 763 
L 2988 3500 
L 3597 3500 
L 2059 -325 
z
" transform="scale(0.015625)"/>
      <path id="DejaVuSans-2d" d="M 313 2009 
L 1997 2009 
L 1997 1497 
L 313 1497 
L 313 2009 
z
" transform="scale(0.015625)"/>
      <path id="DejaVuSans-62" d="M 3116 1747 
Q 3116 2381 2855 2742 
Q 2594 3103 2138 3103 
Q 1681 3103 1420 2742 
Q 1159 2381 1159 1747 
Q 1159 1113 1420 752 
Q 1681 391 2138 391 
Q 2594 391 2855 752 
Q 3116 1113 3116 1747 
z
M 1159 2969 
Q 1341 3281 1617 3432 
Q 1894 3584 2278 3584 
Q 2916 3584 3314 3078 
Q 3713 2572 3713 1747 
Q 3713 922 3314 415 
Q 2916 -91 2278 -91 
Q 1894 -91 1617 61 
Q 1341 213 1159 525 
L 1159 0 
L 581 0 
L 581 4863 
L 1159 4863 
L 1159 2969 
z
" transform="scale(0.015625)"/>
      <path id="DejaVuSans-70" d="M 1159 525 
L 1159 -1331 
L 581 -1331 
L 581 3500 
L 1159 3500 
L 1159 2969 
Q 1341 3281 1617 3432 
Q 1894 3584 2278 3584 
Q 2916 3584 3314 3078 
Q 3713 2572 3713 1747 
Q 3713 922 3314 415 
Q 2916 -91 2278 -91 
Q 1894 -91 1617 61 
Q 1341 213 1159 525 
z
M 3116 1747 
Q 3116 2381 2855 2742 
Q 2594 3103 2138 3103 
Q 1681 3103 1420 2742 
Q 1159 2381 1159 1747 
Q 1159 1113 1420 752 
Q 1681 391 2138 391 
Q 2594 391 2855 752 
Q 3116 1113 3116 1747 
z
" transform="scale(0.015625)"/>
     </defs>
     <use xlink:href="#DejaVuSans-41"/>
     <use xlink:href="#DejaVuSans-63" x="66.658203"/>
     <use xlink:href="#DejaVuSans-63" x="121.638672"/>
     <use xlink:href="#DejaVuSans-75" x="176.619141"/>
     <use xlink:href="#DejaVuSans-72" x="239.998047"/>
     <use xlink:href="#DejaVuSans-61" x="281.111328"/>
     <use xlink:href="#DejaVuSans-63" x="342.390625"/>
     <use xlink:href="#DejaVuSans-79" x="397.371094"/>
     <use xlink:href="#DejaVuSans-2d" x="454.800781"/>
     <use xlink:href="#DejaVuSans-65" x="490.884766"/>
     <use xlink:href="#DejaVuSans-66" x="552.408203"/>
     <use xlink:href="#DejaVuSans-66" x="587.613281"/>
     <use xlink:href="#DejaVuSans-69" x="622.818359"/>
     <use xlink:href="#DejaVuSans-63" x="650.601562"/>
     <use xlink:href="#DejaVuSans-69" x="705.582031"/>
     <use xlink:href="#DejaVuSans-65" x="733.365234"/>
     <use xlink:href="#DejaVuSans-6e" x="794.888672"/>
     <use xlink:href="#DejaVuSans-63" x="858.267578"/>
     <use xlink:href="#DejaVuSans-79" x="913.248047"/>
     <use xlink:href="#DejaVuSans-20" x="972.427734"/>
     <use xlink:href="#DejaVuSans-62" x="1004.214844"/>
     <use xlink:href="#DejaVuSans-75" x="1067.691406"/>
     <use xlink:href="#DejaVuSans-62" x="1131.070312"/>
     <use xlink:href="#DejaVuSans-62" x="1194.546875"/>
     <use xlink:href="#DejaVuSans-6c" x="1258.023438"/>
     <use xlink:href="#DejaVuSans-65" x="1285.806641"/>
     <use xlink:href="#DejaVuSans-20" x="1347.330078"/>
     <use xlink:href="#DejaVuSans-70" x="1379.117188"/>
     <use xlink:href="#DejaVuSans-6c" x="1442.59375"/>
     <use xlink:href="#DejaVuSans-6f" x="1470.376953"/>
     <use xlink:href="#DejaVuSans-74" x="1531.558594"/>
    </g>
   </g>
   <g id="legend_1">
    <g id="patch_7">
     <path d="M 679.59875 59.674375 
L 734.26125 59.674375 
Q 736.26125 59.674375 736.26125 57.674375 
L 736.26125 29.318125 
Q 736.26125 27.318125 734.26125 27.318125 
L 679.59875 27.318125 
Q 677.59875 27.318125 677.59875 29.318125 
L 677.59875 57.674375 
Q 677.59875 59.674375 679.59875 59.674375 
z
" style="fill: #ffffff; opacity: 0.8; stroke: #cccccc; stroke-linejoin: miter"/>
    </g>
    <g id="PathCollection_3">
     <defs>
      <path id="m1e3dc11379" d="M 0 5.228303 
C 1.386562 5.228303 2.716521 4.677416 3.696968 3.696968 
C 4.677416 2.716521 5.228303 1.386562 5.228303 0 
C 5.228303 -1.386562 4.677416 -2.716521 3.696968 -3.696968 
C 2.716521 -4.677416 1.386562 -5.228303 0 -5.228303 
C -1.386562 -5.228303 -2.716521 -4.677416 -3.696968 -3.696968 
C -4.677416 -2.716521 -5.228303 -1.386562 -5.228303 0 
C -5.228303 1.386562 -4.677416 2.716521 -3.696968 3.696968 
C -2.716521 4.677416 -1.386562 5.228303 0 5.228303 
z
" style="stroke: #d62728; stroke-opacity: 0.55"/>
     </defs>
     <g>
      <use xlink:href="#m1e3dc11379" x="691.59875" y="36.291562" style="fill: #d62728; fill-opacity: 0.55; stroke: #d62728; stroke-opacity: 0.55"/>
     </g>
    </g>
    <g id="text_19">
     <!-- DNN -->
     <g transform="translate(709.59875 38.916562) scale(0.1 -0.1)">
      <defs>
       <path id="DejaVuSans-44" d="M 1259 4147 
L 1259 519 
L 2022 519 
Q 2988 519 3436 956 
Q 3884 1394 3884 2338 
Q 3884 3275 3436 3711 
Q 2988 4147 2022 4147 
L 1259 4147 
z
M 628 4666 
L 1925 4666 
Q 3281 4666 3915 4102 
Q 4550 3538 4550 2338 
Q 4550 1131 3912 565 
Q 3275 0 1925 0 
L 628 0 
L 628 4666 
z
" transform="scale(0.015625)"/>
       <path id="DejaVuSans-4e" d="M 628 4666 
L 1478 4666 
L 3547 763 
L 3547 4666 
L 4159 4666 
L 4159 0 
L 3309 0 
L 1241 3903 
L 1241 0 
L 628 0 
L 628 4666 
z
" transform="scale(0.015625)"/>
      </defs>
      <use xlink:href="#DejaVuSans-44"/>
      <use xlink:href="#DejaVuSans-4e" x="77.001953"/>
      <use xlink:href="#DejaVuSans-4e" x="151.806641"/>
     </g>
    </g>
    <g id="PathCollection_4">
     <defs>
      <path id="m563155c9c9" d="M 0 2.151192 
C 0.570503 2.151192 1.117716 1.924529 1.521123 1.521123 
C 1.924529 1.117716 2.151192 0.570503 2.151192 0 
C 2.151192 -0.570503 1.924529 -1.117716 1.521123 -1.521123 
C 1.117716 -1.924529 0.570503 -2.151192 0 -2.151192 
C -0.570503 -2.151192 -1.117716 -1.924529 -1.521123 -1.521123 
C -1.924529 -1.117716 -2.151192 -0.570503 -2.151192 0 
C -2.151192 0.570503 -1.924529 1.117716 -1.521123 1.521123 
C -1.117716 1.924529 -0.570503 2.151192 0 2.151192 
z
" style="stroke: #1f77b4; stroke-opacity: 0.55"/>
     </defs>
     <g>
      <use xlink:href="#m563155c9c9" x="691.59875" y="50.969688" style="fill: #1f77b4; fill-opacity: 0.55; stroke: #1f77b4; stroke-opacity: 0.55"/>
     </g>
    </g>
    <g id="text_20">
     <!-- SNN -->
     <g transform="translate(709.59875 53.594688) scale(0.1 -0.1)">
      <defs>
       <path id="DejaVuSans-53" d="M 3425 4513 
L 3425 3897 
Q 3066 4069 2747 4153 
Q 2428 4238 2131 4238 
Q 1616 4238 1336 4038 
Q 1056 3838 1056 3469 
Q 1056 3159 1242 3001 
Q 1428 2844 1947 2747 
L 2328 2669 
Q 3034 2534 3370 2195 
Q 3706 1856 3706 1288 
Q 3706 609 3251 259 
Q 2797 -91 1919 -91 
Q 1588 -91 1214 -16 
Q 841 59 441 206 
L 441 856 
Q 825 641 1194 531 
Q 1563 422 1919 422 
Q 2459 422 2753 634 
Q 3047 847 3047 1241 
Q 3047 1584 2836 1778 
Q 2625 1972 2144 2069 
L 1759 2144 
Q 1053 2284 737 2584 
Q 422 2884 422 3419 
Q 422 4038 858 4394 
Q 1294 4750 2059 4750 
Q 2388 4750 2728 4690 
Q 3069 4631 3425 4513 
z
" transform="scale(0.015625)"/>
      </defs>
      <use xlink:href="#DejaVuSans-53"/>
      <use xlink:href="#DejaVuSans-4e" x="63.476562"/>
      <use xlink:href="#DejaVuSans-4e" x="138.28125"/>
     </g>
    </g>
   </g>
  </g>
 </g>
 <defs>
  <clipPath id="p0cfa3853ab">
   <rect x="43.78125" y="22.318125" width="697.48" height="291.16"/>
  </clipPath>
 </defs>
</svg>
