<?xml version="1.0" encoding="utf-8" standalone="no"?>
<!DOCTYPE svg PUBLIC "-//W3C//DTD SVG 1.1//EN"
  "http://www.w3.org/Graphics/SVG/1.1/DTD/svg11.dtd">
<svg xmlns:xlink="http://www.w3.org/1999/xlink" width="748.470313pt" height="336.634375pt" viewBox="0 0 748.470313 336.634375" xmlns="http://www.w3.org/2000/svg" version="1.1">
 <metadata>
  <rdf:RDF xmlns:dc="http://purl.org/dc/elements/1.1/" xmlns:cc="http://creativecommons.org/ns#" xmlns:rdf="http://www.w3.org/1999/02/22-rdf-syntax-ns#">
   <cc:Work>
    <dc:type rdf:resource="http://purl.org/dc/dcmitype/StillImage"/>
    <dc:date>2026-05-25T16:08:30.634348</dc:date>
    <dc:format>image/svg+xml</dc:format>
    <dc:creator>
     <cc:Agent>
      <dc:title>Matplotlib v3.9.4, https://matplotlib.org/</dc:title>
     </cc:Agent>
    </dc:creator>
   </cc:Work>
  </rdf:RDF>
 </metadata>
 <defs>
  <style type="text/css">*{stroke-linejoin: round; stroke-linecap: butt}</style>
 </defs>
 <g id="figure_1">
  <g id="patch_1">
   <path d="M 0 336.634375 
L 748.470313 336.634375 
L 748.470313 0 
L 0 0 
z
" style="fill: #ffffff"/>
  </g>
  <g id="axes_1">
   <g id="patch_2">
    <path d="M 42.620313 299.078125 
L 741.270313 299.078125 
L 741.270313 22.318125 
L 42.620313 22.318125 
z
" style="fill: #ffffff"/>
   </g>
   <g id="PathCollection_1">
    <defs>
     <path id="mdaa174c498" d="M 0 4.1833 
C 1.109424 4.1833 2.173559 3.742521 2.95804 2.95804 
C 3.742521 2.173559 4.1833 1.109424 4.1833 0 
C 4.1833 -1.109424 3.742521 -2.173559 2.95804 -2.95804 
C 2.173559 -3.742521 1.109424 -4.1833 0 -4.1833 
C -1.109424 -4.1833 -2.173559 -3.742521 -2.95804 -2.95804 
C -3.742521 -2.173559 -4.1833 -1.109424 -4.1833 0 
C -4.1833 1.109424 -3.742521 2.173559 -2.95804 2.95804 
C -2.173559 3.742521 -1.109424 4.1833 0 4.1833 
z
" style="stroke: #d62728; stroke-opacity: 0.85"/>
    </defs>
    <g clip-path="url(#p015f268d65)">
     <use xlink:href="#mdaa174c498" x="78.911049" y="76.170384" style="fill: #d62728; fill-opacity: 0.85; stroke: #d62728; stroke-opacity: 0.85"/>
     <use xlink:href="#mdaa174c498" x="75.814472" y="158.634538" style="fill: #d62728; fill-opacity: 0.85; stroke: #d62728; stroke-opacity: 0.85"/>
     <use xlink:href="#mdaa174c498" x="90.518192" y="114.485324" style="fill: #d62728; fill-opacity: 0.85; stroke: #d62728; stroke-opacity: 0.85"/>
     <use xlink:href="#mdaa174c498" x="79.284488" y="71.718586" style="fill: #d62728; fill-opacity: 0.85; stroke: #d62728; stroke-opacity: 0.85"/>
     <use xlink:href="#mdaa174c498" x="79.152637" y="118.82655" style="fill: #d62728; fill-opacity: 0.85; stroke: #d62728; stroke-opacity: 0.85"/>
     <use xlink:href="#mdaa174c498" x="89.035831" y="85.944912" style="fill: #d62728; fill-opacity: 0.85; stroke: #d62728; stroke-opacity: 0.85"/>
     <use xlink:href="#mdaa174c498" x="89.388817" y="57.028432" style="fill: #d62728; fill-opacity: 0.85; stroke: #d62728; stroke-opacity: 0.85"/>
     <use xlink:href="#mdaa174c498" x="88.591053" y="50.803574" style="fill: #d62728; fill-opacity: 0.85; stroke: #d62728; stroke-opacity: 0.85"/>
     <use xlink:href="#mdaa174c498" x="98.742844" y="99.432409" style="fill: #d62728; fill-opacity: 0.85; stroke: #d62728; stroke-opacity: 0.85"/>
     <use xlink:href="#mdaa174c498" x="76.801908" y="108.313735" style="fill: #d62728; fill-opacity: 0.85; stroke: #d62728; stroke-opacity: 0.85"/>
     <use xlink:href="#mdaa174c498" x="77.227356" y="162.789088" style="fill: #d62728; fill-opacity: 0.85; stroke: #d62728; stroke-opacity: 0.85"/>
     <use xlink:href="#mdaa174c498" x="77.911718" y="160.118342" style="fill: #d62728; fill-opacity: 0.85; stroke: #d62728; stroke-opacity: 0.85"/>
     <use xlink:href="#mdaa174c498" x="77.170395" y="128.190755" style="fill: #d62728; fill-opacity: 0.85; stroke: #d62728; stroke-opacity: 0.85"/>
     <use xlink:href="#mdaa174c498" x="77.315616" y="103.858318" style="fill: #d62728; fill-opacity: 0.85; stroke: #d62728; stroke-opacity: 0.85"/>
     <use xlink:href="#mdaa174c498" x="77.581331" y="105.585847" style="fill: #d62728; fill-opacity: 0.85; stroke: #d62728; stroke-opacity: 0.85"/>
     <use xlink:href="#mdaa174c498" x="122.557039" y="34.898125" style="fill: #d62728; fill-opacity: 0.85; stroke: #d62728; stroke-opacity: 0.85"/>
     <use xlink:href="#mdaa174c498" x="89.832805" y="146.244697" style="fill: #d62728; fill-opacity: 0.85; stroke: #d62728; stroke-opacity: 0.85"/>
     <use xlink:href="#mdaa174c498" x="89.344938" y="82.502175" style="fill: #d62728; fill-opacity: 0.85; stroke: #d62728; stroke-opacity: 0.85"/>
     <use xlink:href="#mdaa174c498" x="88.295409" y="41.471183" style="fill: #d62728; fill-opacity: 0.85; stroke: #d62728; stroke-opacity: 0.85"/>
     <use xlink:href="#mdaa174c498" x="78.521236" y="95.827323" style="fill: #d62728; fill-opacity: 0.85; stroke: #d62728; stroke-opacity: 0.85"/>
     <use xlink:href="#mdaa174c498" x="79.717237" y="81.728836" style="fill: #d62728; fill-opacity: 0.85; stroke: #d62728; stroke-opacity: 0.85"/>
     <use xlink:href="#mdaa174c498" x="78.474042" y="132.493322" style="fill: #d62728; fill-opacity: 0.85; stroke: #d62728; stroke-opacity: 0.85"/>
     <use xlink:href="#mdaa174c498" x="709.513494" y="154.850738" style="fill: #d62728; fill-opacity: 0.85; stroke: #d62728; stroke-opacity: 0.85"/>
    </g>
   </g>
   <g id="PathCollection_2">
    <defs>
     <path id="m0bc71dfb06" d="M 0 4.1833 
C 1.109424 4.1833 2.173559 3.742521 2.95804 2.95804 
C 3.742521 2.173559 4.1833 1.109424 4.1833 0 
C 4.1833 -1.109424 3.742521 -2.173559 2.95804 -2.95804 
C 2.173559 -3.742521 1.109424 -4.1833 0 -4.1833 
C -1.109424 -4.1833 -2.173559 -3.742521 -2.95804 -2.95804 
C -3.742521 -2.173559 -4.1833 -1.109424 -4.1833 0 
C -4.1833 1.109424 -3.742521 2.173559 -2.95804 2.95804 
C -2.173559 3.742521 -1.109424 4.1833 0 4.1833 
z
" style="stroke: #1f77b4; stroke-opacity: 0.85"/>
    </defs>
    <g clip-path="url(#p015f268d65)">
     <use xlink:href="#m0bc71dfb06" x="76.94655" y="183.789706" style="fill: #1f77b4; fill-opacity: 0.85; stroke: #1f77b4; stroke-opacity: 0.85"/>
     <use xlink:href="#m0bc71dfb06" x="76.214722" y="156.613587" style="fill: #1f77b4; fill-opacity: 0.85; stroke: #1f77b4; stroke-opacity: 0.85"/>
     <use xlink:href="#m0bc71dfb06" x="75.78743" y="147.737555" style="fill: #1f77b4; fill-opacity: 0.85; stroke: #1f77b4; stroke-opacity: 0.85"/>
     <use xlink:href="#m0bc71dfb06" x="77.425768" y="148.031681" style="fill: #1f77b4; fill-opacity: 0.85; stroke: #1f77b4; stroke-opacity: 0.85"/>
     <use xlink:href="#m0bc71dfb06" x="76.121611" y="132.390601" style="fill: #1f77b4; fill-opacity: 0.85; stroke: #1f77b4; stroke-opacity: 0.85"/>
     <use xlink:href="#m0bc71dfb06" x="76.011031" y="122.357365" style="fill: #1f77b4; fill-opacity: 0.85; stroke: #1f77b4; stroke-opacity: 0.85"/>
     <use xlink:href="#m0bc71dfb06" x="76.217863" y="120.297221" style="fill: #1f77b4; fill-opacity: 0.85; stroke: #1f77b4; stroke-opacity: 0.85"/>
     <use xlink:href="#m0bc71dfb06" x="76.451294" y="120.002143" style="fill: #1f77b4; fill-opacity: 0.85; stroke: #1f77b4; stroke-opacity: 0.85"/>
     <use xlink:href="#m0bc71dfb06" x="77.239283" y="125.986579" style="fill: #1f77b4; fill-opacity: 0.85; stroke: #1f77b4; stroke-opacity: 0.85"/>
     <use xlink:href="#m0bc71dfb06" x="75.77148" y="156.980609" style="fill: #1f77b4; fill-opacity: 0.85; stroke: #1f77b4; stroke-opacity: 0.85"/>
     <use xlink:href="#m0bc71dfb06" x="75.622014" y="125.409621" style="fill: #1f77b4; fill-opacity: 0.85; stroke: #1f77b4; stroke-opacity: 0.85"/>
     <use xlink:href="#m0bc71dfb06" x="75.728354" y="133.114891" style="fill: #1f77b4; fill-opacity: 0.85; stroke: #1f77b4; stroke-opacity: 0.85"/>
     <use xlink:href="#m0bc71dfb06" x="75.846286" y="125.986579" style="fill: #1f77b4; fill-opacity: 0.85; stroke: #1f77b4; stroke-opacity: 0.85"/>
     <use xlink:href="#m0bc71dfb06" x="75.725269" y="125.096317" style="fill: #1f77b4; fill-opacity: 0.85; stroke: #1f77b4; stroke-opacity: 0.85"/>
     <use xlink:href="#m0bc71dfb06" x="75.045413" y="136.919531" style="fill: #1f77b4; fill-opacity: 0.85; stroke: #1f77b4; stroke-opacity: 0.85"/>
     <use xlink:href="#m0bc71dfb06" x="78.329307" y="129.156117" style="fill: #1f77b4; fill-opacity: 0.85; stroke: #1f77b4; stroke-opacity: 0.85"/>
     <use xlink:href="#m0bc71dfb06" x="75.063493" y="151.699377" style="fill: #1f77b4; fill-opacity: 0.85; stroke: #1f77b4; stroke-opacity: 0.85"/>
     <use xlink:href="#m0bc71dfb06" x="75.16895" y="159.262042" style="fill: #1f77b4; fill-opacity: 0.85; stroke: #1f77b4; stroke-opacity: 0.85"/>
     <use xlink:href="#m0bc71dfb06" x="75.434835" y="131.587925" style="fill: #1f77b4; fill-opacity: 0.85; stroke: #1f77b4; stroke-opacity: 0.85"/>
     <use xlink:href="#m0bc71dfb06" x="74.801194" y="134.819268" style="fill: #1f77b4; fill-opacity: 0.85; stroke: #1f77b4; stroke-opacity: 0.85"/>
     <use xlink:href="#m0bc71dfb06" x="75.270963" y="160.909059" style="fill: #1f77b4; fill-opacity: 0.85; stroke: #1f77b4; stroke-opacity: 0.85"/>
     <use xlink:href="#m0bc71dfb06" x="75.120367" y="155.034644" style="fill: #1f77b4; fill-opacity: 0.85; stroke: #1f77b4; stroke-opacity: 0.85"/>
     <use xlink:href="#m0bc71dfb06" x="75.020878" y="133.436315" style="fill: #1f77b4; fill-opacity: 0.85; stroke: #1f77b4; stroke-opacity: 0.85"/>
     <use xlink:href="#m0bc71dfb06" x="75.131361" y="126.867479" style="fill: #1f77b4; fill-opacity: 0.85; stroke: #1f77b4; stroke-opacity: 0.85"/>
     <use xlink:href="#m0bc71dfb06" x="75.094493" y="131.142828" style="fill: #1f77b4; fill-opacity: 0.85; stroke: #1f77b4; stroke-opacity: 0.85"/>
     <use xlink:href="#m0bc71dfb06" x="75.004164" y="139.937167" style="fill: #1f77b4; fill-opacity: 0.85; stroke: #1f77b4; stroke-opacity: 0.85"/>
     <use xlink:href="#m0bc71dfb06" x="75.323395" y="131.816632" style="fill: #1f77b4; fill-opacity: 0.85; stroke: #1f77b4; stroke-opacity: 0.85"/>
     <use xlink:href="#m0bc71dfb06" x="77.778272" y="134.053374" style="fill: #1f77b4; fill-opacity: 0.85; stroke: #1f77b4; stroke-opacity: 0.85"/>
     <use xlink:href="#m0bc71dfb06" x="75.315546" y="133.013266" style="fill: #1f77b4; fill-opacity: 0.85; stroke: #1f77b4; stroke-opacity: 0.85"/>
     <use xlink:href="#m0bc71dfb06" x="75.515384" y="133.885212" style="fill: #1f77b4; fill-opacity: 0.85; stroke: #1f77b4; stroke-opacity: 0.85"/>
     <use xlink:href="#m0bc71dfb06" x="75.471072" y="154.833115" style="fill: #1f77b4; fill-opacity: 0.85; stroke: #1f77b4; stroke-opacity: 0.85"/>
     <use xlink:href="#m0bc71dfb06" x="75.839279" y="143.444894" style="fill: #1f77b4; fill-opacity: 0.85; stroke: #1f77b4; stroke-opacity: 0.85"/>
     <use xlink:href="#m0bc71dfb06" x="81.466104" y="133.885212" style="fill: #1f77b4; fill-opacity: 0.85; stroke: #1f77b4; stroke-opacity: 0.85"/>
     <use xlink:href="#m0bc71dfb06" x="75.472272" y="161.023082" style="fill: #1f77b4; fill-opacity: 0.85; stroke: #1f77b4; stroke-opacity: 0.85"/>
     <use xlink:href="#m0bc71dfb06" x="75.026359" y="159.927195" style="fill: #1f77b4; fill-opacity: 0.85; stroke: #1f77b4; stroke-opacity: 0.85"/>
     <use xlink:href="#m0bc71dfb06" x="74.998347" y="154.636786" style="fill: #1f77b4; fill-opacity: 0.85; stroke: #1f77b4; stroke-opacity: 0.85"/>
     <use xlink:href="#m0bc71dfb06" x="75.08" y="155.285846" style="fill: #1f77b4; fill-opacity: 0.85; stroke: #1f77b4; stroke-opacity: 0.85"/>
     <use xlink:href="#m0bc71dfb06" x="75.165065" y="156.583532" style="fill: #1f77b4; fill-opacity: 0.85; stroke: #1f77b4; stroke-opacity: 0.85"/>
     <use xlink:href="#m0bc71dfb06" x="75.081995" y="132.661735" style="fill: #1f77b4; fill-opacity: 0.85; stroke: #1f77b4; stroke-opacity: 0.85"/>
     <use xlink:href="#m0bc71dfb06" x="75.155022" y="160.443224" style="fill: #1f77b4; fill-opacity: 0.85; stroke: #1f77b4; stroke-opacity: 0.85"/>
     <use xlink:href="#m0bc71dfb06" x="75.347752" y="162.401697" style="fill: #1f77b4; fill-opacity: 0.85; stroke: #1f77b4; stroke-opacity: 0.85"/>
     <use xlink:href="#m0bc71dfb06" x="90.547546" y="158.455768" style="fill: #1f77b4; fill-opacity: 0.85; stroke: #1f77b4; stroke-opacity: 0.85"/>
     <use xlink:href="#m0bc71dfb06" x="115.350929" y="120.924065" style="fill: #1f77b4; fill-opacity: 0.85; stroke: #1f77b4; stroke-opacity: 0.85"/>
     <use xlink:href="#m0bc71dfb06" x="74.462862" y="187.199067" style="fill: #1f77b4; fill-opacity: 0.85; stroke: #1f77b4; stroke-opacity: 0.85"/>
     <use xlink:href="#m0bc71dfb06" x="74.522499" y="186.884716" style="fill: #1f77b4; fill-opacity: 0.85; stroke: #1f77b4; stroke-opacity: 0.85"/>
     <use xlink:href="#m0bc71dfb06" x="74.419672" y="187.883851" style="fill: #1f77b4; fill-opacity: 0.85; stroke: #1f77b4; stroke-opacity: 0.85"/>
     <use xlink:href="#m0bc71dfb06" x="74.459165" y="188.166814" style="fill: #1f77b4; fill-opacity: 0.85; stroke: #1f77b4; stroke-opacity: 0.85"/>
     <use xlink:href="#m0bc71dfb06" x="74.443385" y="187.366284" style="fill: #1f77b4; fill-opacity: 0.85; stroke: #1f77b4; stroke-opacity: 0.85"/>
     <use xlink:href="#m0bc71dfb06" x="74.377131" y="187.217045" style="fill: #1f77b4; fill-opacity: 0.85; stroke: #1f77b4; stroke-opacity: 0.85"/>
     <use xlink:href="#m0bc71dfb06" x="76.040261" y="158.35776" style="fill: #1f77b4; fill-opacity: 0.85; stroke: #1f77b4; stroke-opacity: 0.85"/>
     <use xlink:href="#m0bc71dfb06" x="74.64679" y="165.619348" style="fill: #1f77b4; fill-opacity: 0.85; stroke: #1f77b4; stroke-opacity: 0.85"/>
     <use xlink:href="#m0bc71dfb06" x="74.533958" y="157.123059" style="fill: #1f77b4; fill-opacity: 0.85; stroke: #1f77b4; stroke-opacity: 0.85"/>
     <use xlink:href="#m0bc71dfb06" x="74.727974" y="160.553218" style="fill: #1f77b4; fill-opacity: 0.85; stroke: #1f77b4; stroke-opacity: 0.85"/>
     <use xlink:href="#m0bc71dfb06" x="74.614116" y="156.921479" style="fill: #1f77b4; fill-opacity: 0.85; stroke: #1f77b4; stroke-opacity: 0.85"/>
     <use xlink:href="#m0bc71dfb06" x="74.725983" y="155.236019" style="fill: #1f77b4; fill-opacity: 0.85; stroke: #1f77b4; stroke-opacity: 0.85"/>
     <use xlink:href="#m0bc71dfb06" x="74.720158" y="160.01423" style="fill: #1f77b4; fill-opacity: 0.85; stroke: #1f77b4; stroke-opacity: 0.85"/>
     <use xlink:href="#m0bc71dfb06" x="74.824916" y="286.498125" style="fill: #1f77b4; fill-opacity: 0.85; stroke: #1f77b4; stroke-opacity: 0.85"/>
    </g>
   </g>
   <g id="matplotlib.axis_1">
    <g id="xtick_1">
     <g id="line2d_1">
      <path d="M 74.294917 299.078125 
L 74.294917 22.318125 
" clip-path="url(#p015f268d65)" style="fill: none; stroke: #b0b0b0; stroke-opacity: 0.25; stroke-width: 0.8; stroke-linecap: square"/>
     </g>
     <g id="line2d_2">
      <defs>
       <path id="mfb699b746a" d="M 0 0 
L 0 3.5 
" style="stroke: #000000; stroke-width: 0.8"/>
      </defs>
      <g>
       <use xlink:href="#mfb699b746a" x="74.294917" y="299.078125" style="stroke: #000000; stroke-width: 0.8"/>
      </g>
     </g>
     <g id="text_1">
      <!-- 0 -->
      <g transform="translate(71.113667 313.676562) scale(0.1 -0.1)">
       <defs>
        <path id="DejaVuSans-30" d="M 2034 4250 
Q 1547 4250 1301 3770 
Q 1056 3291 1056 2328 
Q 1056 1369 1301 889 
Q 1547 409 2034 409 
Q 2525 409 2770 889 
Q 3016 1369 3016 2328 
Q 3016 3291 2770 3770 
Q 2525 4250 2034 4250 
z
M 2034 4750 
Q 2819 4750 3233 4129 
Q 3647 3509 3647 2328 
Q 3647 1150 3233 529 
Q 2819 -91 2034 -91 
Q 1250 -91 836 529 
Q 422 1150 422 2328 
Q 422 3509 836 4129 
Q 1250 4750 2034 4750 
z
" transform="scale(0.015625)"/>
       </defs>
       <use xlink:href="#DejaVuSans-30"/>
      </g>
     </g>
    </g>
    <g id="xtick_2">
     <g id="line2d_3">
      <path d="M 189.247264 299.078125 
L 189.247264 22.318125 
" clip-path="url(#p015f268d65)" style="fill: none; stroke: #b0b0b0; stroke-opacity: 0.25; stroke-width: 0.8; stroke-linecap: square"/>
     </g>
     <g id="line2d_4">
      <g>
       <use xlink:href="#mfb699b746a" x="189.247264" y="299.078125" style="stroke: #000000; stroke-width: 0.8"/>
      </g>
     </g>
     <g id="text_2">
      <!-- 500 -->
      <g transform="translate(179.703514 313.676562) scale(0.1 -0.1)">
       <defs>
        <path id="DejaVuSans-35" d="M 691 4666 
L 3169 4666 
L 3169 4134 
L 1269 4134 
L 1269 2991 
Q 1406 3038 1543 3061 
Q 1681 3084 1819 3084 
Q 2600 3084 3056 2656 
Q 3513 2228 3513 1497 
Q 3513 744 3044 326 
Q 2575 -91 1722 -91 
Q 1428 -91 1123 -41 
Q 819 9 494 109 
L 494 744 
Q 775 591 1075 516 
Q 1375 441 1709 441 
Q 2250 441 2565 725 
Q 2881 1009 2881 1497 
Q 2881 1984 2565 2268 
Q 2250 2553 1709 2553 
Q 1456 2553 1204 2497 
Q 953 2441 691 2322 
L 691 4666 
z
" transform="scale(0.015625)"/>
       </defs>
       <use xlink:href="#DejaVuSans-35"/>
       <use xlink:href="#DejaVuSans-30" x="63.623047"/>
       <use xlink:href="#DejaVuSans-30" x="127.246094"/>
      </g>
     </g>
    </g>
    <g id="xtick_3">
     <g id="line2d_5">
      <path d="M 304.199611 299.078125 
L 304.199611 22.318125 
" clip-path="url(#p015f268d65)" style="fill: none; stroke: #b0b0b0; stroke-opacity: 0.25; stroke-width: 0.8; stroke-linecap: square"/>
     </g>
     <g id="line2d_6">
      <g>
       <use xlink:href="#mfb699b746a" x="304.199611" y="299.078125" style="stroke: #000000; stroke-width: 0.8"/>
      </g>
     </g>
     <g id="text_3">
      <!-- 1000 -->
      <g transform="translate(291.474611 313.676562) scale(0.1 -0.1)">
       <defs>
        <path id="DejaVuSans-31" d="M 794 531 
L 1825 531 
L 1825 4091 
L 703 3866 
L 703 4441 
L 1819 4666 
L 2450 4666 
L 2450 531 
L 3481 531 
L 3481 0 
L 794 0 
L 794 531 
z
" transform="scale(0.015625)"/>
       </defs>
       <use xlink:href="#DejaVuSans-31"/>
       <use xlink:href="#DejaVuSans-30" x="63.623047"/>
       <use xlink:href="#DejaVuSans-30" x="127.246094"/>
       <use xlink:href="#DejaVuSans-30" x="190.869141"/>
      </g>
     </g>
    </g>
    <g id="xtick_4">
     <g id="line2d_7">
      <path d="M 419.151958 299.078125 
L 419.151958 22.318125 
" clip-path="url(#p015f268d65)" style="fill: none; stroke: #b0b0b0; stroke-opacity: 0.25; stroke-width: 0.8; stroke-linecap: square"/>
     </g>
     <g id="line2d_8">
      <g>
       <use xlink:href="#mfb699b746a" x="419.151958" y="299.078125" style="stroke: #000000; stroke-width: 0.8"/>
      </g>
     </g>
     <g id="text_4">
      <!-- 1500 -->
      <g transform="translate(406.426958 313.676562) scale(0.1 -0.1)">
       <use xlink:href="#DejaVuSans-31"/>
       <use xlink:href="#DejaVuSans-35" x="63.623047"/>
       <use xlink:href="#DejaVuSans-30" x="127.246094"/>
       <use xlink:href="#DejaVuSans-30" x="190.869141"/>
      </g>
     </g>
    </g>
    <g id="xtick_5">
     <g id="line2d_9">
      <path d="M 534.104305 299.078125 
L 534.104305 22.318125 
" clip-path="url(#p015f268d65)" style="fill: none; stroke: #b0b0b0; stroke-opacity: 0.25; stroke-width: 0.8; stroke-linecap: square"/>
     </g>
     <g id="line2d_10">
      <g>
       <use xlink:href="#mfb699b746a" x="534.104305" y="299.078125" style="stroke: #000000; stroke-width: 0.8"/>
      </g>
     </g>
     <g id="text_5">
      <!-- 2000 -->
      <g transform="translate(521.379305 313.676562) scale(0.1 -0.1)">
       <defs>
        <path id="DejaVuSans-32" d="M 1228 531 
L 3431 531 
L 3431 0 
L 469 0 
L 469 531 
Q 828 903 1448 1529 
Q 2069 2156 2228 2338 
Q 2531 2678 2651 2914 
Q 2772 3150 2772 3378 
Q 2772 3750 2511 3984 
Q 2250 4219 1831 4219 
Q 1534 4219 1204 4116 
Q 875 4013 500 3803 
L 500 4441 
Q 881 4594 1212 4672 
Q 1544 4750 1819 4750 
Q 2544 4750 2975 4387 
Q 3406 4025 3406 3419 
Q 3406 3131 3298 2873 
Q 3191 2616 2906 2266 
Q 2828 2175 2409 1742 
Q 1991 1309 1228 531 
z
" transform="scale(0.015625)"/>
       </defs>
       <use xlink:href="#DejaVuSans-32"/>
       <use xlink:href="#DejaVuSans-30" x="63.623047"/>
       <use xlink:href="#DejaVuSans-30" x="127.246094"/>
       <use xlink:href="#DejaVuSans-30" x="190.869141"/>
      </g>
     </g>
    </g>
    <g id="xtick_6">
     <g id="line2d_11">
      <path d="M 649.056652 299.078125 
L 649.056652 22.318125 
" clip-path="url(#p015f268d65)" style="fill: none; stroke: #b0b0b0; stroke-opacity: 0.25; stroke-width: 0.8; stroke-linecap: square"/>
     </g>
     <g id="line2d_12">
      <g>
       <use xlink:href="#mfb699b746a" x="649.056652" y="299.078125" style="stroke: #000000; stroke-width: 0.8"/>
      </g>
     </g>
     <g id="text_6">
      <!-- 2500 -->
      <g transform="translate(636.331652 313.676562) scale(0.1 -0.1)">
       <use xlink:href="#DejaVuSans-32"/>
       <use xlink:href="#DejaVuSans-35" x="63.623047"/>
       <use xlink:href="#DejaVuSans-30" x="127.246094"/>
       <use xlink:href="#DejaVuSans-30" x="190.869141"/>
      </g>
     </g>
    </g>
    <g id="text_7">
     <!-- Inference time (ms) -->
     <g transform="translate(342.6 327.354687) scale(0.1 -0.1)">
      <defs>
       <path id="DejaVuSans-49" d="M 628 4666 
L 1259 4666 
L 1259 0 
L 628 0 
L 628 4666 
z
" transform="scale(0.015625)"/>
       <path id="DejaVuSans-6e" d="M 3513 2113 
L 3513 0 
L 2938 0 
L 2938 2094 
Q 2938 2591 2744 2837 
Q 2550 3084 2163 3084 
Q 1697 3084 1428 2787 
Q 1159 2491 1159 1978 
L 1159 0 
L 581 0 
L 581 3500 
L 1159 3500 
L 1159 2956 
Q 1366 3272 1645 3428 
Q 1925 3584 2291 3584 
Q 2894 3584 3203 3211 
Q 3513 2838 3513 2113 
z
" transform="scale(0.015625)"/>
       <path id="DejaVuSans-66" d="M 2375 4863 
L 2375 4384 
L 1825 4384 
Q 1516 4384 1395 4259 
Q 1275 4134 1275 3809 
L 1275 3500 
L 2222 3500 
L 2222 3053 
L 1275 3053 
L 1275 0 
L 697 0 
L 697 3053 
L 147 3053 
L 147 3500 
L 697 3500 
L 697 3744 
Q 697 4328 969 4595 
Q 1241 4863 1831 4863 
L 2375 4863 
z
" transform="scale(0.015625)"/>
       <path id="DejaVuSans-65" d="M 3597 1894 
L 3597 1613 
L 953 1613 
Q 991 1019 1311 708 
Q 1631 397 2203 397 
Q 2534 397 2845 478 
Q 3156 559 3463 722 
L 3463 178 
Q 3153 47 2828 -22 
Q 2503 -91 2169 -91 
Q 1331 -91 842 396 
Q 353 884 353 1716 
Q 353 2575 817 3079 
Q 1281 3584 2069 3584 
Q 2775 3584 3186 3129 
Q 3597 2675 3597 1894 
z
M 3022 2063 
Q 3016 2534 2758 2815 
Q 2500 3097 2075 3097 
Q 1594 3097 1305 2825 
Q 1016 2553 972 2059 
L 3022 2063 
z
" transform="scale(0.015625)"/>
       <path id="DejaVuSans-72" d="M 2631 2963 
Q 2534 3019 2420 3045 
Q 2306 3072 2169 3072 
Q 1681 3072 1420 2755 
Q 1159 2438 1159 1844 
L 1159 0 
L 581 0 
L 581 3500 
L 1159 3500 
L 1159 2956 
Q 1341 3275 1631 3429 
Q 1922 3584 2338 3584 
Q 2397 3584 2469 3576 
Q 2541 3569 2628 3553 
L 2631 2963 
z
" transform="scale(0.015625)"/>
       <path id="DejaVuSans-63" d="M 3122 3366 
L 3122 2828 
Q 2878 2963 2633 3030 
Q 2388 3097 2138 3097 
Q 1578 3097 1268 2742 
Q 959 2388 959 1747 
Q 959 1106 1268 751 
Q 1578 397 2138 397 
Q 2388 397 2633 464 
Q 2878 531 3122 666 
L 3122 134 
Q 2881 22 2623 -34 
Q 2366 -91 2075 -91 
Q 1284 -91 818 406 
Q 353 903 353 1747 
Q 353 2603 823 3093 
Q 1294 3584 2113 3584 
Q 2378 3584 2631 3529 
Q 2884 3475 3122 3366 
z
" transform="scale(0.015625)"/>
       <path id="DejaVuSans-20" transform="scale(0.015625)"/>
       <path id="DejaVuSans-74" d="M 1172 4494 
L 1172 3500 
L 2356 3500 
L 2356 3053 
L 1172 3053 
L 1172 1153 
Q 1172 725 1289 603 
Q 1406 481 1766 481 
L 2356 481 
L 2356 0 
L 1766 0 
Q 1100 0 847 248 
Q 594 497 594 1153 
L 594 3053 
L 172 3053 
L 172 3500 
L 594 3500 
L 594 4494 
L 1172 4494 
z
" transform="scale(0.015625)"/>
       <path id="DejaVuSans-69" d="M 603 3500 
L 1178 3500 
L 1178 0 
L 603 0 
L 603 3500 
z
M 603 4863 
L 1178 4863 
L 1178 4134 
L 603 4134 
L 603 4863 
z
" transform="scale(0.015625)"/>
       <path id="DejaVuSans-6d" d="M 3328 2828 
Q 3544 3216 3844 3400 
Q 4144 3584 4550 3584 
Q 5097 3584 5394 3201 
Q 5691 2819 5691 2113 
L 5691 0 
L 5113 0 
L 5113 2094 
Q 5113 2597 4934 2840 
Q 4756 3084 4391 3084 
Q 3944 3084 3684 2787 
Q 3425 2491 3425 1978 
L 3425 0 
L 2847 0 
L 2847 2094 
Q 2847 2600 2669 2842 
Q 2491 3084 2119 3084 
Q 1678 3084 1418 2786 
Q 1159 2488 1159 1978 
L 1159 0 
L 581 0 
L 581 3500 
L 1159 3500 
L 1159 2956 
Q 1356 3278 1631 3431 
Q 1906 3584 2284 3584 
Q 2666 3584 2933 3390 
Q 3200 3197 3328 2828 
z
" transform="scale(0.015625)"/>
       <path id="DejaVuSans-28" d="M 1984 4856 
Q 1566 4138 1362 3434 
Q 1159 2731 1159 2009 
Q 1159 1288 1364 580 
Q 1569 -128 1984 -844 
L 1484 -844 
Q 1016 -109 783 600 
Q 550 1309 550 2009 
Q 550 2706 781 3412 
Q 1013 4119 1484 4856 
L 1984 4856 
z
" transform="scale(0.015625)"/>
       <path id="DejaVuSans-73" d="M 2834 3397 
L 2834 2853 
Q 2591 2978 2328 3040 
Q 2066 3103 1784 3103 
Q 1356 3103 1142 2972 
Q 928 2841 928 2578 
Q 928 2378 1081 2264 
Q 1234 2150 1697 2047 
L 1894 2003 
Q 2506 1872 2764 1633 
Q 3022 1394 3022 966 
Q 3022 478 2636 193 
Q 2250 -91 1575 -91 
Q 1294 -91 989 -36 
Q 684 19 347 128 
L 347 722 
Q 666 556 975 473 
Q 1284 391 1588 391 
Q 1994 391 2212 530 
Q 2431 669 2431 922 
Q 2431 1156 2273 1281 
Q 2116 1406 1581 1522 
L 1381 1569 
Q 847 1681 609 1914 
Q 372 2147 372 2553 
Q 372 3047 722 3315 
Q 1072 3584 1716 3584 
Q 2034 3584 2315 3537 
Q 2597 3491 2834 3397 
z
" transform="scale(0.015625)"/>
       <path id="DejaVuSans-29" d="M 513 4856 
L 1013 4856 
Q 1481 4119 1714 3412 
Q 1947 2706 1947 2009 
Q 1947 1309 1714 600 
Q 1481 -109 1013 -844 
L 513 -844 
Q 928 -128 1133 580 
Q 1338 1288 1338 2009 
Q 1338 2731 1133 3434 
Q 928 4138 513 4856 
z
" transform="scale(0.015625)"/>
      </defs>
      <use xlink:href="#DejaVuSans-49"/>
      <use xlink:href="#DejaVuSans-6e" x="29.492188"/>
      <use xlink:href="#DejaVuSans-66" x="92.871094"/>
      <use xlink:href="#DejaVuSans-65" x="128.076172"/>
      <use xlink:href="#DejaVuSans-72" x="189.599609"/>
      <use xlink:href="#DejaVuSans-65" x="228.462891"/>
      <use xlink:href="#DejaVuSans-6e" x="289.986328"/>
      <use xlink:href="#DejaVuSans-63" x="353.365234"/>
      <use xlink:href="#DejaVuSans-65" x="408.345703"/>
      <use xlink:href="#DejaVuSans-20" x="469.869141"/>
      <use xlink:href="#DejaVuSans-74" x="501.65625"/>
      <use xlink:href="#DejaVuSans-69" x="540.865234"/>
      <use xlink:href="#DejaVuSans-6d" x="568.648438"/>
      <use xlink:href="#DejaVuSans-65" x="666.060547"/>
      <use xlink:href="#DejaVuSans-20" x="727.583984"/>
      <use xlink:href="#DejaVuSans-28" x="759.371094"/>
      <use xlink:href="#DejaVuSans-6d" x="798.384766"/>
      <use xlink:href="#DejaVuSans-73" x="895.796875"/>
      <use xlink:href="#DejaVuSans-29" x="947.896484"/>
     </g>
    </g>
   </g>
   <g id="matplotlib.axis_2">
    <g id="ytick_1">
     <g id="line2d_13">
      <path d="M 42.620313 289.934212 
L 741.270313 289.934212 
" clip-path="url(#p015f268d65)" style="fill: none; stroke: #b0b0b0; stroke-opacity: 0.25; stroke-width: 0.8; stroke-linecap: square"/>
     </g>
     <g id="line2d_14">
      <defs>
       <path id="m0dff24abb9" d="M 0 0 
L -3.5 0 
" style="stroke: #000000; stroke-width: 0.8"/>
      </defs>
      <g>
       <use xlink:href="#m0dff24abb9" x="42.620313" y="289.934212" style="stroke: #000000; stroke-width: 0.8"/>
      </g>
     </g>
     <g id="text_8">
      <!-- −4 -->
      <g transform="translate(20.878125 293.73343) scale(0.1 -0.1)">
       <defs>
        <path id="DejaVuSans-2212" d="M 678 2272 
L 4684 2272 
L 4684 1741 
L 678 1741 
L 678 2272 
z
" transform="scale(0.015625)"/>
        <path id="DejaVuSans-34" d="M 2419 4116 
L 825 1625 
L 2419 1625 
L 2419 4116 
z
M 2253 4666 
L 3047 4666 
L 3047 1625 
L 3713 1625 
L 3713 1100 
L 3047 1100 
L 3047 0 
L 2419 0 
L 2419 1100 
L 313 1100 
L 313 1709 
L 2253 4666 
z
" transform="scale(0.015625)"/>
       </defs>
       <use xlink:href="#DejaVuSans-2212"/>
       <use xlink:href="#DejaVuSans-34" x="83.789062"/>
      </g>
     </g>
    </g>
    <g id="ytick_2">
     <g id="line2d_15">
      <path d="M 42.620313 251.646913 
L 741.270313 251.646913 
" clip-path="url(#p015f268d65)" style="fill: none; stroke: #b0b0b0; stroke-opacity: 0.25; stroke-width: 0.8; stroke-linecap: square"/>
     </g>
     <g id="line2d_16">
      <g>
       <use xlink:href="#m0dff24abb9" x="42.620313" y="251.646913" style="stroke: #000000; stroke-width: 0.8"/>
      </g>
     </g>
     <g id="text_9">
      <!-- −2 -->
      <g transform="translate(20.878125 255.446132) scale(0.1 -0.1)">
       <use xlink:href="#DejaVuSans-2212"/>
       <use xlink:href="#DejaVuSans-32" x="83.789062"/>
      </g>
     </g>
    </g>
    <g id="ytick_3">
     <g id="line2d_17">
      <path d="M 42.620313 213.359615 
L 741.270313 213.359615 
" clip-path="url(#p015f268d65)" style="fill: none; stroke: #b0b0b0; stroke-opacity: 0.25; stroke-width: 0.8; stroke-linecap: square"/>
     </g>
     <g id="line2d_18">
      <g>
       <use xlink:href="#m0dff24abb9" x="42.620313" y="213.359615" style="stroke: #000000; stroke-width: 0.8"/>
      </g>
     </g>
     <g id="text_10">
      <!-- 0 -->
      <g transform="translate(29.257813 217.158833) scale(0.1 -0.1)">
       <use xlink:href="#DejaVuSans-30"/>
      </g>
     </g>
    </g>
    <g id="ytick_4">
     <g id="line2d_19">
      <path d="M 42.620313 175.072316 
L 741.270313 175.072316 
" clip-path="url(#p015f268d65)" style="fill: none; stroke: #b0b0b0; stroke-opacity: 0.25; stroke-width: 0.8; stroke-linecap: square"/>
     </g>
     <g id="line2d_20">
      <g>
       <use xlink:href="#m0dff24abb9" x="42.620313" y="175.072316" style="stroke: #000000; stroke-width: 0.8"/>
      </g>
     </g>
     <g id="text_11">
      <!-- 2 -->
      <g transform="translate(29.257813 178.871535) scale(0.1 -0.1)">
       <use xlink:href="#DejaVuSans-32"/>
      </g>
     </g>
    </g>
    <g id="ytick_5">
     <g id="line2d_21">
      <path d="M 42.620313 136.785018 
L 741.270313 136.785018 
" clip-path="url(#p015f268d65)" style="fill: none; stroke: #b0b0b0; stroke-opacity: 0.25; stroke-width: 0.8; stroke-linecap: square"/>
     </g>
     <g id="line2d_22">
      <g>
       <use xlink:href="#m0dff24abb9" x="42.620313" y="136.785018" style="stroke: #000000; stroke-width: 0.8"/>
      </g>
     </g>
     <g id="text_12">
      <!-- 4 -->
      <g transform="translate(29.257813 140.584236) scale(0.1 -0.1)">
       <use xlink:href="#DejaVuSans-34"/>
      </g>
     </g>
    </g>
    <g id="ytick_6">
     <g id="line2d_23">
      <path d="M 42.620313 98.497719 
L 741.270313 98.497719 
" clip-path="url(#p015f268d65)" style="fill: none; stroke: #b0b0b0; stroke-opacity: 0.25; stroke-width: 0.8; stroke-linecap: square"/>
     </g>
     <g id="line2d_24">
      <g>
       <use xlink:href="#m0dff24abb9" x="42.620313" y="98.497719" style="stroke: #000000; stroke-width: 0.8"/>
      </g>
     </g>
     <g id="text_13">
      <!-- 6 -->
      <g transform="translate(29.257813 102.296938) scale(0.1 -0.1)">
       <defs>
        <path id="DejaVuSans-36" d="M 2113 2584 
Q 1688 2584 1439 2293 
Q 1191 2003 1191 1497 
Q 1191 994 1439 701 
Q 1688 409 2113 409 
Q 2538 409 2786 701 
Q 3034 994 3034 1497 
Q 3034 2003 2786 2293 
Q 2538 2584 2113 2584 
z
M 3366 4563 
L 3366 3988 
Q 3128 4100 2886 4159 
Q 2644 4219 2406 4219 
Q 1781 4219 1451 3797 
Q 1122 3375 1075 2522 
Q 1259 2794 1537 2939 
Q 1816 3084 2150 3084 
Q 2853 3084 3261 2657 
Q 3669 2231 3669 1497 
Q 3669 778 3244 343 
Q 2819 -91 2113 -91 
Q 1303 -91 875 529 
Q 447 1150 447 2328 
Q 447 3434 972 4092 
Q 1497 4750 2381 4750 
Q 2619 4750 2861 4703 
Q 3103 4656 3366 4563 
z
" transform="scale(0.015625)"/>
       </defs>
       <use xlink:href="#DejaVuSans-36"/>
      </g>
     </g>
    </g>
    <g id="ytick_7">
     <g id="line2d_25">
      <path d="M 42.620313 60.210421 
L 741.270313 60.210421 
" clip-path="url(#p015f268d65)" style="fill: none; stroke: #b0b0b0; stroke-opacity: 0.25; stroke-width: 0.8; stroke-linecap: square"/>
     </g>
     <g id="line2d_26">
      <g>
       <use xlink:href="#m0dff24abb9" x="42.620313" y="60.210421" style="stroke: #000000; stroke-width: 0.8"/>
      </g>
     </g>
     <g id="text_14">
      <!-- 8 -->
      <g transform="translate(29.257813 64.00964) scale(0.1 -0.1)">
       <defs>
        <path id="DejaVuSans-38" d="M 2034 2216 
Q 1584 2216 1326 1975 
Q 1069 1734 1069 1313 
Q 1069 891 1326 650 
Q 1584 409 2034 409 
Q 2484 409 2743 651 
Q 3003 894 3003 1313 
Q 3003 1734 2745 1975 
Q 2488 2216 2034 2216 
z
M 1403 2484 
Q 997 2584 770 2862 
Q 544 3141 544 3541 
Q 544 4100 942 4425 
Q 1341 4750 2034 4750 
Q 2731 4750 3128 4425 
Q 3525 4100 3525 3541 
Q 3525 3141 3298 2862 
Q 3072 2584 2669 2484 
Q 3125 2378 3379 2068 
Q 3634 1759 3634 1313 
Q 3634 634 3220 271 
Q 2806 -91 2034 -91 
Q 1263 -91 848 271 
Q 434 634 434 1313 
Q 434 1759 690 2068 
Q 947 2378 1403 2484 
z
M 1172 3481 
Q 1172 3119 1398 2916 
Q 1625 2713 2034 2713 
Q 2441 2713 2670 2916 
Q 2900 3119 2900 3481 
Q 2900 3844 2670 4047 
Q 2441 4250 2034 4250 
Q 1625 4250 1398 4047 
Q 1172 3844 1172 3481 
z
" transform="scale(0.015625)"/>
       </defs>
       <use xlink:href="#DejaVuSans-38"/>
      </g>
     </g>
    </g>
    <g id="text_15">
     <!-- Macro SNR (dB) -->
     <g transform="translate(14.798438 199.90125) rotate(-90) scale(0.1 -0.1)">
      <defs>
       <path id="DejaVuSans-4d" d="M 628 4666 
L 1569 4666 
L 2759 1491 
L 3956 4666 
L 4897 4666 
L 4897 0 
L 4281 0 
L 4281 4097 
L 3078 897 
L 2444 897 
L 1241 4097 
L 1241 0 
L 628 0 
L 628 4666 
z
" transform="scale(0.015625)"/>
       <path id="DejaVuSans-61" d="M 2194 1759 
Q 1497 1759 1228 1600 
Q 959 1441 959 1056 
Q 959 750 1161 570 
Q 1363 391 1709 391 
Q 2188 391 2477 730 
Q 2766 1069 2766 1631 
L 2766 1759 
L 2194 1759 
z
M 3341 1997 
L 3341 0 
L 2766 0 
L 2766 531 
Q 2569 213 2275 61 
Q 1981 -91 1556 -91 
Q 1019 -91 701 211 
Q 384 513 384 1019 
Q 384 1609 779 1909 
Q 1175 2209 1959 2209 
L 2766 2209 
L 2766 2266 
Q 2766 2663 2505 2880 
Q 2244 3097 1772 3097 
Q 1472 3097 1187 3025 
Q 903 2953 641 2809 
L 641 3341 
Q 956 3463 1253 3523 
Q 1550 3584 1831 3584 
Q 2591 3584 2966 3190 
Q 3341 2797 3341 1997 
z
" transform="scale(0.015625)"/>
       <path id="DejaVuSans-6f" d="M 1959 3097 
Q 1497 3097 1228 2736 
Q 959 2375 959 1747 
Q 959 1119 1226 758 
Q 1494 397 1959 397 
Q 2419 397 2687 759 
Q 2956 1122 2956 1747 
Q 2956 2369 2687 2733 
Q 2419 3097 1959 3097 
z
M 1959 3584 
Q 2709 3584 3137 3096 
Q 3566 2609 3566 1747 
Q 3566 888 3137 398 
Q 2709 -91 1959 -91 
Q 1206 -91 779 398 
Q 353 888 353 1747 
Q 353 2609 779 3096 
Q 1206 3584 1959 3584 
z
" transform="scale(0.015625)"/>
       <path id="DejaVuSans-53" d="M 3425 4513 
L 3425 3897 
Q 3066 4069 2747 4153 
Q 2428 4238 2131 4238 
Q 1616 4238 1336 4038 
Q 1056 3838 1056 3469 
Q 1056 3159 1242 3001 
Q 1428 2844 1947 2747 
L 2328 2669 
Q 3034 2534 3370 2195 
Q 3706 1856 3706 1288 
Q 3706 609 3251 259 
Q 2797 -91 1919 -91 
Q 1588 -91 1214 -16 
Q 841 59 441 206 
L 441 856 
Q 825 641 1194 531 
Q 1563 422 1919 422 
Q 2459 422 2753 634 
Q 3047 847 3047 1241 
Q 3047 1584 2836 1778 
Q 2625 1972 2144 2069 
L 1759 2144 
Q 1053 2284 737 2584 
Q 422 2884 422 3419 
Q 422 4038 858 4394 
Q 1294 4750 2059 4750 
Q 2388 4750 2728 4690 
Q 3069 4631 3425 4513 
z
" transform="scale(0.015625)"/>
       <path id="DejaVuSans-4e" d="M 628 4666 
L 1478 4666 
L 3547 763 
L 3547 4666 
L 4159 4666 
L 4159 0 
L 3309 0 
L 1241 3903 
L 1241 0 
L 628 0 
L 628 4666 
z
" transform="scale(0.015625)"/>
       <path id="DejaVuSans-52" d="M 2841 2188 
Q 3044 2119 3236 1894 
Q 3428 1669 3622 1275 
L 4263 0 
L 3584 0 
L 2988 1197 
Q 2756 1666 2539 1819 
Q 2322 1972 1947 1972 
L 1259 1972 
L 1259 0 
L 628 0 
L 628 4666 
L 2053 4666 
Q 2853 4666 3247 4331 
Q 3641 3997 3641 3322 
Q 3641 2881 3436 2590 
Q 3231 2300 2841 2188 
z
M 1259 4147 
L 1259 2491 
L 2053 2491 
Q 2509 2491 2742 2702 
Q 2975 2913 2975 3322 
Q 2975 3731 2742 3939 
Q 2509 4147 2053 4147 
L 1259 4147 
z
" transform="scale(0.015625)"/>
       <path id="DejaVuSans-64" d="M 2906 2969 
L 2906 4863 
L 3481 4863 
L 3481 0 
L 2906 0 
L 2906 525 
Q 2725 213 2448 61 
Q 2172 -91 1784 -91 
Q 1150 -91 751 415 
Q 353 922 353 1747 
Q 353 2572 751 3078 
Q 1150 3584 1784 3584 
Q 2172 3584 2448 3432 
Q 2725 3281 2906 2969 
z
M 947 1747 
Q 947 1113 1208 752 
Q 1469 391 1925 391 
Q 2381 391 2643 752 
Q 2906 1113 2906 1747 
Q 2906 2381 2643 2742 
Q 2381 3103 1925 3103 
Q 1469 3103 1208 2742 
Q 947 2381 947 1747 
z
" transform="scale(0.015625)"/>
       <path id="DejaVuSans-42" d="M 1259 2228 
L 1259 519 
L 2272 519 
Q 2781 519 3026 730 
Q 3272 941 3272 1375 
Q 3272 1813 3026 2020 
Q 2781 2228 2272 2228 
L 1259 2228 
z
M 1259 4147 
L 1259 2741 
L 2194 2741 
Q 2656 2741 2882 2914 
Q 3109 3088 3109 3444 
Q 3109 3797 2882 3972 
Q 2656 4147 2194 4147 
L 1259 4147 
z
M 628 4666 
L 2241 4666 
Q 2963 4666 3353 4366 
Q 3744 4066 3744 3513 
Q 3744 3084 3544 2831 
Q 3344 2578 2956 2516 
Q 3422 2416 3680 2098 
Q 3938 1781 3938 1306 
Q 3938 681 3513 340 
Q 3088 0 2303 0 
L 628 0 
L 628 4666 
z
" transform="scale(0.015625)"/>
      </defs>
      <use xlink:href="#DejaVuSans-4d"/>
      <use xlink:href="#DejaVuSans-61" x="86.279297"/>
      <use xlink:href="#DejaVuSans-63" x="147.558594"/>
      <use xlink:href="#DejaVuSans-72" x="202.539062"/>
      <use xlink:href="#DejaVuSans-6f" x="241.402344"/>
      <use xlink:href="#DejaVuSans-20" x="302.583984"/>
      <use xlink:href="#DejaVuSans-53" x="334.371094"/>
      <use xlink:href="#DejaVuSans-4e" x="397.847656"/>
      <use xlink:href="#DejaVuSans-52" x="472.652344"/>
      <use xlink:href="#DejaVuSans-20" x="542.134766"/>
      <use xlink:href="#DejaVuSans-28" x="573.921875"/>
      <use xlink:href="#DejaVuSans-64" x="612.935547"/>
      <use xlink:href="#DejaVuSans-42" x="676.412109"/>
      <use xlink:href="#DejaVuSans-29" x="745.015625"/>
     </g>
    </g>
   </g>
   <g id="patch_3">
    <path d="M 42.620313 299.078125 
L 42.620313 22.318125 
" style="fill: none; stroke: #000000; stroke-width: 0.8; stroke-linejoin: miter; stroke-linecap: square"/>
   </g>
   <g id="patch_4">
    <path d="M 741.270313 299.078125 
L 741.270313 22.318125 
" style="fill: none; stroke: #000000; stroke-width: 0.8; stroke-linejoin: miter; stroke-linecap: square"/>
   </g>
   <g id="patch_5">
    <path d="M 42.620313 299.078125 
L 741.270313 299.078125 
" style="fill: none; stroke: #000000; stroke-width: 0.8; stroke-linejoin: miter; stroke-linecap: square"/>
   </g>
   <g id="patch_6">
    <path d="M 42.620313 22.318125 
L 741.270313 22.318125 
" style="fill: none; stroke: #000000; stroke-width: 0.8; stroke-linejoin: miter; stroke-linecap: square"/>
   </g>
   <g id="text_16">
    <!-- TasNet -->
    <g transform="translate(127.557039 29.898125) scale(0.08 -0.08)">
     <defs>
      <path id="DejaVuSans-54" d="M -19 4666 
L 3928 4666 
L 3928 4134 
L 2272 4134 
L 2272 0 
L 1638 0 
L 1638 4134 
L -19 4134 
L -19 4666 
z
" transform="scale(0.015625)"/>
     </defs>
     <use xlink:href="#DejaVuSans-54"/>
     <use xlink:href="#DejaVuSans-61" x="44.583984"/>
     <use xlink:href="#DejaVuSans-73" x="105.863281"/>
     <use xlink:href="#DejaVuSans-4e" x="157.962891"/>
     <use xlink:href="#DejaVuSans-65" x="232.767578"/>
     <use xlink:href="#DejaVuSans-74" x="294.291016"/>
    </g>
   </g>
   <g id="text_17">
    <!-- Macro SNR vs inference time -->
    <g transform="translate(305.372813 16.318125) scale(0.12 -0.12)">
     <defs>
      <path id="DejaVuSans-76" d="M 191 3500 
L 800 3500 
L 1894 563 
L 2988 3500 
L 3597 3500 
L 2284 0 
L 1503 0 
L 191 3500 
z
" transform="scale(0.015625)"/>
     </defs>
     <use xlink:href="#DejaVuSans-4d"/>
     <use xlink:href="#DejaVuSans-61" x="86.279297"/>
     <use xlink:href="#DejaVuSans-63" x="147.558594"/>
     <use xlink:href="#DejaVuSans-72" x="202.539062"/>
     <use xlink:href="#DejaVuSans-6f" x="241.402344"/>
     <use xlink:href="#DejaVuSans-20" x="302.583984"/>
     <use xlink:href="#DejaVuSans-53" x="334.371094"/>
     <use xlink:href="#DejaVuSans-4e" x="397.847656"/>
     <use xlink:href="#DejaVuSans-52" x="472.652344"/>
     <use xlink:href="#DejaVuSans-20" x="542.134766"/>
     <use xlink:href="#DejaVuSans-76" x="573.921875"/>
     <use xlink:href="#DejaVuSans-73" x="633.101562"/>
     <use xlink:href="#DejaVuSans-20" x="685.201172"/>
     <use xlink:href="#DejaVuSans-69" x="716.988281"/>
     <use xlink:href="#DejaVuSans-6e" x="744.771484"/>
     <use xlink:href="#DejaVuSans-66" x="808.150391"/>
     <use xlink:href="#DejaVuSans-65" x="843.355469"/>
     <use xlink:href="#DejaVuSans-72" x="904.878906"/>
     <use xlink:href="#DejaVuSans-65" x="943.742188"/>
     <use xlink:href="#DejaVuSans-6e" x="1005.265625"/>
     <use xlink:href="#DejaVuSans-63" x="1068.644531"/>
     <use xlink:href="#DejaVuSans-65" x="1123.625"/>
     <use xlink:href="#DejaVuSans-20" x="1185.148438"/>
     <use xlink:href="#DejaVuSans-74" x="1216.935547"/>
     <use xlink:href="#DejaVuSans-69" x="1256.144531"/>
     <use xlink:href="#DejaVuSans-6d" x="1283.927734"/>
     <use xlink:href="#DejaVuSans-65" x="1381.339844"/>
    </g>
   </g>
   <g id="legend_1">
    <g id="patch_7">
     <path d="M 679.607813 59.674375 
L 734.270313 59.674375 
Q 736.270313 59.674375 736.270313 57.674375 
L 736.270313 29.318125 
Q 736.270313 27.318125 734.270313 27.318125 
L 679.607813 27.318125 
Q 677.607813 27.318125 677.607813 29.318125 
L 677.607813 57.674375 
Q 677.607813 59.674375 679.607813 59.674375 
z
" style="fill: #ffffff; opacity: 0.8; stroke: #cccccc; stroke-linejoin: miter"/>
    </g>
    <g id="PathCollection_3">
     <g>
      <use xlink:href="#mdaa174c498" x="691.607813" y="36.291562" style="fill: #d62728; fill-opacity: 0.85; stroke: #d62728; stroke-opacity: 0.85"/>
     </g>
    </g>
    <g id="text_18">
     <!-- DNN -->
     <g transform="translate(709.607813 38.916562) scale(0.1 -0.1)">
      <defs>
       <path id="DejaVuSans-44" d="M 1259 4147 
L 1259 519 
L 2022 519 
Q 2988 519 3436 956 
Q 3884 1394 3884 2338 
Q 3884 3275 3436 3711 
Q 2988 4147 2022 4147 
L 1259 4147 
z
M 628 4666 
L 1925 4666 
Q 3281 4666 3915 4102 
Q 4550 3538 4550 2338 
Q 4550 1131 3912 565 
Q 3275 0 1925 0 
L 628 0 
L 628 4666 
z
" transform="scale(0.015625)"/>
      </defs>
      <use xlink:href="#DejaVuSans-44"/>
      <use xlink:href="#DejaVuSans-4e" x="77.001953"/>
      <use xlink:href="#DejaVuSans-4e" x="151.806641"/>
     </g>
    </g>
    <g id="PathCollection_4">
     <g>
      <use xlink:href="#m0bc71dfb06" x="691.607813" y="50.969687" style="fill: #1f77b4; fill-opacity: 0.85; stroke: #1f77b4; stroke-opacity: 0.85"/>
     </g>
    </g>
    <g id="text_19">
     <!-- SNN -->
     <g transform="translate(709.607813 53.594687) scale(0.1 -0.1)">
      <use xlink:href="#DejaVuSans-53"/>
      <use xlink:href="#DejaVuSans-4e" x="63.476562"/>
      <use xlink:href="#DejaVuSans-4e" x="138.28125"/>
     </g>
    </g>
   </g>
  </g>
 </g>
 <defs>
  <clipPath id="p015f268d65">
   <rect x="42.620313" y="22.318125" width="698.65" height="276.76"/>
  </clipPath>
 </defs>
</svg>
