<?xml version="1.0" encoding="utf-8" standalone="no"?>
<!DOCTYPE svg PUBLIC "-//W3C//DTD SVG 1.1//EN"
  "http://www.w3.org/Graphics/SVG/1.1/DTD/svg11.dtd">
<svg xmlns:xlink="http://www.w3.org/1999/xlink" width="748.46125pt" height="336.634375pt" viewBox="0 0 748.46125 336.634375" xmlns="http://www.w3.org/2000/svg" version="1.1">
 <metadata>
  <rdf:RDF xmlns:dc="http://purl.org/dc/elements/1.1/" xmlns:cc="http://creativecommons.org/ns#" xmlns:rdf="http://www.w3.org/1999/02/22-rdf-syntax-ns#">
   <cc:Work>
    <dc:type rdf:resource="http://purl.org/dc/dcmitype/StillImage"/>
    <dc:date>2026-05-25T16:14:28.048891</dc:date>
    <dc:format>image/svg+xml</dc:format>
    <dc:creator>
     <cc:Agent>
      <dc:title>Matplotlib v3.9.4, https://matplotlib.org/</dc:title>
     </cc:Agent>
    </dc:creator>
   </cc:Work>
  </rdf:RDF>
 </metadata>
 <defs>
  <style type="text/css">*{stroke-linejoin: round; stroke-linecap: butt}</style>
 </defs>
 <g id="figure_1">
  <g id="patch_1">
   <path d="M 0 336.634375 
L 748.46125 336.634375 
L 748.46125 0 
L 0 0 
z
" style="fill: #ffffff"/>
  </g>
  <g id="axes_1">
   <g id="patch_2">
    <path d="M 43.78125 299.078125 
L 741.26125 299.078125 
L 741.26125 22.318125 
L 43.78125 22.318125 
z
" style="fill: #ffffff"/>
   </g>
   <g id="PathCollection_1">
    <path d="M 105.382805 176.844459 
C 105.926521 176.844459 106.448041 176.628439 106.832506 176.243973 
C 107.216971 175.859508 107.432992 175.337988 107.432992 174.794272 
C 107.432992 174.250556 107.216971 173.729036 106.832506 173.344571 
C 106.448041 172.960106 105.926521 172.744085 105.382805 172.744085 
C 104.839089 172.744085 104.317569 172.960106 103.933104 173.344571 
C 103.548638 173.729036 103.332618 174.250556 103.332618 174.794272 
C 103.332618 175.337988 103.548638 175.859508 103.933104 176.243973 
C 104.317569 176.628439 104.839089 176.844459 105.382805 176.844459 
z
" clip-path="url(#p541c398fdb)" style="fill: #d62728; fill-opacity: 0.7; stroke: #d62728; stroke-opacity: 0.7"/>
    <path d="M 90.291603 203.514712 
C 91.512403 203.514712 92.683365 203.029683 93.546601 202.166448 
C 94.409836 201.303213 94.894865 200.13225 94.894865 198.911451 
C 94.894865 197.690651 94.409836 196.519689 93.546601 195.656453 
C 92.683365 194.793218 91.512403 194.308189 90.291603 194.308189 
C 89.070804 194.308189 87.899841 194.793218 87.036606 195.656453 
C 86.173371 196.519689 85.688342 197.690651 85.688342 198.911451 
C 85.688342 200.13225 86.173371 201.303213 87.036606 202.166448 
C 87.899841 203.029683 89.070804 203.514712 90.291603 203.514712 
z
" clip-path="url(#p541c398fdb)" style="fill: #d62728; fill-opacity: 0.7; stroke: #d62728; stroke-opacity: 0.7"/>
    <path d="M 100.219713 197.774162 
C 101.440512 197.774162 102.611475 197.289133 103.47471 196.425898 
C 104.337945 195.562662 104.822974 194.3917 104.822974 193.1709 
C 104.822974 191.950101 104.337945 190.779138 103.47471 189.915903 
C 102.611475 189.052668 101.440512 188.567639 100.219713 188.567639 
C 98.998913 188.567639 97.827951 189.052668 96.964715 189.915903 
C 96.10148 190.779138 95.616451 191.950101 95.616451 193.1709 
C 95.616451 194.3917 96.10148 195.562662 96.964715 196.425898 
C 97.827951 197.289133 98.998913 197.774162 100.219713 197.774162 
z
" clip-path="url(#p541c398fdb)" style="fill: #d62728; fill-opacity: 0.7; stroke: #d62728; stroke-opacity: 0.7"/>
    <path d="M 140.229287 134.366675 
C 141.450086 134.366675 142.621049 133.881646 143.484285 133.018411 
C 144.34752 132.155175 144.832549 130.984213 144.832549 129.763413 
C 144.832549 128.542614 144.34752 127.371651 143.484285 126.508416 
C 142.621049 125.645181 141.450086 125.160152 140.229287 125.160152 
C 139.008488 125.160152 137.837525 125.645181 136.97429 126.508416 
C 136.111054 127.371651 135.626026 128.542614 135.626026 129.763413 
C 135.626026 130.984213 136.111054 132.155175 136.97429 133.018411 
C 137.837525 133.881646 139.008488 134.366675 140.229287 134.366675 
z
" clip-path="url(#p541c398fdb)" style="fill: #d62728; fill-opacity: 0.7; stroke: #d62728; stroke-opacity: 0.7"/>
    <path d="M 201.660709 104.456687 
C 202.881508 104.456687 204.052471 103.971658 204.915707 103.108423 
C 205.778942 102.245188 206.263971 101.074225 206.263971 99.853426 
C 206.263971 98.632627 205.778942 97.461664 204.915707 96.598428 
C 204.052471 95.735193 202.881508 95.250164 201.660709 95.250164 
C 200.43991 95.250164 199.268947 95.735193 198.405712 96.598428 
C 197.542476 97.461664 197.057448 98.632627 197.057448 99.853426 
C 197.057448 101.074225 197.542476 102.245188 198.405712 103.108423 
C 199.268947 103.971658 200.43991 104.456687 201.660709 104.456687 
z
" clip-path="url(#p541c398fdb)" style="fill: #d62728; fill-opacity: 0.7; stroke: #d62728; stroke-opacity: 0.7"/>
    <path d="M 274.967933 92.45381 
C 276.188732 92.45381 277.359695 91.968781 278.22293 91.105546 
C 279.086165 90.24231 279.571194 89.071348 279.571194 87.850548 
C 279.571194 86.629749 279.086165 85.458787 278.22293 84.595551 
C 277.359695 83.732316 276.188732 83.247287 274.967933 83.247287 
C 273.747133 83.247287 272.576171 83.732316 271.712935 84.595551 
C 270.8497 85.458787 270.364671 86.629749 270.364671 87.850548 
C 270.364671 89.071348 270.8497 90.24231 271.712935 91.105546 
C 272.576171 91.968781 273.747133 92.45381 274.967933 92.45381 
z
" clip-path="url(#p541c398fdb)" style="fill: #d62728; fill-opacity: 0.7; stroke: #d62728; stroke-opacity: 0.7"/>
    <path d="M 263.504299 104.692054 
C 264.725099 104.692054 265.896061 104.207025 266.759297 103.34379 
C 267.622532 102.480554 268.107561 101.309592 268.107561 100.088792 
C 268.107561 98.867993 267.622532 97.69703 266.759297 96.833795 
C 265.896061 95.97056 264.725099 95.485531 263.504299 95.485531 
C 262.2835 95.485531 261.112537 95.97056 260.249302 96.833795 
C 259.386067 97.69703 258.901038 98.867993 258.901038 100.088792 
C 258.901038 101.309592 259.386067 102.480554 260.249302 103.34379 
C 261.112537 104.207025 262.2835 104.692054 263.504299 104.692054 
z
" clip-path="url(#p541c398fdb)" style="fill: #d62728; fill-opacity: 0.7; stroke: #d62728; stroke-opacity: 0.7"/>
    <path d="M 324.585277 98.638364 
C 325.806076 98.638364 326.977039 98.153336 327.840274 97.2901 
C 328.70351 96.426865 329.188538 95.255902 329.188538 94.035103 
C 329.188538 92.814304 328.70351 91.643341 327.840274 90.780106 
C 326.977039 89.91687 325.806076 89.431842 324.585277 89.431842 
C 323.364478 89.431842 322.193515 89.91687 321.33028 90.780106 
C 320.467044 91.643341 319.982015 92.814304 319.982015 94.035103 
C 319.982015 95.255902 320.467044 96.426865 321.33028 97.2901 
C 322.193515 98.153336 323.364478 98.638364 324.585277 98.638364 
z
" clip-path="url(#p541c398fdb)" style="fill: #d62728; fill-opacity: 0.7; stroke: #d62728; stroke-opacity: 0.7"/>
    <path d="M 112.713612 158.620496 
C 114.457577 158.620496 116.130348 157.927611 117.363518 156.694442 
C 118.596687 155.461272 119.289572 153.7885 119.289572 152.044535 
C 119.289572 150.30057 118.596687 148.627799 117.363518 147.394629 
C 116.130348 146.16146 114.457577 145.468575 112.713612 145.468575 
C 110.969647 145.468575 109.296875 146.16146 108.063706 147.394629 
C 106.830536 148.627799 106.137651 150.30057 106.137651 152.044535 
C 106.137651 153.7885 106.830536 155.461272 108.063706 156.694442 
C 109.296875 157.927611 110.969647 158.620496 112.713612 158.620496 
z
" clip-path="url(#p541c398fdb)" style="fill: #d62728; fill-opacity: 0.7; stroke: #d62728; stroke-opacity: 0.7"/>
    <path d="M 149.842599 113.690131 
C 151.586564 113.690131 153.259336 112.997246 154.492505 111.764077 
C 155.725675 110.530907 156.418559 108.858136 156.418559 107.114171 
C 156.418559 105.370206 155.725675 103.697434 154.492505 102.464265 
C 153.259336 101.231095 151.586564 100.538211 149.842599 100.538211 
C 148.098634 100.538211 146.425863 101.231095 145.192693 102.464265 
C 143.959524 103.697434 143.266639 105.370206 143.266639 107.114171 
C 143.266639 108.858136 143.959524 110.530907 145.192693 111.764077 
C 146.425863 112.997246 148.098634 113.690131 149.842599 113.690131 
z
" clip-path="url(#p541c398fdb)" style="fill: #d62728; fill-opacity: 0.7; stroke: #d62728; stroke-opacity: 0.7"/>
    <path d="M 248.969493 78.089176 
C 250.713458 78.089176 252.386229 77.396291 253.619399 76.163121 
C 254.852568 74.929952 255.545453 73.25718 255.545453 71.513215 
C 255.545453 69.76925 254.852568 68.096479 253.619399 66.863309 
C 252.386229 65.63014 250.713458 64.937255 248.969493 64.937255 
C 247.225528 64.937255 245.552756 65.63014 244.319587 66.863309 
C 243.086417 68.096479 242.393532 69.76925 242.393532 71.513215 
C 242.393532 73.25718 243.086417 74.929952 244.319587 76.163121 
C 245.552756 77.396291 247.225528 78.089176 248.969493 78.089176 
z
" clip-path="url(#p541c398fdb)" style="fill: #d62728; fill-opacity: 0.7; stroke: #d62728; stroke-opacity: 0.7"/>
    <path d="M 400.853378 52.592781 
C 402.597343 52.592781 404.270115 51.899896 405.503284 50.666727 
C 406.736454 49.433557 407.429338 47.760786 407.429338 46.016821 
C 407.429338 44.272856 406.736454 42.600084 405.503284 41.366915 
C 404.270115 40.133745 402.597343 39.440861 400.853378 39.440861 
C 399.109413 39.440861 397.436641 40.133745 396.203472 41.366915 
C 394.970302 42.600084 394.277418 44.272856 394.277418 46.016821 
C 394.277418 47.760786 394.970302 49.433557 396.203472 50.666727 
C 397.436641 51.899896 399.109413 52.592781 400.853378 52.592781 
z
" clip-path="url(#p541c398fdb)" style="fill: #d62728; fill-opacity: 0.7; stroke: #d62728; stroke-opacity: 0.7"/>
    <path d="M 333.705385 41.568371 
C 335.44935 41.568371 337.122121 40.875486 338.355291 39.642317 
C 339.58846 38.409147 340.281345 36.736376 340.281345 34.992411 
C 340.281345 33.248446 339.58846 31.575674 338.355291 30.342505 
C 337.122121 29.109335 335.44935 28.41645 333.705385 28.41645 
C 331.96142 28.41645 330.288648 29.109335 329.055479 30.342505 
C 327.822309 31.575674 327.129425 33.248446 327.129425 34.992411 
C 327.129425 36.736376 327.822309 38.409147 329.055479 39.642317 
C 330.288648 40.875486 331.96142 41.568371 333.705385 41.568371 
z
" clip-path="url(#p541c398fdb)" style="fill: #d62728; fill-opacity: 0.7; stroke: #d62728; stroke-opacity: 0.7"/>
    <path d="M 542.180294 51.180878 
C 543.924259 51.180878 545.597031 50.487993 546.830201 49.254823 
C 548.06337 48.021654 548.756255 46.348882 548.756255 44.604917 
C 548.756255 42.860952 548.06337 41.188181 546.830201 39.955011 
C 545.597031 38.721842 543.924259 38.028957 542.180294 38.028957 
C 540.436329 38.028957 538.763558 38.721842 537.530388 39.955011 
C 536.297219 41.188181 535.604334 42.860952 535.604334 44.604917 
C 535.604334 46.348882 536.297219 48.021654 537.530388 49.254823 
C 538.763558 50.487993 540.436329 51.180878 542.180294 51.180878 
z
" clip-path="url(#p541c398fdb)" style="fill: #d62728; fill-opacity: 0.7; stroke: #d62728; stroke-opacity: 0.7"/>
    <path d="M 709.557614 41.474085 
C 711.301579 41.474085 712.97435 40.781201 714.20752 39.548031 
C 715.440689 38.314862 716.133574 36.64209 716.133574 34.898125 
C 716.133574 33.15416 715.440689 31.481388 714.20752 30.248219 
C 712.97435 29.015049 711.301579 28.322165 709.557614 28.322165 
C 707.813649 28.322165 706.140877 29.015049 704.907708 30.248219 
C 703.674538 31.481388 702.981653 33.15416 702.981653 34.898125 
C 702.981653 36.64209 703.674538 38.314862 704.907708 39.548031 
C 706.140877 40.781201 707.813649 41.474085 709.557614 41.474085 
z
" clip-path="url(#p541c398fdb)" style="fill: #d62728; fill-opacity: 0.7; stroke: #d62728; stroke-opacity: 0.7"/>
    <path d="M 87.931822 159.058892 
C 89.710858 159.058892 91.41727 158.352073 92.675238 157.094105 
C 93.933207 155.836136 94.640026 154.129725 94.640026 152.350688 
C 94.640026 150.571652 93.933207 148.86524 92.675238 147.607272 
C 91.41727 146.349303 89.710858 145.642484 87.931822 145.642484 
C 86.152785 145.642484 84.446374 146.349303 83.188405 147.607272 
C 81.930437 148.86524 81.223618 150.571652 81.223618 152.350688 
C 81.223618 154.129725 81.930437 155.836136 83.188405 157.094105 
C 84.446374 158.352073 86.152785 159.058892 87.931822 159.058892 
z
" clip-path="url(#p541c398fdb)" style="fill: #d62728; fill-opacity: 0.7; stroke: #d62728; stroke-opacity: 0.7"/>
    <path d="M 94.900965 127.803219 
C 96.680001 127.803219 98.386413 127.0964 99.644381 125.838431 
C 100.90235 124.580462 101.609169 122.874051 101.609169 121.095015 
C 101.609169 119.315978 100.90235 117.609567 99.644381 116.351598 
C 98.386413 115.09363 96.680001 114.386811 94.900965 114.386811 
C 93.121928 114.386811 91.415517 115.09363 90.157548 116.351598 
C 88.89958 117.609567 88.192761 119.315978 88.192761 121.095015 
C 88.192761 122.874051 88.89958 124.580462 90.157548 125.838431 
C 91.415517 127.0964 93.121928 127.803219 94.900965 127.803219 
z
" clip-path="url(#p541c398fdb)" style="fill: #d62728; fill-opacity: 0.7; stroke: #d62728; stroke-opacity: 0.7"/>
    <path d="M 117.274995 93.765369 
C 119.054031 93.765369 120.760443 93.058551 122.018411 91.800582 
C 123.27638 90.542613 123.983199 88.836202 123.983199 87.057166 
C 123.983199 85.278129 123.27638 83.571718 122.018411 82.313749 
C 120.760443 81.05578 119.054031 80.348962 117.274995 80.348962 
C 115.495958 80.348962 113.789547 81.05578 112.531578 82.313749 
C 111.27361 83.571718 110.566791 85.278129 110.566791 87.057166 
C 110.566791 88.836202 111.27361 90.542613 112.531578 91.800582 
C 113.789547 93.058551 115.495958 93.765369 117.274995 93.765369 
z
" clip-path="url(#p541c398fdb)" style="fill: #d62728; fill-opacity: 0.7; stroke: #d62728; stroke-opacity: 0.7"/>
    <path d="M 198.691473 73.413594 
C 200.470509 73.413594 202.176921 72.706776 203.434889 71.448807 
C 204.692858 70.190838 205.399677 68.484427 205.399677 66.70539 
C 205.399677 64.926354 204.692858 63.219943 203.434889 61.961974 
C 202.176921 60.704005 200.470509 59.997186 198.691473 59.997186 
C 196.912436 59.997186 195.206025 60.704005 193.948056 61.961974 
C 192.690088 63.219943 191.983269 64.926354 191.983269 66.70539 
C 191.983269 68.484427 192.690088 70.190838 193.948056 71.448807 
C 195.206025 72.706776 196.912436 73.413594 198.691473 73.413594 
z
" clip-path="url(#p541c398fdb)" style="fill: #d62728; fill-opacity: 0.7; stroke: #d62728; stroke-opacity: 0.7"/>
    <path d="M 144.775905 73.878911 
C 146.554942 73.878911 148.261353 73.172092 149.519322 71.914123 
C 150.77729 70.656154 151.484109 68.949743 151.484109 67.170707 
C 151.484109 65.39167 150.77729 63.685259 149.519322 62.42729 
C 148.261353 61.169322 146.554942 60.462503 144.775905 60.462503 
C 142.996869 60.462503 141.290457 61.169322 140.032489 62.42729 
C 138.77452 63.685259 138.067701 65.39167 138.067701 67.170707 
C 138.067701 68.949743 138.77452 70.656154 140.032489 71.914123 
C 141.290457 73.172092 142.996869 73.878911 144.775905 73.878911 
z
" clip-path="url(#p541c398fdb)" style="fill: #d62728; fill-opacity: 0.7; stroke: #d62728; stroke-opacity: 0.7"/>
    <path d="M 263.176774 72.647209 
C 264.95581 72.647209 266.662221 71.94039 267.92019 70.682421 
C 269.178159 69.424453 269.884978 67.718041 269.884978 65.939005 
C 269.884978 64.159968 269.178159 62.453557 267.92019 61.195588 
C 266.662221 59.93762 264.95581 59.230801 263.176774 59.230801 
C 261.397737 59.230801 259.691326 59.93762 258.433357 61.195588 
C 257.175388 62.453557 256.46857 64.159968 256.46857 65.939005 
C 256.46857 67.718041 257.175388 69.424453 258.433357 70.682421 
C 259.691326 71.94039 261.397737 72.647209 263.176774 72.647209 
z
" clip-path="url(#p541c398fdb)" style="fill: #d62728; fill-opacity: 0.7; stroke: #d62728; stroke-opacity: 0.7"/>
    <path d="M 330.019564 64.656544 
C 331.7986 64.656544 333.505011 63.949725 334.76298 62.691756 
C 336.020949 61.433788 336.727768 59.727376 336.727768 57.94834 
C 336.727768 56.169303 336.020949 54.462892 334.76298 53.204923 
C 333.505011 51.946955 331.7986 51.240136 330.019564 51.240136 
C 328.240527 51.240136 326.534116 51.946955 325.276147 53.204923 
C 324.018178 54.462892 323.31136 56.169303 323.31136 57.94834 
C 323.31136 59.727376 324.018178 61.433788 325.276147 62.691756 
C 326.534116 63.949725 328.240527 64.656544 330.019564 64.656544 
z
" clip-path="url(#p541c398fdb)" style="fill: #d62728; fill-opacity: 0.7; stroke: #d62728; stroke-opacity: 0.7"/>
   </g>
   <g id="PathCollection_2">
    <path d="M 85.51095 175.955764 
C 86.084583 175.955764 86.634798 175.727857 87.040418 175.322238 
C 87.446038 174.916618 87.673944 174.366402 87.673944 173.79277 
C 87.673944 173.219137 87.446038 172.668921 87.040418 172.263301 
C 86.634798 171.857682 86.084583 171.629775 85.51095 171.629775 
C 84.937317 171.629775 84.387101 171.857682 83.981482 172.263301 
C 83.575862 172.668921 83.347955 173.219137 83.347955 173.79277 
C 83.347955 174.366402 83.575862 174.916618 83.981482 175.322238 
C 84.387101 175.727857 84.937317 175.955764 85.51095 175.955764 
z
" clip-path="url(#p541c398fdb)" style="fill: #1f77b4; fill-opacity: 0.7; stroke: #1f77b4; stroke-opacity: 0.7"/>
    <path d="M 91.809374 159.946584 
C 92.383006 159.946584 92.933222 159.718677 93.338842 159.313057 
C 93.744461 158.907438 93.972368 158.357222 93.972368 157.783589 
C 93.972368 157.209956 93.744461 156.659741 93.338842 156.254121 
C 92.933222 155.848501 92.383006 155.620594 91.809374 155.620594 
C 91.235741 155.620594 90.685525 155.848501 90.279905 156.254121 
C 89.874286 156.659741 89.646379 157.209956 89.646379 157.783589 
C 89.646379 158.357222 89.874286 158.907438 90.279905 159.313057 
C 90.685525 159.718677 91.235741 159.946584 91.809374 159.946584 
z
" clip-path="url(#p541c398fdb)" style="fill: #1f77b4; fill-opacity: 0.7; stroke: #1f77b4; stroke-opacity: 0.7"/>
    <path d="M 106.426227 130.500924 
C 106.999859 130.500924 107.550075 130.273017 107.955695 129.867397 
C 108.361314 129.461777 108.589221 128.911562 108.589221 128.337929 
C 108.589221 127.764296 108.361314 127.21408 107.955695 126.808461 
C 107.550075 126.402841 106.999859 126.174934 106.426227 126.174934 
C 105.852594 126.174934 105.302378 126.402841 104.896758 126.808461 
C 104.491139 127.21408 104.263232 127.764296 104.263232 128.337929 
C 104.263232 128.911562 104.491139 129.461777 104.896758 129.867397 
C 105.302378 130.273017 105.852594 130.500924 106.426227 130.500924 
z
" clip-path="url(#p541c398fdb)" style="fill: #1f77b4; fill-opacity: 0.7; stroke: #1f77b4; stroke-opacity: 0.7"/>
    <path d="M 136.551823 115.165645 
C 137.125456 115.165645 137.675671 114.937738 138.081291 114.532118 
C 138.486911 114.126499 138.714818 113.576283 138.714818 113.00265 
C 138.714818 112.429017 138.486911 111.878802 138.081291 111.473182 
C 137.675671 111.067562 137.125456 110.839656 136.551823 110.839656 
C 135.97819 110.839656 135.427975 111.067562 135.022355 111.473182 
C 134.616735 111.878802 134.388828 112.429017 134.388828 113.00265 
C 134.388828 113.576283 134.616735 114.126499 135.022355 114.532118 
C 135.427975 114.937738 135.97819 115.165645 136.551823 115.165645 
z
" clip-path="url(#p541c398fdb)" style="fill: #1f77b4; fill-opacity: 0.7; stroke: #1f77b4; stroke-opacity: 0.7"/>
    <path d="M 195.17693 115.54815 
C 195.750563 115.54815 196.300778 115.320243 196.706398 114.914623 
C 197.112018 114.509004 197.339924 113.958788 197.339924 113.385155 
C 197.339924 112.811522 197.112018 112.261307 196.706398 111.855687 
C 196.300778 111.450067 195.750563 111.222161 195.17693 111.222161 
C 194.603297 111.222161 194.053081 111.450067 193.647461 111.855687 
C 193.241842 112.261307 193.013935 112.811522 193.013935 113.385155 
C 193.013935 113.958788 193.241842 114.509004 193.647461 114.914623 
C 194.053081 115.320243 194.603297 115.54815 195.17693 115.54815 
z
" clip-path="url(#p541c398fdb)" style="fill: #1f77b4; fill-opacity: 0.7; stroke: #1f77b4; stroke-opacity: 0.7"/>
    <path d="M 231.544987 114.522686 
C 232.11862 114.522686 232.668836 114.294779 233.074456 113.889159 
C 233.480075 113.48354 233.707982 112.933324 233.707982 112.359691 
C 233.707982 111.786058 233.480075 111.235843 233.074456 110.830223 
C 232.668836 110.424603 232.11862 110.196697 231.544987 110.196697 
C 230.971354 110.196697 230.421139 110.424603 230.015519 110.830223 
C 229.609899 111.235843 229.381993 111.786058 229.381993 112.359691 
C 229.381993 112.933324 229.609899 113.48354 230.015519 113.889159 
C 230.421139 114.294779 230.971354 114.522686 231.544987 114.522686 
z
" clip-path="url(#p541c398fdb)" style="fill: #1f77b4; fill-opacity: 0.7; stroke: #1f77b4; stroke-opacity: 0.7"/>
    <path d="M 75.484886 289.261579 
C 76.217763 289.261579 76.920721 288.970404 77.438943 288.452182 
C 77.957165 287.93396 78.24834 287.231001 78.24834 286.498125 
C 78.24834 285.765249 77.957165 285.06229 77.438943 284.544068 
C 76.920721 284.025846 76.217763 283.734671 75.484886 283.734671 
C 74.75201 283.734671 74.049052 284.025846 73.53083 284.544068 
C 73.012608 285.06229 72.721433 285.765249 72.721433 286.498125 
C 72.721433 287.231001 73.012608 287.93396 73.53083 288.452182 
C 74.049052 288.970404 74.75201 289.261579 75.484886 289.261579 
z
" clip-path="url(#p541c398fdb)" style="fill: #1f77b4; fill-opacity: 0.7; stroke: #1f77b4; stroke-opacity: 0.7"/>
    <path d="M 82.716853 178.565725 
C 83.222122 178.565725 83.706763 178.36498 84.064042 178.007701 
C 84.421321 177.650423 84.622066 177.165781 84.622066 176.660512 
C 84.622066 176.155244 84.421321 175.670602 84.064042 175.313324 
C 83.706763 174.956045 83.222122 174.7553 82.716853 174.7553 
C 82.211585 174.7553 81.726943 174.956045 81.369665 175.313324 
C 81.012386 175.670602 80.811641 176.155244 80.811641 176.660512 
C 80.811641 177.165781 81.012386 177.650423 81.369665 178.007701 
C 81.726943 178.36498 82.211585 178.565725 82.716853 178.565725 
z
" clip-path="url(#p541c398fdb)" style="fill: #1f77b4; fill-opacity: 0.7; stroke: #1f77b4; stroke-opacity: 0.7"/>
    <path d="M 85.815969 162.558241 
C 86.321237 162.558241 86.805879 162.357496 87.163158 162.000217 
C 87.520436 161.642938 87.721181 161.158296 87.721181 160.653028 
C 87.721181 160.14776 87.520436 159.663118 87.163158 159.305839 
C 86.805879 158.948561 86.321237 158.747815 85.815969 158.747815 
C 85.3107 158.747815 84.826059 158.948561 84.46878 159.305839 
C 84.111501 159.663118 83.910756 160.14776 83.910756 160.653028 
C 83.910756 161.158296 84.111501 161.642938 84.46878 162.000217 
C 84.826059 162.357496 85.3107 162.558241 85.815969 162.558241 
z
" clip-path="url(#p541c398fdb)" style="fill: #1f77b4; fill-opacity: 0.7; stroke: #1f77b4; stroke-opacity: 0.7"/>
    <path d="M 97.792785 135.917112 
C 98.298053 135.917112 98.782695 135.716367 99.139974 135.359088 
C 99.497252 135.00181 99.697997 134.517168 99.697997 134.0119 
C 99.697997 133.506631 99.497252 133.021989 99.139974 132.664711 
C 98.782695 132.307432 98.298053 132.106687 97.792785 132.106687 
C 97.287516 132.106687 96.802875 132.307432 96.445596 132.664711 
C 96.088317 133.021989 95.887572 133.506631 95.887572 134.0119 
C 95.887572 134.517168 96.088317 135.00181 96.445596 135.359088 
C 96.802875 135.716367 97.287516 135.917112 97.792785 135.917112 
z
" clip-path="url(#p541c398fdb)" style="fill: #1f77b4; fill-opacity: 0.7; stroke: #1f77b4; stroke-opacity: 0.7"/>
    <path d="M 110.264787 127.491661 
C 110.770055 127.491661 111.254697 127.290916 111.611975 126.933637 
C 111.969254 126.576359 112.169999 126.091717 112.169999 125.586449 
C 112.169999 125.08118 111.969254 124.596539 111.611975 124.23926 
C 111.254697 123.881981 110.770055 123.681236 110.264787 123.681236 
C 109.759518 123.681236 109.274876 123.881981 108.917598 124.23926 
C 108.560319 124.596539 108.359574 125.08118 108.359574 125.586449 
C 108.359574 126.091717 108.560319 126.576359 108.917598 126.933637 
C 109.274876 127.290916 109.759518 127.491661 110.264787 127.491661 
z
" clip-path="url(#p541c398fdb)" style="fill: #1f77b4; fill-opacity: 0.7; stroke: #1f77b4; stroke-opacity: 0.7"/>
    <path d="M 156.63801 125.606074 
C 157.143278 125.606074 157.62792 125.405329 157.985198 125.04805 
C 158.342477 124.690772 158.543222 124.20613 158.543222 123.700862 
C 158.543222 123.195593 158.342477 122.710951 157.985198 122.353673 
C 157.62792 121.996394 157.143278 121.795649 156.63801 121.795649 
C 156.132741 121.795649 155.648099 121.996394 155.290821 122.353673 
C 154.933542 122.710951 154.732797 123.195593 154.732797 123.700862 
C 154.732797 124.20613 154.933542 124.690772 155.290821 125.04805 
C 155.648099 125.405329 156.132741 125.606074 156.63801 125.606074 
z
" clip-path="url(#p541c398fdb)" style="fill: #1f77b4; fill-opacity: 0.7; stroke: #1f77b4; stroke-opacity: 0.7"/>
    <path d="M 191.198518 128.42763 
C 191.703787 128.42763 192.188429 128.226885 192.545707 127.869606 
C 192.902986 127.512327 193.103731 127.027685 193.103731 126.522417 
C 193.103731 126.017149 192.902986 125.532507 192.545707 125.175228 
C 192.188429 124.81795 191.703787 124.617205 191.198518 124.617205 
C 190.69325 124.617205 190.208608 124.81795 189.85133 125.175228 
C 189.494051 125.532507 189.293306 126.017149 189.293306 126.522417 
C 189.293306 127.027685 189.494051 127.512327 189.85133 127.869606 
C 190.208608 128.226885 190.69325 128.42763 191.198518 128.42763 
z
" clip-path="url(#p541c398fdb)" style="fill: #1f77b4; fill-opacity: 0.7; stroke: #1f77b4; stroke-opacity: 0.7"/>
    <path d="M 80.03809 187.278984 
C 80.41468 187.278984 80.775897 187.129363 81.042187 186.863074 
C 81.308477 186.596784 81.458098 186.235567 81.458098 185.858976 
C 81.458098 185.482386 81.308477 185.121169 81.042187 184.854879 
C 80.775897 184.58859 80.41468 184.438969 80.03809 184.438969 
C 79.6615 184.438969 79.300283 184.58859 79.033993 184.854879 
C 78.767703 185.121169 78.618082 185.482386 78.618082 185.858976 
C 78.618082 186.235567 78.767703 186.596784 79.033993 186.863074 
C 79.300283 187.129363 79.6615 187.278984 80.03809 187.278984 
z
" clip-path="url(#p541c398fdb)" style="fill: #1f77b4; fill-opacity: 0.7; stroke: #1f77b4; stroke-opacity: 0.7"/>
    <path d="M 81.593925 178.160002 
C 81.970516 178.160002 82.331733 178.010381 82.598022 177.744091 
C 82.864312 177.477801 83.013933 177.116584 83.013933 176.739994 
C 83.013933 176.363404 82.864312 176.002187 82.598022 175.735897 
C 82.331733 175.469607 81.970516 175.319986 81.593925 175.319986 
C 81.217335 175.319986 80.856118 175.469607 80.589828 175.735897 
C 80.323539 176.002187 80.173918 176.363404 80.173918 176.739994 
C 80.173918 177.116584 80.323539 177.477801 80.589828 177.744091 
C 80.856118 178.010381 81.217335 178.160002 81.593925 178.160002 
z
" clip-path="url(#p541c398fdb)" style="fill: #1f77b4; fill-opacity: 0.7; stroke: #1f77b4; stroke-opacity: 0.7"/>
    <path d="M 86.883312 178.687712 
C 87.259903 178.687712 87.62112 178.538091 87.887409 178.271802 
C 88.153699 178.005512 88.30332 177.644295 88.30332 177.267704 
C 88.30332 176.891114 88.153699 176.529897 87.887409 176.263607 
C 87.62112 175.997318 87.259903 175.847697 86.883312 175.847697 
C 86.506722 175.847697 86.145505 175.997318 85.879215 176.263607 
C 85.612925 176.529897 85.463304 176.891114 85.463304 177.267704 
C 85.463304 177.644295 85.612925 178.005512 85.879215 178.271802 
C 86.145505 178.538091 86.506722 178.687712 86.883312 178.687712 
z
" clip-path="url(#p541c398fdb)" style="fill: #1f77b4; fill-opacity: 0.7; stroke: #1f77b4; stroke-opacity: 0.7"/>
    <path d="M 94.927027 171.739493 
C 95.303618 171.739493 95.664835 171.589872 95.931125 171.323583 
C 96.197414 171.057293 96.347035 170.696076 96.347035 170.319486 
C 96.347035 169.942895 96.197414 169.581678 95.931125 169.315388 
C 95.664835 169.049099 95.303618 168.899478 94.927027 168.899478 
C 94.550437 168.899478 94.18922 169.049099 93.92293 169.315388 
C 93.656641 169.581678 93.50702 169.942895 93.50702 170.319486 
C 93.50702 170.696076 93.656641 171.057293 93.92293 171.323583 
C 94.18922 171.589872 94.550437 171.739493 94.927027 171.739493 
z
" clip-path="url(#p541c398fdb)" style="fill: #1f77b4; fill-opacity: 0.7; stroke: #1f77b4; stroke-opacity: 0.7"/>
    <path d="M 103.036046 175.646327 
C 103.412636 175.646327 103.773853 175.496706 104.040143 175.230417 
C 104.306433 174.964127 104.456054 174.60291 104.456054 174.22632 
C 104.456054 173.849729 104.306433 173.488512 104.040143 173.222223 
C 103.773853 172.955933 103.412636 172.806312 103.036046 172.806312 
C 102.659455 172.806312 102.298238 172.955933 102.031949 173.222223 
C 101.765659 173.488512 101.616038 173.849729 101.616038 174.22632 
C 101.616038 174.60291 101.765659 174.964127 102.031949 175.230417 
C 102.298238 175.496706 102.659455 175.646327 103.036046 175.646327 
z
" clip-path="url(#p541c398fdb)" style="fill: #1f77b4; fill-opacity: 0.7; stroke: #1f77b4; stroke-opacity: 0.7"/>
    <path d="M 104.050547 175.537326 
C 104.427138 175.537326 104.788355 175.387705 105.054644 175.121415 
C 105.320934 174.855125 105.470555 174.493908 105.470555 174.117318 
C 105.470555 173.740727 105.320934 173.37951 105.054644 173.113221 
C 104.788355 172.846931 104.427138 172.69731 104.050547 172.69731 
C 103.673957 172.69731 103.31274 172.846931 103.04645 173.113221 
C 102.78016 173.37951 102.630539 173.740727 102.630539 174.117318 
C 102.630539 174.493908 102.78016 174.855125 103.04645 175.121415 
C 103.31274 175.387705 103.673957 175.537326 104.050547 175.537326 
z
" clip-path="url(#p541c398fdb)" style="fill: #1f77b4; fill-opacity: 0.7; stroke: #1f77b4; stroke-opacity: 0.7"/>
    <path d="M 114.411699 180.281252 
C 114.78829 180.281252 115.149507 180.131631 115.415796 179.865342 
C 115.682086 179.599052 115.831707 179.237835 115.831707 178.861245 
C 115.831707 178.484654 115.682086 178.123437 115.415796 177.857147 
C 115.149507 177.590858 114.78829 177.441237 114.411699 177.441237 
C 114.035109 177.441237 113.673892 177.590858 113.407602 177.857147 
C 113.141312 178.123437 112.991692 178.484654 112.991692 178.861245 
C 112.991692 179.237835 113.141312 179.599052 113.407602 179.865342 
C 113.673892 180.131631 114.035109 180.281252 114.411699 180.281252 
z
" clip-path="url(#p541c398fdb)" style="fill: #1f77b4; fill-opacity: 0.7; stroke: #1f77b4; stroke-opacity: 0.7"/>
    <path d="M 80.075624 189.053591 
C 80.459212 189.053591 80.827142 188.901189 81.09838 188.629951 
C 81.369618 188.358713 81.522019 187.990784 81.522019 187.607195 
C 81.522019 187.223607 81.369618 186.855678 81.09838 186.58444 
C 80.827142 186.313202 80.459212 186.1608 80.075624 186.1608 
C 79.692035 186.1608 79.324106 186.313202 79.052868 186.58444 
C 78.78163 186.855678 78.629229 187.223607 78.629229 187.607195 
C 78.629229 187.990784 78.78163 188.358713 79.052868 188.629951 
C 79.324106 188.901189 79.692035 189.053591 80.075624 189.053591 
z
" clip-path="url(#p541c398fdb)" style="fill: #1f77b4; fill-opacity: 0.7; stroke: #1f77b4; stroke-opacity: 0.7"/>
    <path d="M 81.706106 172.073598 
C 82.089695 172.073598 82.457624 171.921197 82.728862 171.649959 
C 83.0001 171.378721 83.152501 171.010792 83.152501 170.627203 
C 83.152501 170.243615 83.0001 169.875685 82.728862 169.604447 
C 82.457624 169.333209 82.089695 169.180808 81.706106 169.180808 
C 81.322518 169.180808 80.954588 169.333209 80.68335 169.604447 
C 80.412112 169.875685 80.259711 170.243615 80.259711 170.627203 
C 80.259711 171.010792 80.412112 171.378721 80.68335 171.649959 
C 80.954588 171.921197 81.322518 172.073598 81.706106 172.073598 
z
" clip-path="url(#p541c398fdb)" style="fill: #1f77b4; fill-opacity: 0.7; stroke: #1f77b4; stroke-opacity: 0.7"/>
    <path d="M 86.988852 144.121196 
C 87.37244 144.121196 87.74037 143.968795 88.011608 143.697557 
C 88.282846 143.426319 88.435247 143.05839 88.435247 142.674801 
C 88.435247 142.291213 88.282846 141.923283 88.011608 141.652045 
C 87.74037 141.380807 87.37244 141.228406 86.988852 141.228406 
C 86.605263 141.228406 86.237334 141.380807 85.966096 141.652045 
C 85.694858 141.923283 85.542456 142.291213 85.542456 142.674801 
C 85.542456 143.05839 85.694858 143.426319 85.966096 143.697557 
C 86.237334 143.968795 86.605263 144.121196 86.988852 144.121196 
z
" clip-path="url(#p541c398fdb)" style="fill: #1f77b4; fill-opacity: 0.7; stroke: #1f77b4; stroke-opacity: 0.7"/>
    <path d="M 94.1314 128.113688 
C 94.514988 128.113688 94.882918 127.961287 95.154156 127.690049 
C 95.425394 127.418811 95.577795 127.050882 95.577795 126.667293 
C 95.577795 126.283705 95.425394 125.915775 95.154156 125.644537 
C 94.882918 125.373299 94.514988 125.220898 94.1314 125.220898 
C 93.747811 125.220898 93.379882 125.373299 93.108644 125.644537 
C 92.837406 125.915775 92.685005 126.283705 92.685005 126.667293 
C 92.685005 127.050882 92.837406 127.418811 93.108644 127.690049 
C 93.379882 127.961287 93.747811 128.113688 94.1314 128.113688 
z
" clip-path="url(#p541c398fdb)" style="fill: #1f77b4; fill-opacity: 0.7; stroke: #1f77b4; stroke-opacity: 0.7"/>
    <path d="M 100.473149 128.133537 
C 100.856738 128.133537 101.224667 127.981135 101.495905 127.709897 
C 101.767143 127.438659 101.919545 127.07073 101.919545 126.687141 
C 101.919545 126.303553 101.767143 125.935624 101.495905 125.664386 
C 101.224667 125.393147 100.856738 125.240746 100.473149 125.240746 
C 100.089561 125.240746 99.721632 125.393147 99.450394 125.664386 
C 99.179156 125.935624 99.026754 126.303553 99.026754 126.687141 
C 99.026754 127.07073 99.179156 127.438659 99.450394 127.709897 
C 99.721632 127.981135 100.089561 128.133537 100.473149 128.133537 
z
" clip-path="url(#p541c398fdb)" style="fill: #1f77b4; fill-opacity: 0.7; stroke: #1f77b4; stroke-opacity: 0.7"/>
    <path d="M 102.811381 122.543106 
C 103.19497 122.543106 103.562899 122.390704 103.834137 122.119466 
C 104.105375 121.848228 104.257777 121.480299 104.257777 121.09671 
C 104.257777 120.713122 104.105375 120.345192 103.834137 120.073954 
C 103.562899 119.802716 103.19497 119.650315 102.811381 119.650315 
C 102.427793 119.650315 102.059863 119.802716 101.788625 120.073954 
C 101.517387 120.345192 101.364986 120.713122 101.364986 121.09671 
C 101.364986 121.480299 101.517387 121.848228 101.788625 122.119466 
C 102.059863 122.390704 102.427793 122.543106 102.811381 122.543106 
z
" clip-path="url(#p541c398fdb)" style="fill: #1f77b4; fill-opacity: 0.7; stroke: #1f77b4; stroke-opacity: 0.7"/>
    <path d="M 110.832042 133.46824 
C 111.21563 133.46824 111.58356 133.315839 111.854798 133.044601 
C 112.126036 132.773363 112.278437 132.405434 112.278437 132.021845 
C 112.278437 131.638257 112.126036 131.270327 111.854798 130.999089 
C 111.58356 130.727851 111.21563 130.57545 110.832042 130.57545 
C 110.448453 130.57545 110.080524 130.727851 109.809286 130.999089 
C 109.538048 131.270327 109.385646 131.638257 109.385646 132.021845 
C 109.385646 132.405434 109.538048 132.773363 109.809286 133.044601 
C 110.080524 133.315839 110.448453 133.46824 110.832042 133.46824 
z
" clip-path="url(#p541c398fdb)" style="fill: #1f77b4; fill-opacity: 0.7; stroke: #1f77b4; stroke-opacity: 0.7"/>
    <path d="M 79.161283 252.772737 
C 79.382064 252.772737 79.593833 252.68502 79.749949 252.528904 
C 79.906065 252.372788 79.993782 252.161019 79.993782 251.940238 
C 79.993782 251.719457 79.906065 251.507688 79.749949 251.351572 
C 79.593833 251.195456 79.382064 251.107739 79.161283 251.107739 
C 78.940502 251.107739 78.728733 251.195456 78.572617 251.351572 
C 78.416501 251.507688 78.328784 251.719457 78.328784 251.940238 
C 78.328784 252.161019 78.416501 252.372788 78.572617 252.528904 
C 78.728733 252.68502 78.940502 252.772737 79.161283 252.772737 
z
" clip-path="url(#p541c398fdb)" style="fill: #1f77b4; fill-opacity: 0.7; stroke: #1f77b4; stroke-opacity: 0.7"/>
    <path d="M 80.957402 250.561113 
C 81.178183 250.561113 81.389952 250.473395 81.546068 250.317279 
C 81.702184 250.161163 81.789901 249.949395 81.789901 249.728613 
C 81.789901 249.507832 81.702184 249.296064 81.546068 249.139948 
C 81.389952 248.983831 81.178183 248.896114 80.957402 248.896114 
C 80.73662 248.896114 80.524852 248.983831 80.368736 249.139948 
C 80.21262 249.296064 80.124903 249.507832 80.124903 249.728613 
C 80.124903 249.949395 80.21262 250.161163 80.368736 250.317279 
C 80.524852 250.473395 80.73662 250.561113 80.957402 250.561113 
z
" clip-path="url(#p541c398fdb)" style="fill: #1f77b4; fill-opacity: 0.7; stroke: #1f77b4; stroke-opacity: 0.7"/>
    <path d="M 84.931529 251.114836 
C 85.15231 251.114836 85.364079 251.027119 85.520195 250.871003 
C 85.676311 250.714887 85.764028 250.503118 85.764028 250.282337 
C 85.764028 250.061555 85.676311 249.849787 85.520195 249.693671 
C 85.364079 249.537555 85.15231 249.449838 84.931529 249.449838 
C 84.710748 249.449838 84.498979 249.537555 84.342863 249.693671 
C 84.186747 249.849787 84.09903 250.061555 84.09903 250.282337 
C 84.09903 250.503118 84.186747 250.714887 84.342863 250.871003 
C 84.498979 251.027119 84.710748 251.114836 84.931529 251.114836 
z
" clip-path="url(#p541c398fdb)" style="fill: #1f77b4; fill-opacity: 0.7; stroke: #1f77b4; stroke-opacity: 0.7"/>
    <path d="M 96.711923 250.435664 
C 96.932705 250.435664 97.144473 250.347946 97.300589 250.19183 
C 97.456705 250.035714 97.544422 249.823946 97.544422 249.603165 
C 97.544422 249.382383 97.456705 249.170615 97.300589 249.014499 
C 97.144473 248.858383 96.932705 248.770665 96.711923 248.770665 
C 96.491142 248.770665 96.279373 248.858383 96.123257 249.014499 
C 95.967141 249.170615 95.879424 249.382383 95.879424 249.603165 
C 95.879424 249.823946 95.967141 250.035714 96.123257 250.19183 
C 96.279373 250.347946 96.491142 250.435664 96.711923 250.435664 
z
" clip-path="url(#p541c398fdb)" style="fill: #1f77b4; fill-opacity: 0.7; stroke: #1f77b4; stroke-opacity: 0.7"/>
    <path d="M 112.926862 250.961792 
C 113.147644 250.961792 113.359412 250.874075 113.515528 250.717959 
C 113.671644 250.561843 113.759362 250.350075 113.759362 250.129293 
C 113.759362 249.908512 113.671644 249.696743 113.515528 249.540627 
C 113.359412 249.384511 113.147644 249.296794 112.926862 249.296794 
C 112.706081 249.296794 112.494312 249.384511 112.338196 249.540627 
C 112.18208 249.696743 112.094363 249.908512 112.094363 250.129293 
C 112.094363 250.350075 112.18208 250.561843 112.338196 250.717959 
C 112.494312 250.874075 112.706081 250.961792 112.926862 250.961792 
z
" clip-path="url(#p541c398fdb)" style="fill: #1f77b4; fill-opacity: 0.7; stroke: #1f77b4; stroke-opacity: 0.7"/>
    <path d="M 105.104456 250.603131 
C 105.325237 250.603131 105.537005 250.515414 105.693122 250.359298 
C 105.849238 250.203182 105.936955 249.991413 105.936955 249.770632 
C 105.936955 249.54985 105.849238 249.338082 105.693122 249.181966 
C 105.537005 249.02585 105.325237 248.938133 105.104456 248.938133 
C 104.883674 248.938133 104.671906 249.02585 104.51579 249.181966 
C 104.359674 249.338082 104.271956 249.54985 104.271956 249.770632 
C 104.271956 249.991413 104.359674 250.203182 104.51579 250.359298 
C 104.671906 250.515414 104.883674 250.603131 105.104456 250.603131 
z
" clip-path="url(#p541c398fdb)" style="fill: #1f77b4; fill-opacity: 0.7; stroke: #1f77b4; stroke-opacity: 0.7"/>
    <path d="M 119.001987 249.899449 
C 119.222768 249.899449 119.434537 249.811731 119.590653 249.655615 
C 119.746769 249.499499 119.834486 249.287731 119.834486 249.066949 
C 119.834486 248.846168 119.746769 248.6344 119.590653 248.478284 
C 119.434537 248.322168 119.222768 248.23445 119.001987 248.23445 
C 118.781206 248.23445 118.569437 248.322168 118.413321 248.478284 
C 118.257205 248.6344 118.169488 248.846168 118.169488 249.066949 
C 118.169488 249.287731 118.257205 249.499499 118.413321 249.655615 
C 118.569437 249.811731 118.781206 249.899449 119.001987 249.899449 
z
" clip-path="url(#p541c398fdb)" style="fill: #1f77b4; fill-opacity: 0.7; stroke: #1f77b4; stroke-opacity: 0.7"/>
    <path d="M 81.219818 187.314181 
C 81.603407 187.314181 81.971336 187.16178 82.242574 186.890542 
C 82.513812 186.619304 82.666214 186.251375 82.666214 185.867786 
C 82.666214 185.484198 82.513812 185.116268 82.242574 184.84503 
C 81.971336 184.573792 81.603407 184.421391 81.219818 184.421391 
C 80.83623 184.421391 80.4683 184.573792 80.197062 184.84503 
C 79.925824 185.116268 79.773423 185.484198 79.773423 185.867786 
C 79.773423 186.251375 79.925824 186.619304 80.197062 186.890542 
C 80.4683 187.16178 80.83623 187.314181 81.219818 187.314181 
z
" clip-path="url(#p541c398fdb)" style="fill: #1f77b4; fill-opacity: 0.7; stroke: #1f77b4; stroke-opacity: 0.7"/>
    <path d="M 83.681225 175.968818 
C 84.064814 175.968818 84.432743 175.816417 84.703981 175.545179 
C 84.975219 175.273941 85.127621 174.906011 85.127621 174.522423 
C 85.127621 174.138834 84.975219 173.770905 84.703981 173.499667 
C 84.432743 173.228429 84.064814 173.076027 83.681225 173.076027 
C 83.297637 173.076027 82.929708 173.228429 82.658469 173.499667 
C 82.387231 173.770905 82.23483 174.138834 82.23483 174.522423 
C 82.23483 174.906011 82.387231 175.273941 82.658469 175.545179 
C 82.929708 175.816417 83.297637 175.968818 83.681225 175.968818 
z
" clip-path="url(#p541c398fdb)" style="fill: #1f77b4; fill-opacity: 0.7; stroke: #1f77b4; stroke-opacity: 0.7"/>
    <path d="M 90.584335 150.251307 
C 90.967924 150.251307 91.335853 150.098905 91.607091 149.827667 
C 91.878329 149.556429 92.03073 149.1885 92.03073 148.804911 
C 92.03073 148.421323 91.878329 148.053393 91.607091 147.782155 
C 91.335853 147.510917 90.967924 147.358516 90.584335 147.358516 
C 90.200746 147.358516 89.832817 147.510917 89.561579 147.782155 
C 89.290341 148.053393 89.13794 148.421323 89.13794 148.804911 
C 89.13794 149.1885 89.290341 149.556429 89.561579 149.827667 
C 89.832817 150.098905 90.200746 150.251307 90.584335 150.251307 
z
" clip-path="url(#p541c398fdb)" style="fill: #1f77b4; fill-opacity: 0.7; stroke: #1f77b4; stroke-opacity: 0.7"/>
    <path d="M 101.212942 132.676162 
C 101.59653 132.676162 101.96446 132.523761 102.235698 132.252523 
C 102.506936 131.981285 102.659337 131.613356 102.659337 131.229767 
C 102.659337 130.846179 102.506936 130.478249 102.235698 130.207011 
C 101.96446 129.935773 101.59653 129.783372 101.212942 129.783372 
C 100.829353 129.783372 100.461424 129.935773 100.190186 130.207011 
C 99.918948 130.478249 99.766546 130.846179 99.766546 131.229767 
C 99.766546 131.613356 99.918948 131.981285 100.190186 132.252523 
C 100.461424 132.523761 100.829353 132.676162 101.212942 132.676162 
z
" clip-path="url(#p541c398fdb)" style="fill: #1f77b4; fill-opacity: 0.7; stroke: #1f77b4; stroke-opacity: 0.7"/>
    <path d="M 123.484835 138.907417 
C 123.868424 138.907417 124.236353 138.755015 124.507591 138.483777 
C 124.778829 138.212539 124.93123 137.84461 124.93123 137.461021 
C 124.93123 137.077433 124.778829 136.709504 124.507591 136.438265 
C 124.236353 136.167027 123.868424 136.014626 123.484835 136.014626 
C 123.101247 136.014626 122.733317 136.167027 122.462079 136.438265 
C 122.190841 136.709504 122.03844 137.077433 122.03844 137.461021 
C 122.03844 137.84461 122.190841 138.212539 122.462079 138.483777 
C 122.733317 138.755015 123.101247 138.907417 123.484835 138.907417 
z
" clip-path="url(#p541c398fdb)" style="fill: #1f77b4; fill-opacity: 0.7; stroke: #1f77b4; stroke-opacity: 0.7"/>
    <path d="M 149.553852 136.252164 
C 149.937441 136.252164 150.30537 136.099763 150.576608 135.828524 
C 150.847846 135.557286 151.000247 135.189357 151.000247 134.805769 
C 151.000247 134.42218 150.847846 134.054251 150.576608 133.783013 
C 150.30537 133.511775 149.937441 133.359373 149.553852 133.359373 
C 149.170264 133.359373 148.802334 133.511775 148.531096 133.783013 
C 148.259858 134.054251 148.107457 134.42218 148.107457 134.805769 
C 148.107457 135.189357 148.259858 135.557286 148.531096 135.828524 
C 148.802334 136.099763 149.170264 136.252164 149.553852 136.252164 
z
" clip-path="url(#p541c398fdb)" style="fill: #1f77b4; fill-opacity: 0.7; stroke: #1f77b4; stroke-opacity: 0.7"/>
    <path d="M 81.034432 188.609657 
C 81.418021 188.609657 81.78595 188.457256 82.057188 188.186018 
C 82.328426 187.91478 82.480828 187.54685 82.480828 187.163262 
C 82.480828 186.779673 82.328426 186.411744 82.057188 186.140506 
C 81.78595 185.869268 81.418021 185.716866 81.034432 185.716866 
C 80.650844 185.716866 80.282914 185.869268 80.011676 186.140506 
C 79.740438 186.411744 79.588037 186.779673 79.588037 187.163262 
C 79.588037 187.54685 79.740438 187.91478 80.011676 188.186018 
C 80.282914 188.457256 80.650844 188.609657 81.034432 188.609657 
z
" clip-path="url(#p541c398fdb)" style="fill: #1f77b4; fill-opacity: 0.7; stroke: #1f77b4; stroke-opacity: 0.7"/>
    <path d="M 83.086025 176.891862 
C 83.469614 176.891862 83.837543 176.73946 84.108781 176.468222 
C 84.380019 176.196984 84.532421 175.829055 84.532421 175.445466 
C 84.532421 175.061878 84.380019 174.693948 84.108781 174.42271 
C 83.837543 174.151472 83.469614 173.999071 83.086025 173.999071 
C 82.702437 173.999071 82.334508 174.151472 82.06327 174.42271 
C 81.792032 174.693948 81.63963 175.061878 81.63963 175.445466 
C 81.63963 175.829055 81.792032 176.196984 82.06327 176.468222 
C 82.334508 176.73946 82.702437 176.891862 83.086025 176.891862 
z
" clip-path="url(#p541c398fdb)" style="fill: #1f77b4; fill-opacity: 0.7; stroke: #1f77b4; stroke-opacity: 0.7"/>
    <path d="M 87.060641 140.20961 
C 87.44423 140.20961 87.812159 140.057208 88.083397 139.78597 
C 88.354635 139.514732 88.507037 139.146803 88.507037 138.763214 
C 88.507037 138.379626 88.354635 138.011697 88.083397 137.740459 
C 87.812159 137.46922 87.44423 137.316819 87.060641 137.316819 
C 86.677053 137.316819 86.309123 137.46922 86.037885 137.740459 
C 85.766647 138.011697 85.614246 138.379626 85.614246 138.763214 
C 85.614246 139.146803 85.766647 139.514732 86.037885 139.78597 
C 86.309123 140.057208 86.677053 140.20961 87.060641 140.20961 
z
" clip-path="url(#p541c398fdb)" style="fill: #1f77b4; fill-opacity: 0.7; stroke: #1f77b4; stroke-opacity: 0.7"/>
    <path d="M 100.345267 130.68067 
C 100.728855 130.68067 101.096785 130.528268 101.368023 130.25703 
C 101.639261 129.985792 101.791662 129.617863 101.791662 129.234274 
C 101.791662 128.850686 101.639261 128.482756 101.368023 128.211518 
C 101.096785 127.94028 100.728855 127.787879 100.345267 127.787879 
C 99.961678 127.787879 99.593749 127.94028 99.322511 128.211518 
C 99.051273 128.482756 98.898871 128.850686 98.898871 129.234274 
C 98.898871 129.617863 99.051273 129.985792 99.322511 130.25703 
C 99.593749 130.528268 99.961678 130.68067 100.345267 130.68067 
z
" clip-path="url(#p541c398fdb)" style="fill: #1f77b4; fill-opacity: 0.7; stroke: #1f77b4; stroke-opacity: 0.7"/>
    <path d="M 110.643948 133.368054 
C 111.027536 133.368054 111.395466 133.215653 111.666704 132.944414 
C 111.937942 132.673176 112.090343 132.305247 112.090343 131.921659 
C 112.090343 131.53807 111.937942 131.170141 111.666704 130.898903 
C 111.395466 130.627665 111.027536 130.475263 110.643948 130.475263 
C 110.260359 130.475263 109.89243 130.627665 109.621192 130.898903 
C 109.349954 131.170141 109.197552 131.53807 109.197552 131.921659 
C 109.197552 132.305247 109.349954 132.673176 109.621192 132.944414 
C 109.89243 133.215653 110.260359 133.368054 110.643948 133.368054 
z
" clip-path="url(#p541c398fdb)" style="fill: #1f77b4; fill-opacity: 0.7; stroke: #1f77b4; stroke-opacity: 0.7"/>
    <path d="M 113.451536 135.536379 
C 113.835124 135.536379 114.203053 135.383978 114.474292 135.11274 
C 114.74553 134.841502 114.897931 134.473572 114.897931 134.089984 
C 114.897931 133.706395 114.74553 133.338466 114.474292 133.067228 
C 114.203053 132.79599 113.835124 132.643589 113.451536 132.643589 
C 113.067947 132.643589 112.700018 132.79599 112.42878 133.067228 
C 112.157542 133.338466 112.00514 133.706395 112.00514 134.089984 
C 112.00514 134.473572 112.157542 134.841502 112.42878 135.11274 
C 112.700018 135.383978 113.067947 135.536379 113.451536 135.536379 
z
" clip-path="url(#p541c398fdb)" style="fill: #1f77b4; fill-opacity: 0.7; stroke: #1f77b4; stroke-opacity: 0.7"/>
    <path d="M 140.78802 138.060279 
C 141.171609 138.060279 141.539538 137.907878 141.810776 137.63664 
C 142.082014 137.365401 142.234415 136.997472 142.234415 136.613884 
C 142.234415 136.230295 142.082014 135.862366 141.810776 135.591128 
C 141.539538 135.31989 141.171609 135.167488 140.78802 135.167488 
C 140.404432 135.167488 140.036502 135.31989 139.765264 135.591128 
C 139.494026 135.862366 139.341625 136.230295 139.341625 136.613884 
C 139.341625 136.997472 139.494026 137.365401 139.765264 137.63664 
C 140.036502 137.907878 140.404432 138.060279 140.78802 138.060279 
z
" clip-path="url(#p541c398fdb)" style="fill: #1f77b4; fill-opacity: 0.7; stroke: #1f77b4; stroke-opacity: 0.7"/>
    <path d="M 80.420018 193.945096 
C 80.886977 193.945096 81.334874 193.759572 81.665064 193.429381 
C 81.995254 193.099191 82.180779 192.651295 82.180779 192.184335 
C 82.180779 191.717376 81.995254 191.269479 81.665064 190.939289 
C 81.334874 190.609099 80.886977 190.423574 80.420018 190.423574 
C 79.953058 190.423574 79.505161 190.609099 79.174971 190.939289 
C 78.844781 191.269479 78.659256 191.717376 78.659256 192.184335 
C 78.659256 192.651295 78.844781 193.099191 79.174971 193.429381 
C 79.505161 193.759572 79.953058 193.945096 80.420018 193.945096 
z
" clip-path="url(#p541c398fdb)" style="fill: #1f77b4; fill-opacity: 0.7; stroke: #1f77b4; stroke-opacity: 0.7"/>
    <path d="M 82.030903 191.945922 
C 82.497862 191.945922 82.945759 191.760397 83.275949 191.430207 
C 83.606139 191.100017 83.791664 190.65212 83.791664 190.185161 
C 83.791664 189.718201 83.606139 189.270305 83.275949 188.940114 
C 82.945759 188.609924 82.497862 188.424399 82.030903 188.424399 
C 81.563943 188.424399 81.116046 188.609924 80.785856 188.940114 
C 80.455666 189.270305 80.270141 189.718201 80.270141 190.185161 
C 80.270141 190.65212 80.455666 191.100017 80.785856 191.430207 
C 81.116046 191.760397 81.563943 191.945922 82.030903 191.945922 
z
" clip-path="url(#p541c398fdb)" style="fill: #1f77b4; fill-opacity: 0.7; stroke: #1f77b4; stroke-opacity: 0.7"/>
    <path d="M 88.38024 189.390368 
C 88.8472 189.390368 89.295097 189.204843 89.625287 188.874653 
C 89.955477 188.544462 90.141002 188.096566 90.141002 187.629606 
C 90.141002 187.162647 89.955477 186.71475 89.625287 186.38456 
C 89.295097 186.05437 88.8472 185.868845 88.38024 185.868845 
C 87.913281 185.868845 87.465384 186.05437 87.135194 186.38456 
C 86.805004 186.71475 86.619479 187.162647 86.619479 187.629606 
C 86.619479 188.096566 86.805004 188.544462 87.135194 188.874653 
C 87.465384 189.204843 87.913281 189.390368 88.38024 189.390368 
z
" clip-path="url(#p541c398fdb)" style="fill: #1f77b4; fill-opacity: 0.7; stroke: #1f77b4; stroke-opacity: 0.7"/>
    <path d="M 97.762417 187.493713 
C 98.229376 187.493713 98.677273 187.308188 99.007463 186.977998 
C 99.337653 186.647808 99.523178 186.199911 99.523178 185.732952 
C 99.523178 185.265993 99.337653 184.818096 99.007463 184.487906 
C 98.677273 184.157716 98.229376 183.972191 97.762417 183.972191 
C 97.295457 183.972191 96.847561 184.157716 96.517371 184.487906 
C 96.187181 184.818096 96.001656 185.265993 96.001656 185.732952 
C 96.001656 186.199911 96.187181 186.647808 96.517371 186.977998 
C 96.847561 187.308188 97.295457 187.493713 97.762417 187.493713 
z
" clip-path="url(#p541c398fdb)" style="fill: #1f77b4; fill-opacity: 0.7; stroke: #1f77b4; stroke-opacity: 0.7"/>
    <path d="M 104.409621 180.038963 
C 104.87658 180.038963 105.324477 179.853438 105.654667 179.523248 
C 105.984857 179.193058 106.170382 178.745161 106.170382 178.278202 
C 106.170382 177.811242 105.984857 177.363346 105.654667 177.033156 
C 105.324477 176.702965 104.87658 176.517441 104.409621 176.517441 
C 103.942662 176.517441 103.494765 176.702965 103.164575 177.033156 
C 102.834385 177.363346 102.64886 177.811242 102.64886 178.278202 
C 102.64886 178.745161 102.834385 179.193058 103.164575 179.523248 
C 103.494765 179.853438 103.942662 180.038963 104.409621 180.038963 
z
" clip-path="url(#p541c398fdb)" style="fill: #1f77b4; fill-opacity: 0.7; stroke: #1f77b4; stroke-opacity: 0.7"/>
    <path d="M 106.080885 182.553577 
C 106.547845 182.553577 106.995741 182.368052 107.325931 182.037862 
C 107.656121 181.707672 107.841646 181.259776 107.841646 180.792816 
C 107.841646 180.325857 107.656121 179.87796 107.325931 179.54777 
C 106.995741 179.21758 106.547845 179.032055 106.080885 179.032055 
C 105.613926 179.032055 105.166029 179.21758 104.835839 179.54777 
C 104.505649 179.87796 104.320124 180.325857 104.320124 180.792816 
C 104.320124 181.259776 104.505649 181.707672 104.835839 182.037862 
C 105.166029 182.368052 105.613926 182.553577 106.080885 182.553577 
z
" clip-path="url(#p541c398fdb)" style="fill: #1f77b4; fill-opacity: 0.7; stroke: #1f77b4; stroke-opacity: 0.7"/>
    <path d="M 115.108191 176.937219 
C 115.575151 176.937219 116.023047 176.751694 116.353237 176.421504 
C 116.683427 176.091314 116.868952 175.643417 116.868952 175.176458 
C 116.868952 174.709499 116.683427 174.261602 116.353237 173.931412 
C 116.023047 173.601222 115.575151 173.415697 115.108191 173.415697 
C 114.641232 173.415697 114.193335 173.601222 113.863145 173.931412 
C 113.532955 174.261602 113.34743 174.709499 113.34743 175.176458 
C 113.34743 175.643417 113.532955 176.091314 113.863145 176.421504 
C 114.193335 176.751694 114.641232 176.937219 115.108191 176.937219 
z
" clip-path="url(#p541c398fdb)" style="fill: #1f77b4; fill-opacity: 0.7; stroke: #1f77b4; stroke-opacity: 0.7"/>
   </g>
   <g id="matplotlib.axis_1">
    <g id="xtick_1">
     <g id="line2d_1">
      <path d="M 75.255935 299.078125 
L 75.255935 22.318125 
" clip-path="url(#p541c398fdb)" style="fill: none; stroke: #b0b0b0; stroke-opacity: 0.25; stroke-width: 0.8; stroke-linecap: square"/>
     </g>
     <g id="line2d_2">
      <defs>
       <path id="m814e8b887a" d="M 0 0 
L 0 3.5 
" style="stroke: #000000; stroke-width: 0.8"/>
      </defs>
      <g>
       <use xlink:href="#m814e8b887a" x="75.255935" y="299.078125" style="stroke: #000000; stroke-width: 0.8"/>
      </g>
     </g>
     <g id="text_1">
      <!-- 0 -->
      <g transform="translate(72.074685 313.676562) scale(0.1 -0.1)">
       <defs>
        <path id="DejaVuSans-30" d="M 2034 4250 
Q 1547 4250 1301 3770 
Q 1056 3291 1056 2328 
Q 1056 1369 1301 889 
Q 1547 409 2034 409 
Q 2525 409 2770 889 
Q 3016 1369 3016 2328 
Q 3016 3291 2770 3770 
Q 2525 4250 2034 4250 
z
M 2034 4750 
Q 2819 4750 3233 4129 
Q 3647 3509 3647 2328 
Q 3647 1150 3233 529 
Q 2819 -91 2034 -91 
Q 1250 -91 836 529 
Q 422 1150 422 2328 
Q 422 3509 836 4129 
Q 1250 4750 2034 4750 
z
" transform="scale(0.015625)"/>
       </defs>
       <use xlink:href="#DejaVuSans-30"/>
      </g>
     </g>
    </g>
    <g id="xtick_2">
     <g id="line2d_3">
      <path d="M 201.208721 299.078125 
L 201.208721 22.318125 
" clip-path="url(#p541c398fdb)" style="fill: none; stroke: #b0b0b0; stroke-opacity: 0.25; stroke-width: 0.8; stroke-linecap: square"/>
     </g>
     <g id="line2d_4">
      <g>
       <use xlink:href="#m814e8b887a" x="201.208721" y="299.078125" style="stroke: #000000; stroke-width: 0.8"/>
      </g>
     </g>
     <g id="text_2">
      <!-- 2000 -->
      <g transform="translate(188.483721 313.676562) scale(0.1 -0.1)">
       <defs>
        <path id="DejaVuSans-32" d="M 1228 531 
L 3431 531 
L 3431 0 
L 469 0 
L 469 531 
Q 828 903 1448 1529 
Q 2069 2156 2228 2338 
Q 2531 2678 2651 2914 
Q 2772 3150 2772 3378 
Q 2772 3750 2511 3984 
Q 2250 4219 1831 4219 
Q 1534 4219 1204 4116 
Q 875 4013 500 3803 
L 500 4441 
Q 881 4594 1212 4672 
Q 1544 4750 1819 4750 
Q 2544 4750 2975 4387 
Q 3406 4025 3406 3419 
Q 3406 3131 3298 2873 
Q 3191 2616 2906 2266 
Q 2828 2175 2409 1742 
Q 1991 1309 1228 531 
z
" transform="scale(0.015625)"/>
       </defs>
       <use xlink:href="#DejaVuSans-32"/>
       <use xlink:href="#DejaVuSans-30" x="63.623047"/>
       <use xlink:href="#DejaVuSans-30" x="127.246094"/>
       <use xlink:href="#DejaVuSans-30" x="190.869141"/>
      </g>
     </g>
    </g>
    <g id="xtick_3">
     <g id="line2d_5">
      <path d="M 327.161508 299.078125 
L 327.161508 22.318125 
" clip-path="url(#p541c398fdb)" style="fill: none; stroke: #b0b0b0; stroke-opacity: 0.25; stroke-width: 0.8; stroke-linecap: square"/>
     </g>
     <g id="line2d_6">
      <g>
       <use xlink:href="#m814e8b887a" x="327.161508" y="299.078125" style="stroke: #000000; stroke-width: 0.8"/>
      </g>
     </g>
     <g id="text_3">
      <!-- 4000 -->
      <g transform="translate(314.436508 313.676562) scale(0.1 -0.1)">
       <defs>
        <path id="DejaVuSans-34" d="M 2419 4116 
L 825 1625 
L 2419 1625 
L 2419 4116 
z
M 2253 4666 
L 3047 4666 
L 3047 1625 
L 3713 1625 
L 3713 1100 
L 3047 1100 
L 3047 0 
L 2419 0 
L 2419 1100 
L 313 1100 
L 313 1709 
L 2253 4666 
z
" transform="scale(0.015625)"/>
       </defs>
       <use xlink:href="#DejaVuSans-34"/>
       <use xlink:href="#DejaVuSans-30" x="63.623047"/>
       <use xlink:href="#DejaVuSans-30" x="127.246094"/>
       <use xlink:href="#DejaVuSans-30" x="190.869141"/>
      </g>
     </g>
    </g>
    <g id="xtick_4">
     <g id="line2d_7">
      <path d="M 453.114294 299.078125 
L 453.114294 22.318125 
" clip-path="url(#p541c398fdb)" style="fill: none; stroke: #b0b0b0; stroke-opacity: 0.25; stroke-width: 0.8; stroke-linecap: square"/>
     </g>
     <g id="line2d_8">
      <g>
       <use xlink:href="#m814e8b887a" x="453.114294" y="299.078125" style="stroke: #000000; stroke-width: 0.8"/>
      </g>
     </g>
     <g id="text_4">
      <!-- 6000 -->
      <g transform="translate(440.389294 313.676562) scale(0.1 -0.1)">
       <defs>
        <path id="DejaVuSans-36" d="M 2113 2584 
Q 1688 2584 1439 2293 
Q 1191 2003 1191 1497 
Q 1191 994 1439 701 
Q 1688 409 2113 409 
Q 2538 409 2786 701 
Q 3034 994 3034 1497 
Q 3034 2003 2786 2293 
Q 2538 2584 2113 2584 
z
M 3366 4563 
L 3366 3988 
Q 3128 4100 2886 4159 
Q 2644 4219 2406 4219 
Q 1781 4219 1451 3797 
Q 1122 3375 1075 2522 
Q 1259 2794 1537 2939 
Q 1816 3084 2150 3084 
Q 2853 3084 3261 2657 
Q 3669 2231 3669 1497 
Q 3669 778 3244 343 
Q 2819 -91 2113 -91 
Q 1303 -91 875 529 
Q 447 1150 447 2328 
Q 447 3434 972 4092 
Q 1497 4750 2381 4750 
Q 2619 4750 2861 4703 
Q 3103 4656 3366 4563 
z
" transform="scale(0.015625)"/>
       </defs>
       <use xlink:href="#DejaVuSans-36"/>
       <use xlink:href="#DejaVuSans-30" x="63.623047"/>
       <use xlink:href="#DejaVuSans-30" x="127.246094"/>
       <use xlink:href="#DejaVuSans-30" x="190.869141"/>
      </g>
     </g>
    </g>
    <g id="xtick_5">
     <g id="line2d_9">
      <path d="M 579.067081 299.078125 
L 579.067081 22.318125 
" clip-path="url(#p541c398fdb)" style="fill: none; stroke: #b0b0b0; stroke-opacity: 0.25; stroke-width: 0.8; stroke-linecap: square"/>
     </g>
     <g id="line2d_10">
      <g>
       <use xlink:href="#m814e8b887a" x="579.067081" y="299.078125" style="stroke: #000000; stroke-width: 0.8"/>
      </g>
     </g>
     <g id="text_5">
      <!-- 8000 -->
      <g transform="translate(566.342081 313.676562) scale(0.1 -0.1)">
       <defs>
        <path id="DejaVuSans-38" d="M 2034 2216 
Q 1584 2216 1326 1975 
Q 1069 1734 1069 1313 
Q 1069 891 1326 650 
Q 1584 409 2034 409 
Q 2484 409 2743 651 
Q 3003 894 3003 1313 
Q 3003 1734 2745 1975 
Q 2488 2216 2034 2216 
z
M 1403 2484 
Q 997 2584 770 2862 
Q 544 3141 544 3541 
Q 544 4100 942 4425 
Q 1341 4750 2034 4750 
Q 2731 4750 3128 4425 
Q 3525 4100 3525 3541 
Q 3525 3141 3298 2862 
Q 3072 2584 2669 2484 
Q 3125 2378 3379 2068 
Q 3634 1759 3634 1313 
Q 3634 634 3220 271 
Q 2806 -91 2034 -91 
Q 1263 -91 848 271 
Q 434 634 434 1313 
Q 434 1759 690 2068 
Q 947 2378 1403 2484 
z
M 1172 3481 
Q 1172 3119 1398 2916 
Q 1625 2713 2034 2713 
Q 2441 2713 2670 2916 
Q 2900 3119 2900 3481 
Q 2900 3844 2670 4047 
Q 2441 4250 2034 4250 
Q 1625 4250 1398 4047 
Q 1172 3844 1172 3481 
z
" transform="scale(0.015625)"/>
       </defs>
       <use xlink:href="#DejaVuSans-38"/>
       <use xlink:href="#DejaVuSans-30" x="63.623047"/>
       <use xlink:href="#DejaVuSans-30" x="127.246094"/>
       <use xlink:href="#DejaVuSans-30" x="190.869141"/>
      </g>
     </g>
    </g>
    <g id="xtick_6">
     <g id="line2d_11">
      <path d="M 705.019867 299.078125 
L 705.019867 22.318125 
" clip-path="url(#p541c398fdb)" style="fill: none; stroke: #b0b0b0; stroke-opacity: 0.25; stroke-width: 0.8; stroke-linecap: square"/>
     </g>
     <g id="line2d_12">
      <g>
       <use xlink:href="#m814e8b887a" x="705.019867" y="299.078125" style="stroke: #000000; stroke-width: 0.8"/>
      </g>
     </g>
     <g id="text_6">
      <!-- 10000 -->
      <g transform="translate(689.113617 313.676562) scale(0.1 -0.1)">
       <defs>
        <path id="DejaVuSans-31" d="M 794 531 
L 1825 531 
L 1825 4091 
L 703 3866 
L 703 4441 
L 1819 4666 
L 2450 4666 
L 2450 531 
L 3481 531 
L 3481 0 
L 794 0 
L 794 531 
z
" transform="scale(0.015625)"/>
       </defs>
       <use xlink:href="#DejaVuSans-31"/>
       <use xlink:href="#DejaVuSans-30" x="63.623047"/>
       <use xlink:href="#DejaVuSans-30" x="127.246094"/>
       <use xlink:href="#DejaVuSans-30" x="190.869141"/>
       <use xlink:href="#DejaVuSans-30" x="254.492188"/>
      </g>
     </g>
    </g>
    <g id="text_7">
     <!-- Training time (s) -->
     <g transform="translate(351.815 327.354687) scale(0.1 -0.1)">
      <defs>
       <path id="DejaVuSans-54" d="M -19 4666 
L 3928 4666 
L 3928 4134 
L 2272 4134 
L 2272 0 
L 1638 0 
L 1638 4134 
L -19 4134 
L -19 4666 
z
" transform="scale(0.015625)"/>
       <path id="DejaVuSans-72" d="M 2631 2963 
Q 2534 3019 2420 3045 
Q 2306 3072 2169 3072 
Q 1681 3072 1420 2755 
Q 1159 2438 1159 1844 
L 1159 0 
L 581 0 
L 581 3500 
L 1159 3500 
L 1159 2956 
Q 1341 3275 1631 3429 
Q 1922 3584 2338 3584 
Q 2397 3584 2469 3576 
Q 2541 3569 2628 3553 
L 2631 2963 
z
" transform="scale(0.015625)"/>
       <path id="DejaVuSans-61" d="M 2194 1759 
Q 1497 1759 1228 1600 
Q 959 1441 959 1056 
Q 959 750 1161 570 
Q 1363 391 1709 391 
Q 2188 391 2477 730 
Q 2766 1069 2766 1631 
L 2766 1759 
L 2194 1759 
z
M 3341 1997 
L 3341 0 
L 2766 0 
L 2766 531 
Q 2569 213 2275 61 
Q 1981 -91 1556 -91 
Q 1019 -91 701 211 
Q 384 513 384 1019 
Q 384 1609 779 1909 
Q 1175 2209 1959 2209 
L 2766 2209 
L 2766 2266 
Q 2766 2663 2505 2880 
Q 2244 3097 1772 3097 
Q 1472 3097 1187 3025 
Q 903 2953 641 2809 
L 641 3341 
Q 956 3463 1253 3523 
Q 1550 3584 1831 3584 
Q 2591 3584 2966 3190 
Q 3341 2797 3341 1997 
z
" transform="scale(0.015625)"/>
       <path id="DejaVuSans-69" d="M 603 3500 
L 1178 3500 
L 1178 0 
L 603 0 
L 603 3500 
z
M 603 4863 
L 1178 4863 
L 1178 4134 
L 603 4134 
L 603 4863 
z
" transform="scale(0.015625)"/>
       <path id="DejaVuSans-6e" d="M 3513 2113 
L 3513 0 
L 2938 0 
L 2938 2094 
Q 2938 2591 2744 2837 
Q 2550 3084 2163 3084 
Q 1697 3084 1428 2787 
Q 1159 2491 1159 1978 
L 1159 0 
L 581 0 
L 581 3500 
L 1159 3500 
L 1159 2956 
Q 1366 3272 1645 3428 
Q 1925 3584 2291 3584 
Q 2894 3584 3203 3211 
Q 3513 2838 3513 2113 
z
" transform="scale(0.015625)"/>
       <path id="DejaVuSans-67" d="M 2906 1791 
Q 2906 2416 2648 2759 
Q 2391 3103 1925 3103 
Q 1463 3103 1205 2759 
Q 947 2416 947 1791 
Q 947 1169 1205 825 
Q 1463 481 1925 481 
Q 2391 481 2648 825 
Q 2906 1169 2906 1791 
z
M 3481 434 
Q 3481 -459 3084 -895 
Q 2688 -1331 1869 -1331 
Q 1566 -1331 1297 -1286 
Q 1028 -1241 775 -1147 
L 775 -588 
Q 1028 -725 1275 -790 
Q 1522 -856 1778 -856 
Q 2344 -856 2625 -561 
Q 2906 -266 2906 331 
L 2906 616 
Q 2728 306 2450 153 
Q 2172 0 1784 0 
Q 1141 0 747 490 
Q 353 981 353 1791 
Q 353 2603 747 3093 
Q 1141 3584 1784 3584 
Q 2172 3584 2450 3431 
Q 2728 3278 2906 2969 
L 2906 3500 
L 3481 3500 
L 3481 434 
z
" transform="scale(0.015625)"/>
       <path id="DejaVuSans-20" transform="scale(0.015625)"/>
       <path id="DejaVuSans-74" d="M 1172 4494 
L 1172 3500 
L 2356 3500 
L 2356 3053 
L 1172 3053 
L 1172 1153 
Q 1172 725 1289 603 
Q 1406 481 1766 481 
L 2356 481 
L 2356 0 
L 1766 0 
Q 1100 0 847 248 
Q 594 497 594 1153 
L 594 3053 
L 172 3053 
L 172 3500 
L 594 3500 
L 594 4494 
L 1172 4494 
z
" transform="scale(0.015625)"/>
       <path id="DejaVuSans-6d" d="M 3328 2828 
Q 3544 3216 3844 3400 
Q 4144 3584 4550 3584 
Q 5097 3584 5394 3201 
Q 5691 2819 5691 2113 
L 5691 0 
L 5113 0 
L 5113 2094 
Q 5113 2597 4934 2840 
Q 4756 3084 4391 3084 
Q 3944 3084 3684 2787 
Q 3425 2491 3425 1978 
L 3425 0 
L 2847 0 
L 2847 2094 
Q 2847 2600 2669 2842 
Q 2491 3084 2119 3084 
Q 1678 3084 1418 2786 
Q 1159 2488 1159 1978 
L 1159 0 
L 581 0 
L 581 3500 
L 1159 3500 
L 1159 2956 
Q 1356 3278 1631 3431 
Q 1906 3584 2284 3584 
Q 2666 3584 2933 3390 
Q 3200 3197 3328 2828 
z
" transform="scale(0.015625)"/>
       <path id="DejaVuSans-65" d="M 3597 1894 
L 3597 1613 
L 953 1613 
Q 991 1019 1311 708 
Q 1631 397 2203 397 
Q 2534 397 2845 478 
Q 3156 559 3463 722 
L 3463 178 
Q 3153 47 2828 -22 
Q 2503 -91 2169 -91 
Q 1331 -91 842 396 
Q 353 884 353 1716 
Q 353 2575 817 3079 
Q 1281 3584 2069 3584 
Q 2775 3584 3186 3129 
Q 3597 2675 3597 1894 
z
M 3022 2063 
Q 3016 2534 2758 2815 
Q 2500 3097 2075 3097 
Q 1594 3097 1305 2825 
Q 1016 2553 972 2059 
L 3022 2063 
z
" transform="scale(0.015625)"/>
       <path id="DejaVuSans-28" d="M 1984 4856 
Q 1566 4138 1362 3434 
Q 1159 2731 1159 2009 
Q 1159 1288 1364 580 
Q 1569 -128 1984 -844 
L 1484 -844 
Q 1016 -109 783 600 
Q 550 1309 550 2009 
Q 550 2706 781 3412 
Q 1013 4119 1484 4856 
L 1984 4856 
z
" transform="scale(0.015625)"/>
       <path id="DejaVuSans-73" d="M 2834 3397 
L 2834 2853 
Q 2591 2978 2328 3040 
Q 2066 3103 1784 3103 
Q 1356 3103 1142 2972 
Q 928 2841 928 2578 
Q 928 2378 1081 2264 
Q 1234 2150 1697 2047 
L 1894 2003 
Q 2506 1872 2764 1633 
Q 3022 1394 3022 966 
Q 3022 478 2636 193 
Q 2250 -91 1575 -91 
Q 1294 -91 989 -36 
Q 684 19 347 128 
L 347 722 
Q 666 556 975 473 
Q 1284 391 1588 391 
Q 1994 391 2212 530 
Q 2431 669 2431 922 
Q 2431 1156 2273 1281 
Q 2116 1406 1581 1522 
L 1381 1569 
Q 847 1681 609 1914 
Q 372 2147 372 2553 
Q 372 3047 722 3315 
Q 1072 3584 1716 3584 
Q 2034 3584 2315 3537 
Q 2597 3491 2834 3397 
z
" transform="scale(0.015625)"/>
       <path id="DejaVuSans-29" d="M 513 4856 
L 1013 4856 
Q 1481 4119 1714 3412 
Q 1947 2706 1947 2009 
Q 1947 1309 1714 600 
Q 1481 -109 1013 -844 
L 513 -844 
Q 928 -128 1133 580 
Q 1338 1288 1338 2009 
Q 1338 2731 1133 3434 
Q 928 4138 513 4856 
z
" transform="scale(0.015625)"/>
      </defs>
      <use xlink:href="#DejaVuSans-54"/>
      <use xlink:href="#DejaVuSans-72" x="46.333984"/>
      <use xlink:href="#DejaVuSans-61" x="87.447266"/>
      <use xlink:href="#DejaVuSans-69" x="148.726562"/>
      <use xlink:href="#DejaVuSans-6e" x="176.509766"/>
      <use xlink:href="#DejaVuSans-69" x="239.888672"/>
      <use xlink:href="#DejaVuSans-6e" x="267.671875"/>
      <use xlink:href="#DejaVuSans-67" x="331.050781"/>
      <use xlink:href="#DejaVuSans-20" x="394.527344"/>
      <use xlink:href="#DejaVuSans-74" x="426.314453"/>
      <use xlink:href="#DejaVuSans-69" x="465.523438"/>
      <use xlink:href="#DejaVuSans-6d" x="493.306641"/>
      <use xlink:href="#DejaVuSans-65" x="590.71875"/>
      <use xlink:href="#DejaVuSans-20" x="652.242188"/>
      <use xlink:href="#DejaVuSans-28" x="684.029297"/>
      <use xlink:href="#DejaVuSans-73" x="723.042969"/>
      <use xlink:href="#DejaVuSans-29" x="775.142578"/>
     </g>
    </g>
   </g>
   <g id="matplotlib.axis_2">
    <g id="ytick_1">
     <g id="line2d_13">
      <path d="M 43.78125 281.710433 
L 741.26125 281.710433 
" clip-path="url(#p541c398fdb)" style="fill: none; stroke: #b0b0b0; stroke-opacity: 0.25; stroke-width: 0.8; stroke-linecap: square"/>
     </g>
     <g id="line2d_14">
      <defs>
       <path id="m2242dbbc05" d="M 0 0 
L -3.5 0 
" style="stroke: #000000; stroke-width: 0.8"/>
      </defs>
      <g>
       <use xlink:href="#m2242dbbc05" x="43.78125" y="281.710433" style="stroke: #000000; stroke-width: 0.8"/>
      </g>
     </g>
     <g id="text_8">
      <!-- 0.5 -->
      <g transform="translate(20.878125 285.509652) scale(0.1 -0.1)">
       <defs>
        <path id="DejaVuSans-2e" d="M 684 794 
L 1344 794 
L 1344 0 
L 684 0 
L 684 794 
z
" transform="scale(0.015625)"/>
        <path id="DejaVuSans-35" d="M 691 4666 
L 3169 4666 
L 3169 4134 
L 1269 4134 
L 1269 2991 
Q 1406 3038 1543 3061 
Q 1681 3084 1819 3084 
Q 2600 3084 3056 2656 
Q 3513 2228 3513 1497 
Q 3513 744 3044 326 
Q 2575 -91 1722 -91 
Q 1428 -91 1123 -41 
Q 819 9 494 109 
L 494 744 
Q 775 591 1075 516 
Q 1375 441 1709 441 
Q 2250 441 2565 725 
Q 2881 1009 2881 1497 
Q 2881 1984 2565 2268 
Q 2250 2553 1709 2553 
Q 1456 2553 1204 2497 
Q 953 2441 691 2322 
L 691 4666 
z
" transform="scale(0.015625)"/>
       </defs>
       <use xlink:href="#DejaVuSans-30"/>
       <use xlink:href="#DejaVuSans-2e" x="63.623047"/>
       <use xlink:href="#DejaVuSans-35" x="95.410156"/>
      </g>
     </g>
    </g>
    <g id="ytick_2">
     <g id="line2d_15">
      <path d="M 43.78125 224.934873 
L 741.26125 224.934873 
" clip-path="url(#p541c398fdb)" style="fill: none; stroke: #b0b0b0; stroke-opacity: 0.25; stroke-width: 0.8; stroke-linecap: square"/>
     </g>
     <g id="line2d_16">
      <g>
       <use xlink:href="#m2242dbbc05" x="43.78125" y="224.934873" style="stroke: #000000; stroke-width: 0.8"/>
      </g>
     </g>
     <g id="text_9">
      <!-- 0.6 -->
      <g transform="translate(20.878125 228.734092) scale(0.1 -0.1)">
       <use xlink:href="#DejaVuSans-30"/>
       <use xlink:href="#DejaVuSans-2e" x="63.623047"/>
       <use xlink:href="#DejaVuSans-36" x="95.410156"/>
      </g>
     </g>
    </g>
    <g id="ytick_3">
     <g id="line2d_17">
      <path d="M 43.78125 168.159313 
L 741.26125 168.159313 
" clip-path="url(#p541c398fdb)" style="fill: none; stroke: #b0b0b0; stroke-opacity: 0.25; stroke-width: 0.8; stroke-linecap: square"/>
     </g>
     <g id="line2d_18">
      <g>
       <use xlink:href="#m2242dbbc05" x="43.78125" y="168.159313" style="stroke: #000000; stroke-width: 0.8"/>
      </g>
     </g>
     <g id="text_10">
      <!-- 0.7 -->
      <g transform="translate(20.878125 171.958532) scale(0.1 -0.1)">
       <defs>
        <path id="DejaVuSans-37" d="M 525 4666 
L 3525 4666 
L 3525 4397 
L 1831 0 
L 1172 0 
L 2766 4134 
L 525 4134 
L 525 4666 
z
" transform="scale(0.015625)"/>
       </defs>
       <use xlink:href="#DejaVuSans-30"/>
       <use xlink:href="#DejaVuSans-2e" x="63.623047"/>
       <use xlink:href="#DejaVuSans-37" x="95.410156"/>
      </g>
     </g>
    </g>
    <g id="ytick_4">
     <g id="line2d_19">
      <path d="M 43.78125 111.383753 
L 741.26125 111.383753 
" clip-path="url(#p541c398fdb)" style="fill: none; stroke: #b0b0b0; stroke-opacity: 0.25; stroke-width: 0.8; stroke-linecap: square"/>
     </g>
     <g id="line2d_20">
      <g>
       <use xlink:href="#m2242dbbc05" x="43.78125" y="111.383753" style="stroke: #000000; stroke-width: 0.8"/>
      </g>
     </g>
     <g id="text_11">
      <!-- 0.8 -->
      <g transform="translate(20.878125 115.182971) scale(0.1 -0.1)">
       <use xlink:href="#DejaVuSans-30"/>
       <use xlink:href="#DejaVuSans-2e" x="63.623047"/>
       <use xlink:href="#DejaVuSans-38" x="95.410156"/>
      </g>
     </g>
    </g>
    <g id="ytick_5">
     <g id="line2d_21">
      <path d="M 43.78125 54.608192 
L 741.26125 54.608192 
" clip-path="url(#p541c398fdb)" style="fill: none; stroke: #b0b0b0; stroke-opacity: 0.25; stroke-width: 0.8; stroke-linecap: square"/>
     </g>
     <g id="line2d_22">
      <g>
       <use xlink:href="#m2242dbbc05" x="43.78125" y="54.608192" style="stroke: #000000; stroke-width: 0.8"/>
      </g>
     </g>
     <g id="text_12">
      <!-- 0.9 -->
      <g transform="translate(20.878125 58.407411) scale(0.1 -0.1)">
       <defs>
        <path id="DejaVuSans-39" d="M 703 97 
L 703 672 
Q 941 559 1184 500 
Q 1428 441 1663 441 
Q 2288 441 2617 861 
Q 2947 1281 2994 2138 
Q 2813 1869 2534 1725 
Q 2256 1581 1919 1581 
Q 1219 1581 811 2004 
Q 403 2428 403 3163 
Q 403 3881 828 4315 
Q 1253 4750 1959 4750 
Q 2769 4750 3195 4129 
Q 3622 3509 3622 2328 
Q 3622 1225 3098 567 
Q 2575 -91 1691 -91 
Q 1453 -91 1209 -44 
Q 966 3 703 97 
z
M 1959 2075 
Q 2384 2075 2632 2365 
Q 2881 2656 2881 3163 
Q 2881 3666 2632 3958 
Q 2384 4250 1959 4250 
Q 1534 4250 1286 3958 
Q 1038 3666 1038 3163 
Q 1038 2656 1286 2365 
Q 1534 2075 1959 2075 
z
" transform="scale(0.015625)"/>
       </defs>
       <use xlink:href="#DejaVuSans-30"/>
       <use xlink:href="#DejaVuSans-2e" x="63.623047"/>
       <use xlink:href="#DejaVuSans-39" x="95.410156"/>
      </g>
     </g>
    </g>
    <g id="text_13">
     <!-- Macro correlation -->
     <g transform="translate(14.798438 204.243437) rotate(-90) scale(0.1 -0.1)">
      <defs>
       <path id="DejaVuSans-4d" d="M 628 4666 
L 1569 4666 
L 2759 1491 
L 3956 4666 
L 4897 4666 
L 4897 0 
L 4281 0 
L 4281 4097 
L 3078 897 
L 2444 897 
L 1241 4097 
L 1241 0 
L 628 0 
L 628 4666 
z
" transform="scale(0.015625)"/>
       <path id="DejaVuSans-63" d="M 3122 3366 
L 3122 2828 
Q 2878 2963 2633 3030 
Q 2388 3097 2138 3097 
Q 1578 3097 1268 2742 
Q 959 2388 959 1747 
Q 959 1106 1268 751 
Q 1578 397 2138 397 
Q 2388 397 2633 464 
Q 2878 531 3122 666 
L 3122 134 
Q 2881 22 2623 -34 
Q 2366 -91 2075 -91 
Q 1284 -91 818 406 
Q 353 903 353 1747 
Q 353 2603 823 3093 
Q 1294 3584 2113 3584 
Q 2378 3584 2631 3529 
Q 2884 3475 3122 3366 
z
" transform="scale(0.015625)"/>
       <path id="DejaVuSans-6f" d="M 1959 3097 
Q 1497 3097 1228 2736 
Q 959 2375 959 1747 
Q 959 1119 1226 758 
Q 1494 397 1959 397 
Q 2419 397 2687 759 
Q 2956 1122 2956 1747 
Q 2956 2369 2687 2733 
Q 2419 3097 1959 3097 
z
M 1959 3584 
Q 2709 3584 3137 3096 
Q 3566 2609 3566 1747 
Q 3566 888 3137 398 
Q 2709 -91 1959 -91 
Q 1206 -91 779 398 
Q 353 888 353 1747 
Q 353 2609 779 3096 
Q 1206 3584 1959 3584 
z
" transform="scale(0.015625)"/>
       <path id="DejaVuSans-6c" d="M 603 4863 
L 1178 4863 
L 1178 0 
L 603 0 
L 603 4863 
z
" transform="scale(0.015625)"/>
      </defs>
      <use xlink:href="#DejaVuSans-4d"/>
      <use xlink:href="#DejaVuSans-61" x="86.279297"/>
      <use xlink:href="#DejaVuSans-63" x="147.558594"/>
      <use xlink:href="#DejaVuSans-72" x="202.539062"/>
      <use xlink:href="#DejaVuSans-6f" x="241.402344"/>
      <use xlink:href="#DejaVuSans-20" x="302.583984"/>
      <use xlink:href="#DejaVuSans-63" x="334.371094"/>
      <use xlink:href="#DejaVuSans-6f" x="389.351562"/>
      <use xlink:href="#DejaVuSans-72" x="450.533203"/>
      <use xlink:href="#DejaVuSans-72" x="489.896484"/>
      <use xlink:href="#DejaVuSans-65" x="528.759766"/>
      <use xlink:href="#DejaVuSans-6c" x="590.283203"/>
      <use xlink:href="#DejaVuSans-61" x="618.066406"/>
      <use xlink:href="#DejaVuSans-74" x="679.345703"/>
      <use xlink:href="#DejaVuSans-69" x="718.554688"/>
      <use xlink:href="#DejaVuSans-6f" x="746.337891"/>
      <use xlink:href="#DejaVuSans-6e" x="807.519531"/>
     </g>
    </g>
   </g>
   <g id="patch_3">
    <path d="M 43.78125 299.078125 
L 43.78125 22.318125 
" style="fill: none; stroke: #000000; stroke-width: 0.8; stroke-linejoin: miter; stroke-linecap: square"/>
   </g>
   <g id="patch_4">
    <path d="M 741.26125 299.078125 
L 741.26125 22.318125 
" style="fill: none; stroke: #000000; stroke-width: 0.8; stroke-linejoin: miter; stroke-linecap: square"/>
   </g>
   <g id="patch_5">
    <path d="M 43.78125 299.078125 
L 741.26125 299.078125 
" style="fill: none; stroke: #000000; stroke-width: 0.8; stroke-linejoin: miter; stroke-linecap: square"/>
   </g>
   <g id="patch_6">
    <path d="M 43.78125 22.318125 
L 741.26125 22.318125 
" style="fill: none; stroke: #000000; stroke-width: 0.8; stroke-linejoin: miter; stroke-linecap: square"/>
   </g>
   <g id="text_14">
    <!-- Training time vs macro correlation -->
    <g transform="translate(289.975625 16.318125) scale(0.12 -0.12)">
     <defs>
      <path id="DejaVuSans-76" d="M 191 3500 
L 800 3500 
L 1894 563 
L 2988 3500 
L 3597 3500 
L 2284 0 
L 1503 0 
L 191 3500 
z
" transform="scale(0.015625)"/>
     </defs>
     <use xlink:href="#DejaVuSans-54"/>
     <use xlink:href="#DejaVuSans-72" x="46.333984"/>
     <use xlink:href="#DejaVuSans-61" x="87.447266"/>
     <use xlink:href="#DejaVuSans-69" x="148.726562"/>
     <use xlink:href="#DejaVuSans-6e" x="176.509766"/>
     <use xlink:href="#DejaVuSans-69" x="239.888672"/>
     <use xlink:href="#DejaVuSans-6e" x="267.671875"/>
     <use xlink:href="#DejaVuSans-67" x="331.050781"/>
     <use xlink:href="#DejaVuSans-20" x="394.527344"/>
     <use xlink:href="#DejaVuSans-74" x="426.314453"/>
     <use xlink:href="#DejaVuSans-69" x="465.523438"/>
     <use xlink:href="#DejaVuSans-6d" x="493.306641"/>
     <use xlink:href="#DejaVuSans-65" x="590.71875"/>
     <use xlink:href="#DejaVuSans-20" x="652.242188"/>
     <use xlink:href="#DejaVuSans-76" x="684.029297"/>
     <use xlink:href="#DejaVuSans-73" x="743.208984"/>
     <use xlink:href="#DejaVuSans-20" x="795.308594"/>
     <use xlink:href="#DejaVuSans-6d" x="827.095703"/>
     <use xlink:href="#DejaVuSans-61" x="924.507812"/>
     <use xlink:href="#DejaVuSans-63" x="985.787109"/>
     <use xlink:href="#DejaVuSans-72" x="1040.767578"/>
     <use xlink:href="#DejaVuSans-6f" x="1079.630859"/>
     <use xlink:href="#DejaVuSans-20" x="1140.8125"/>
     <use xlink:href="#DejaVuSans-63" x="1172.599609"/>
     <use xlink:href="#DejaVuSans-6f" x="1227.580078"/>
     <use xlink:href="#DejaVuSans-72" x="1288.761719"/>
     <use xlink:href="#DejaVuSans-72" x="1328.125"/>
     <use xlink:href="#DejaVuSans-65" x="1366.988281"/>
     <use xlink:href="#DejaVuSans-6c" x="1428.511719"/>
     <use xlink:href="#DejaVuSans-61" x="1456.294922"/>
     <use xlink:href="#DejaVuSans-74" x="1517.574219"/>
     <use xlink:href="#DejaVuSans-69" x="1556.783203"/>
     <use xlink:href="#DejaVuSans-6f" x="1584.566406"/>
     <use xlink:href="#DejaVuSans-6e" x="1645.748047"/>
    </g>
   </g>
   <g id="legend_1">
    <g id="patch_7">
     <path d="M 50.78125 59.674375 
L 105.44375 59.674375 
Q 107.44375 59.674375 107.44375 57.674375 
L 107.44375 29.318125 
Q 107.44375 27.318125 105.44375 27.318125 
L 50.78125 27.318125 
Q 48.78125 27.318125 48.78125 29.318125 
L 48.78125 57.674375 
Q 48.78125 59.674375 50.78125 59.674375 
z
" style="fill: #ffffff; opacity: 0.8; stroke: #cccccc; stroke-linejoin: miter"/>
    </g>
    <g id="PathCollection_3">
     <defs>
      <path id="m39f23cf093" d="M 0 4.960003 
C 1.315408 4.960003 2.577118 4.437386 3.507252 3.507252 
C 4.437386 2.577118 4.960003 1.315408 4.960003 0 
C 4.960003 -1.315408 4.437386 -2.577118 3.507252 -3.507252 
C 2.577118 -4.437386 1.315408 -4.960003 0 -4.960003 
C -1.315408 -4.960003 -2.577118 -4.437386 -3.507252 -3.507252 
C -4.437386 -2.577118 -4.960003 -1.315408 -4.960003 0 
C -4.960003 1.315408 -4.437386 2.577118 -3.507252 3.507252 
C -2.577118 4.437386 -1.315408 4.960003 0 4.960003 
z
" style="stroke: #d62728; stroke-opacity: 0.7"/>
     </defs>
     <g>
      <use xlink:href="#m39f23cf093" x="62.78125" y="36.291562" style="fill: #d62728; fill-opacity: 0.7; stroke: #d62728; stroke-opacity: 0.7"/>
     </g>
    </g>
    <g id="text_15">
     <!-- DNN -->
     <g transform="translate(80.78125 38.916562) scale(0.1 -0.1)">
      <defs>
       <path id="DejaVuSans-44" d="M 1259 4147 
L 1259 519 
L 2022 519 
Q 2988 519 3436 956 
Q 3884 1394 3884 2338 
Q 3884 3275 3436 3711 
Q 2988 4147 2022 4147 
L 1259 4147 
z
M 628 4666 
L 1925 4666 
Q 3281 4666 3915 4102 
Q 4550 3538 4550 2338 
Q 4550 1131 3912 565 
Q 3275 0 1925 0 
L 628 0 
L 628 4666 
z
" transform="scale(0.015625)"/>
       <path id="DejaVuSans-4e" d="M 628 4666 
L 1478 4666 
L 3547 763 
L 3547 4666 
L 4159 4666 
L 4159 0 
L 3309 0 
L 1241 3903 
L 1241 0 
L 628 0 
L 628 4666 
z
" transform="scale(0.015625)"/>
      </defs>
      <use xlink:href="#DejaVuSans-44"/>
      <use xlink:href="#DejaVuSans-4e" x="77.001953"/>
      <use xlink:href="#DejaVuSans-4e" x="151.806641"/>
     </g>
    </g>
    <g id="PathCollection_4">
     <defs>
      <path id="m9cf20ce9a5" d="M 0 2.0408 
C 0.541227 2.0408 1.060359 1.825769 1.443064 1.443064 
C 1.825769 1.060359 2.0408 0.541227 2.0408 0 
C 2.0408 -0.541227 1.825769 -1.060359 1.443064 -1.443064 
C 1.060359 -1.825769 0.541227 -2.0408 0 -2.0408 
C -0.541227 -2.0408 -1.060359 -1.825769 -1.443064 -1.443064 
C -1.825769 -1.060359 -2.0408 -0.541227 -2.0408 0 
C -2.0408 0.541227 -1.825769 1.060359 -1.443064 1.443064 
C -1.060359 1.825769 -0.541227 2.0408 0 2.0408 
z
" style="stroke: #1f77b4; stroke-opacity: 0.7"/>
     </defs>
     <g>
      <use xlink:href="#m9cf20ce9a5" x="62.78125" y="50.969687" style="fill: #1f77b4; fill-opacity: 0.7; stroke: #1f77b4; stroke-opacity: 0.7"/>
     </g>
    </g>
    <g id="text_16">
     <!-- SNN -->
     <g transform="translate(80.78125 53.594687) scale(0.1 -0.1)">
      <defs>
       <path id="DejaVuSans-53" d="M 3425 4513 
L 3425 3897 
Q 3066 4069 2747 4153 
Q 2428 4238 2131 4238 
Q 1616 4238 1336 4038 
Q 1056 3838 1056 3469 
Q 1056 3159 1242 3001 
Q 1428 2844 1947 2747 
L 2328 2669 
Q 3034 2534 3370 2195 
Q 3706 1856 3706 1288 
Q 3706 609 3251 259 
Q 2797 -91 1919 -91 
Q 1588 -91 1214 -16 
Q 841 59 441 206 
L 441 856 
Q 825 641 1194 531 
Q 1563 422 1919 422 
Q 2459 422 2753 634 
Q 3047 847 3047 1241 
Q 3047 1584 2836 1778 
Q 2625 1972 2144 2069 
L 1759 2144 
Q 1053 2284 737 2584 
Q 422 2884 422 3419 
Q 422 4038 858 4394 
Q 1294 4750 2059 4750 
Q 2388 4750 2728 4690 
Q 3069 4631 3425 4513 
z
" transform="scale(0.015625)"/>
      </defs>
      <use xlink:href="#DejaVuSans-53"/>
      <use xlink:href="#DejaVuSans-4e" x="63.476562"/>
      <use xlink:href="#DejaVuSans-4e" x="138.28125"/>
     </g>
    </g>
   </g>
  </g>
 </g>
 <defs>
  <clipPath id="p541c398fdb">
   <rect x="43.78125" y="22.318125" width="697.48" height="276.76"/>
  </clipPath>
 </defs>
</svg>
